<?xml version="1.0" standalone="no"?>
<!DOCTYPE svg PUBLIC "-//W3C//DTD SVG 20010904//EN"
 "http://www.w3.org/TR/2001/REC-SVG-20010904/DTD/svg10.dtd">
<svg version="1.0" xmlns="http://www.w3.org/2000/svg"
 width="512.000000pt" height="512.000000pt" viewBox="0 0 512.000000 512.000000"
 preserveAspectRatio="xMidYMid meet">
<metadata>
Created by potrace 1.14, written by Peter Selinger 2001-2017
</metadata>
<g transform="translate(0.000000,512.000000) scale(0.100000,-0.100000)"
fill="#000000" stroke="none">
<path d="M393 5106 c-186 -45 -345 -207 -382 -388 -8 -38 -11 -677 -9 -2183
l3 -2130 22 -60 c67 -175 220 -306 393 -335 46 -8 684 -10 2180 -8 l2115 3 68
27 c86 35 141 73 205 143 60 66 106 156 122 240 8 44 10 633 8 2180 l-3 2120
-23 59 c-64 169 -213 300 -380 335 -82 17 -4248 14 -4319 -3z m1473 -783 c5
-16 -30 -283 -86 -673 -101 -694 -108 -774 -76 -915 46 -200 159 -369 298
-442 48 -25 63 -28 153 -28 93 0 105 2 166 32 76 38 187 147 257 253 101 153
215 419 274 638 l31 117 9 515 c5 283 10 515 11 516 1 1 102 5 224 8 l223 8
11 -26 c10 -21 -7 -134 -101 -671 -123 -708 -116 -641 -89 -920 36 -368 125
-505 329 -505 105 0 157 26 245 123 l69 75 43 -29 42 -29 -29 -69 c-89 -217
-227 -373 -376 -427 -115 -42 -282 -42 -364 1 -99 51 -168 213 -205 481 -16
118 -44 357 -45 382 0 28 -30 10 -39 -25 -5 -21 -19 -75 -30 -119 -30 -119
-87 -276 -133 -368 -138 -277 -323 -405 -567 -394 -126 6 -172 28 -271 127
-56 57 -90 103 -134 184 -32 59 -65 107 -73 107 -12 0 -13 -30 -8 -197 10
-323 23 -551 51 -856 14 -159 22 -292 18 -297 -20 -17 -371 -133 -399 -132
-72 5 -68 -13 -61 251 18 647 49 1001 126 1463 l30 176 0 841 0 840 138 4 c75
1 181 4 234 5 l98 2 6 -27z"/>
</g>
</svg>
