<?xml version="1.0" encoding="UTF-8" standalone="no"?>
<!-- Created with Inkscape (http://www.inkscape.org/) -->

<svg
   xmlns:dc="http://purl.org/dc/elements/1.1/"
   xmlns:cc="http://creativecommons.org/ns#"
   xmlns:rdf="http://www.w3.org/1999/02/22-rdf-syntax-ns#"
   xmlns:svg="http://www.w3.org/2000/svg"
   xmlns="http://www.w3.org/2000/svg"
   xmlns:sodipodi="http://sodipodi.sourceforge.net/DTD/sodipodi-0.dtd"
   xmlns:inkscape="http://www.inkscape.org/namespaces/inkscape"
   width="5000"
   height="5000"
   viewBox="0 0 1322.9166 1322.9167"
   version="1.1"
   id="svg8"
   sodipodi:docname="favicon_rounded.svg"
   style="enable-background:new"
   inkscape:version="0.92.5 (2060ec1f9f, 2020-04-08)">
  <defs
     id="defs2" />
  <sodipodi:namedview
     id="base"
     pagecolor="#ffffff"
     bordercolor="#666666"
     borderopacity="1.0"
     inkscape:pageopacity="0"
     inkscape:pageshadow="2"
     inkscape:zoom="0.089015698"
     inkscape:cx="7972.7218"
     inkscape:cy="874.83579"
     inkscape:document-units="mm"
     inkscape:current-layer="layer2"
     showgrid="false"
     inkscape:window-width="1848"
     inkscape:window-height="1009"
     inkscape:window-x="72"
     inkscape:window-y="34"
     inkscape:window-maximized="1"
     units="px"
     fit-margin-top="0"
     fit-margin-left="0"
     fit-margin-right="0"
     fit-margin-bottom="0"
     showguides="false">
    <inkscape:grid
       type="xygrid"
       id="grid3819" />
  </sodipodi:namedview>
  <metadata
     id="metadata5">
    <rdf:RDF>
      <cc:Work
         rdf:about="">
        <dc:format>image/svg+xml</dc:format>
        <dc:type
           rdf:resource="http://purl.org/dc/dcmitype/StillImage" />
        <dc:title></dc:title>
      </cc:Work>
    </rdf:RDF>
  </metadata>
  <g
     inkscape:groupmode="layer"
     id="layer2"
     inkscape:label="back"
     style="display:inline">
    <rect
       style="fill:#444444;fill-opacity:1;stroke:#444444;stroke-width:1.08069301;stroke-miterlimit:4;stroke-dasharray:none;stroke-opacity:1"
       id="rect4649"
       width="1321.8359"
       height="1321.8359"
       x="0.5403465"
       y="0.54036707"
       inkscape:label="rect"
       ry="198.4375"
       rx="198.4375" />
  </g>
  <g
     inkscape:label="mu"
     inkscape:groupmode="layer"
     id="layer1"
     transform="translate(-24.099388,1051.1856)"
     style="display:inline">
    <g
       aria-label="μ"
       style="font-style:normal;font-weight:normal;font-size:10.58333302px;line-height:1.25;font-family:sans-serif;letter-spacing:0px;word-spacing:0px;fill:#ffffff;fill-opacity:1;stroke:none;stroke-width:0.26458332"
       id="text12"
       inkscape:label="text">
      <path
         d="m 939.60121,-815.1373 -58.25067,334.60268 q 0,5.41867 1.35466,25.73867 1.35467,20.32 2.70934,35.22133 5.41866,77.216 25.73867,112.43734 20.32,33.86666 58.25067,33.86666 32.51162,0 50.12222,-16.256 18.9654,-16.256 33.8667,-36.576 l 23.0293,14.90134 q -10.8373,31.15734 -31.1573,63.66934 -18.9653,32.512 -50.1224,54.18666 -29.80252,20.32 -74.50653,20.32 -50.12267,0 -69.088,-31.15733 -17.61067,-32.51201 -25.73867,-79.92533 -2.70933,-20.32 -6.77333,-44.704 -2.70933,-25.73868 -8.128,-79.92534 h -8.128 q -21.67467,98.89066 -52.83201,151.72266 -29.80266,51.47734 -65.024,70.44268 -33.86666,17.61066 -67.73333,17.61066 -36.576,0 -62.31467,-18.96533 -24.384,-20.32 -40.64,-46.05867 -14.90133,-27.09334 -24.384,-46.05866 h -6.77333 q 1.35466,54.18666 2.70933,104.30933 1.35467,51.47733 5.41867,109.728001 5.41866,58.250668 13.54666,138.176 l -101.6,35.221339 -21.67466,-4.064 q 1.35466,-94.826667 4.064,-173.397339 4.064,-77.216001 12.192,-153.077331 9.48266,-75.86134 25.73866,-165.26934 l -1.35466,-434.84802 121.92,-4.064 5.41866,10.83734 -48.768,335.95734 q 0,0 -1.35466,9.48267 0,8.128 0,20.32 0,40.64 14.90133,79.92533 16.256,37.93068 43.34933,63.66934 28.44801,25.73866 65.02401,25.73866 36.576,0 66.37866,-25.73866 29.80268,-25.73866 52.832,-65.024 23.02934,-39.28534 37.93068,-79.92534 16.256,-40.64 24.384,-73.152 8.128,-32.512 8.128,-41.99467 l 4.064,-256.03201 116.50133,-4.064 z"
         style="font-style:normal;font-variant:normal;font-weight:normal;font-stretch:normal;font-size:1693.33337402px;font-family:'STIX Two Math';-inkscape-font-specification:'STIX Two Math';fill:#ffffff;stroke-width:0.21166666"
         id="path3821"
         inkscape:connector-curvature="0" />
    </g>
  </g>
</svg>
