<?xml version="1.0" standalone="no"?>
<!DOCTYPE svg PUBLIC "-//W3C//DTD SVG 20010904//EN"
 "http://www.w3.org/TR/2001/REC-SVG-20010904/DTD/svg10.dtd">
<svg version="1.0" xmlns="http://www.w3.org/2000/svg"
 width="700.000000pt" height="700.000000pt" viewBox="0 0 700.000000 700.000000"
 preserveAspectRatio="xMidYMid meet">
<metadata>
Created by potrace 1.14, written by Peter Selinger 2001-2017
</metadata>
<g transform="translate(0.000000,700.000000) scale(0.100000,-0.100000)"
fill="#000000" stroke="none">
<path d="M0 3500 l0 -3500 3500 0 3500 0 0 3500 0 3500 -3500 0 -3500 0 0
-3500z m2765 2290 c14 -28 7 -85 -120 -962 l-136 -933 10 -135 c18 -240 79
-414 201 -579 130 -175 268 -251 455 -251 93 1 180 26 269 80 76 46 228 204
298 310 162 244 338 674 406 990 19 87 22 153 33 785 6 380 13 692 16 695 3 3
140 10 306 15 327 11 318 12 333 -43 3 -12 -62 -413 -145 -891 -91 -526 -151
-894 -151 -934 0 -96 28 -418 45 -522 46 -272 134 -440 261 -496 103 -46 242
-44 349 5 51 24 153 115 217 195 l36 45 60 -40 61 -40 -34 -84 c-127 -308
-324 -533 -531 -605 -225 -78 -484 -43 -592 80 -103 117 -175 400 -222 875
-11 113 -23 215 -25 228 -8 33 -43 29 -51 -5 -44 -201 -122 -452 -184 -596
-106 -246 -271 -460 -421 -544 -168 -95 -378 -125 -542 -76 -171 50 -311 192
-442 446 -42 81 -65 117 -77 117 -22 0 -22 3 -8 -450 13 -431 24 -607 65
-1028 19 -194 35 -360 35 -370 0 -15 -51 -36 -267 -110 -265 -92 -269 -93
-322 -82 -30 5 -56 12 -58 14 -6 6 16 864 27 1046 29 481 66 798 150 1303 l40
238 0 1155 c0 635 1 1155 3 1155 1 1 144 7 317 14 173 6 316 12 317 13 1 1 9
-11 18 -28z"/>
</g>
</svg>
