<svg xmlns="http://www.w3.org/2000/svg" width="400" height="400" viewBox="0 0 400 NaN"  xmlns:v="https://vecta.io/nano"><path d="M186.667 3.729l-9 .976C71.605 15.851-8.589 116.812 4.537 222.667 24.872 386.648 223.04 455.723 339.381 339.381 454.617 224.145 387.902 27.387 226 4.997c-7.262-1.004-34.202-1.873-39.333-1.268M98.801 69.416c7.832 1.662 7.598 1.454 55.532 49.305l45.334 45.254L245 118.724c48.521-48.433 47.751-47.755 56.202-49.418 15.906-3.129 31.829 12.712 28.805 28.658-1.506 7.941-.51 6.816-49.192 55.534l-45.797 45.831 45.422 45.502c44.718 44.796 46.903 47.177 48.776 53.169 6.376 20.394-15.611 39.146-34.758 29.645-2.743-1.361-12.831-11.08-48.793-47.014l-45.998-45.298c-.365 0-21.064 20.384-45.999 45.298-48.345 48.307-47.817 47.84-55.992 49.482C80.918 333.478 64.872 314.78 70.118 298c1.873-5.992 4.057-8.373 48.775-53.169l45.422-45.502-45.797-45.831c-48.682-48.718-47.686-47.593-49.191-55.534-3.098-16.334 13.099-32.022 29.474-28.548" fill-rule="evenodd"/></svg>