<svg xmlns="http://www.w3.org/2000/svg" width="400" height="400" viewBox="0 0 400 NaN"  xmlns:v="https://vecta.io/nano"><path d="M186.667 3.729l-9 .976C42.351 18.926-37.288 168.254 25.297 290.411c64.763 126.409 240.57 144.003 328.976 32.922C449.499 203.682 377.904 26.005 226 4.997c-7.262-1.004-34.202-1.873-39.333-1.268m22.308 84.896c.212.344-1.321 9.777-3.407 20.961l-3.793 20.335-2.599.439c-3.256.55-2.412 2.366-6.99-15.027l-3.948-15-59.571-.347v74.877l22.062-.351c25.997-.414 23.063.851 26.875-11.585l2.838-9.26 6.558-.392-.211 53.725h-6.4l-2.913-9.667c-3.851-12.779-.809-11.432-26.747-11.845l-22.062-.351v36.384c0 42.339-1.186 37.426 9.848 40.818l9.485 2.917c1.377.425 1.702.997 1.872 3.296l.205 2.781H83.394l-.447-2.383c-.581-3.093-.68-3.028 9.053-5.912 4.583-1.358 8.783-2.908 9.333-3.444 1.086-1.058 1.579-153.87.509-157.676-.551-1.959-.968-2.158-11.509-5.492L83 94.106l-.41-5.431 48.205-.175 62.999-.338c8.684-.095 14.954.096 15.181.463m62.615 62.042c-1.754 53.311-1.983 72.266-1.151 95.243.535 14.778-.4 13.524 12.561 16.848 11.092 2.846 12.333 3.52 12.333 6.703v1.872h-74l-.111-1.666-.166-2.792c-.045-.909 2.101-1.665 11.195-3.942 6.188-1.549 11.738-3.304 12.334-3.9 1.034-1.036 1.741-92.929.722-93.948-.169-.169-5.557-.802-11.974-1.406-15.313-1.443-14.522-1.23-15.05-4.049-.598-3.187-1.34-2.904 14.215-5.406L257 150.072c13.835-2.5 14.691-2.465 14.59.595" fill-rule="evenodd"/></svg>