<svg xmlns="http://www.w3.org/2000/svg" width="400" height="226.506" viewBox="0 0 400 NaN"  xmlns:v="https://vecta.io/nano"><path d="M121.286 35.91c-.001 1.5.863 2.03 5.61 3.444 7.793 2.321 7.241-1.771 7.241 53.612 0 55.298.622 50.734-7.229 52.999-4.194 1.209-5.272 1.853-5.478 3.272l-.257 1.767 18.329.201c33.952.372 40.518-.276 50.353-4.97 27.182-12.973 24.052-52.256-4.583-57.52l-3.082-.566 4.783-2.371c23.574-11.685 22.803-41.658-1.281-49.812-5.193-1.759-6.349-1.819-34.888-1.824l-29.517-.005-.001 1.773m54.376 7.908c13.271 6.493 13.51 30.644.382 38.605-4.899 2.971-7.614 3.5-18.012 3.512l-7.831.009V41.041l5.02-.24c8.274-.394 15.713.704 20.441 3.017m157.403 9.602c-4.709 1.293-3.771-.194-7.071 11.212-3.13 10.819-2.947 10.645-11.335 10.79-4.583.079-5.451.74-3.991 3.036.331.521 3.024 1.556 5.984 2.299l5.381 1.352.228 29.829c.259 33.728.309 34.023 6.521 38.134 3.864 2.557 13.244 3.352 20.574 1.745 14.316-3.14 22.969-10.484 10.684-9.068-21.555 2.484-21.884 1.977-21.886-33.713l-.001-26.305h25.702v-8.032h-25.702V63.454c0-6.185-.271-11.213-.603-11.173s-2.35.552-4.485 1.139M39.02 73.454l-7.164 1.779.199 58.564.441 58.806c.225.225 13.478-1.37 15.322-1.844.566-.146.523-3.247-.135-9.743-1.321-13.04-2.254-33.225-1.536-33.225.323 0 1.515.73 2.648 1.621 8.071 6.349 23.016 4.133 30.654-4.544l2.98-3.386.95 3.552c2.253 8.423 9.11 9.897 25.256 5.43 6.9-1.909 6.786-4.733-.212-5.239-10.48-.758-10.504-.858-10.24-42.961L97.98 72.01c-.214-.214-3.823.435-8.02 1.442l-7.631 1.832.548 58.451-2.684 2.52c-7.35 6.904-21.2 8.197-27.602 2.576-5.024-4.411-5.399-7.289-5.094-39.048.17-17.76-.018-27.832-.523-27.94-.434-.092-4.013.632-7.954 1.611m214.795-1.122c-42.621 7.375-42.401 73.787.266 80.413 29.924 4.647 53.224-21.97 46.012-52.561-4.797-20.344-23.75-31.75-46.278-27.852m16.86 8.307c17.847 8.796 18.228 54.803.532 64.14-13.343 7.04-27.566-2.732-31.1-21.368-5.8-30.582 10.116-52.851 30.568-42.772m-96.43 13.797c21.679 6.438 21.705 41.793.036 48.791-4.199 1.356-18.361 1.893-22.273.845l-1.807-.484V93.27l3.012-.359c4.842-.576 16.9.298 21.032 1.525" fill-rule="evenodd"/></svg>