<svg xmlns="http://www.w3.org/2000/svg" width="400" height="400" viewBox="0 0 400 NaN"  xmlns:v="https://vecta.io/nano"><path d="M186.667 3.729l-9 .976C71.605 15.851-8.589 116.812 4.537 222.667 24.872 386.648 223.04 455.723 339.381 339.381 454.617 224.145 387.902 27.387 226 4.997c-7.262-1.004-34.202-1.873-39.333-1.268m-4 35.533c6.343 2.637 6.277 2.283 6.549 34.691.131 15.609.436 28.565.678 28.792s4.939 1.043 10.439 1.816C296.116 118.016 358.36 210.711 334.256 304c-3.723 14.408-16.009 42.999-16.315 37.967-4.137-68.016-58.592-125.536-124.108-131.093l-4.5-.382-.079 22.254c-.111 31.45-.26 34.494-1.783 36.552-2.999 4.051-8.055 5.741-12.261 4.099-3.278-1.28-117.691-96.377-130.651-108.594-8.565-8.074-7.708-10.841 7.338-23.697L168.156 44.12c7.622-6.191 9.662-6.874 14.511-4.858" fill-rule="evenodd"/></svg>