<svg id="svg" version="1.1" xmlns="http://www.w3.org/2000/svg" xmlns:xlink="http://www.w3.org/1999/xlink" width="400" height="400" viewBox="0, 0, 400,400"><g id="svgg"><path id="path0" d="M186.667 3.729 C 185.383 3.880,181.333 4.319,177.667 4.705 C 71.605 15.851,-8.589 116.812,4.537 222.667 C 24.872 386.648,223.040 455.723,339.381 339.381 C 454.617 224.145,387.902 27.387,226.000 4.997 C 218.738 3.993,191.798 3.124,186.667 3.729 M206.763 43.000 C 210.353 48.258,231.230 77.949,238.640 88.333 C 240.733 91.267,243.770 95.577,245.389 97.911 C 249.078 103.229,251.306 106.397,274.612 139.458 C 285.032 154.239,297.450 171.883,302.209 178.667 C 306.967 185.450,311.634 192.017,312.580 193.259 C 314.123 195.287,314.164 195.480,312.983 195.150 C 312.259 194.947,309.267 194.290,306.333 193.690 C 303.400 193.090,296.950 191.736,292.000 190.680 C 287.050 189.624,278.500 187.822,273.000 186.676 C 267.500 185.530,259.569 183.817,255.376 182.869 C 236.265 178.549,235.930 179.113,239.673 209.333 C 240.195 213.550,240.947 220.450,241.344 224.667 C 242.468 236.622,248.782 297.357,251.393 321.333 C 252.132 328.117,253.160 338.317,253.678 344.000 C 254.196 349.683,254.823 356.358,255.073 358.833 L 255.526 363.333 202.345 363.333 L 149.163 363.333 149.551 360.833 C 149.764 359.458,150.123 355.933,150.348 353.000 C 150.573 350.067,151.623 339.567,152.680 329.667 C 153.738 319.767,155.064 307.017,155.628 301.333 C 156.192 295.650,157.852 279.600,159.317 265.667 C 168.544 177.924,167.853 185.892,166.423 183.711 C 164.920 181.415,162.393 180.493,159.030 181.011 C 156.021 181.475,127.575 187.068,102.737 192.080 C 93.792 193.885,86.377 195.266,86.259 195.148 C 86.142 195.031,90.992 188.199,97.038 179.967 C 103.083 171.735,110.798 161.215,114.182 156.590 C 120.341 148.170,133.160 130.755,150.686 107.000 C 155.825 100.033,163.428 89.683,167.580 84.000 C 171.733 78.317,179.694 67.517,185.271 60.000 C 190.849 52.483,196.952 44.155,198.833 41.494 C 200.715 38.832,202.449 36.882,202.688 37.160 C 202.927 37.439,204.761 40.067,206.763 43.000 " stroke="none" fill="#000000" fill-rule="evenodd"></path></g></svg>