<svg id="svg" version="1.1" xmlns="http://www.w3.org/2000/svg" xmlns:xlink="http://www.w3.org/1999/xlink" width="400" height="400" viewBox="0, 0, 400,400"><g id="svgg"><path id="path0" d="M186.667 3.729 C 185.383 3.880,181.333 4.319,177.667 4.705 C 71.605 15.851,-8.589 116.812,4.537 222.667 C 24.872 386.648,223.040 455.723,339.381 339.381 C 454.617 224.145,387.902 27.387,226.000 4.997 C 218.738 3.993,191.798 3.124,186.667 3.729 M98.801 69.416 C 106.633 71.078,106.399 70.870,154.333 118.721 L 199.667 163.975 245.000 118.724 C 293.521 70.291,292.751 70.969,301.202 69.306 C 317.108 66.177,333.031 82.018,330.007 97.964 C 328.501 105.905,329.497 104.780,280.815 153.498 L 235.018 199.329 280.440 244.831 C 325.158 289.627,327.343 292.008,329.216 298.000 C 335.592 318.394,313.605 337.146,294.458 327.645 C 291.715 326.284,281.627 316.565,245.665 280.631 C 220.731 255.717,200.031 235.333,199.667 235.333 C 199.302 235.333,178.603 255.717,153.668 280.631 C 105.323 328.938,105.851 328.471,97.676 330.113 C 80.918 333.478,64.872 314.780,70.118 298.000 C 71.991 292.008,74.175 289.627,118.893 244.831 L 164.315 199.329 118.518 153.498 C 69.836 104.780,70.832 105.905,69.327 97.964 C 66.229 81.630,82.426 65.942,98.801 69.416 " stroke="none" fill="#000000" fill-rule="evenodd"></path></g></svg>