<svg id="svg" version="1.1" xmlns="http://www.w3.org/2000/svg" xmlns:xlink="http://www.w3.org/1999/xlink" width="400" height="400" viewBox="0, 0, 400,400"><g id="svgg"><path id="path0" d="M0.000 200.000 L 0.000 400.000 200.000 400.000 L 400.000 400.000 400.000 200.000 L 400.000 0.000 200.000 0.000 L 0.000 0.000 0.000 200.000 M215.800 4.002 C 306.899 10.937,381.856 80.812,395.159 171.200 C 396.836 182.597,396.999 185.168,397.000 200.200 C 397.000 215.243,396.815 218.190,395.151 229.600 C 390.532 261.287,377.649 292.147,358.164 318.200 C 327.067 359.781,280.328 387.756,229.600 395.151 C 218.190 396.815,215.243 397.000,200.200 397.000 C 185.173 396.999,182.616 396.837,171.200 395.160 C 84.054 382.360,14.371 310.682,4.803 224.000 C 4.573 221.910,4.301 219.660,4.200 219.000 C 1.146 199.096,5.062 163.493,12.933 139.600 C 31.125 84.379,71.433 40.714,124.822 18.392 C 153.245 6.508,184.266 1.602,215.800 4.002 M172.800 88.422 C 162.790 88.569,138.445 88.714,118.700 88.744 L 82.800 88.800 82.800 91.367 L 82.800 93.934 84.700 94.610 C 87.306 95.538,87.795 95.697,94.425 97.769 C 102.768 100.376,102.060 98.995,102.498 113.499 C 103.023 130.905,102.629 256.191,102.043 258.059 C 101.358 260.241,99.340 261.110,86.259 264.849 C 82.704 265.865,82.607 265.990,82.984 269.006 L 83.258 271.200 116.647 271.200 L 150.037 271.200 149.918 268.512 L 149.800 265.824 145.400 264.473 C 142.980 263.730,140.460 262.977,139.800 262.798 C 137.872 262.278,132.296 260.517,131.121 260.058 C 128.451 259.013,128.600 261.301,128.600 221.418 L 128.600 185.400 146.600 185.507 C 156.500 185.566,166.471 185.720,168.758 185.850 C 174.607 186.181,173.817 184.997,178.399 200.293 C 179.468 203.864,180.429 206.924,180.533 207.093 C 180.637 207.262,182.108 207.310,183.802 207.200 L 186.882 207.000 186.941 180.295 C 187.008 149.750,187.475 152.906,182.961 153.389 L 180.414 153.662 179.981 155.331 C 179.742 156.249,179.228 157.990,178.837 159.200 C 178.446 160.410,177.830 162.390,177.467 163.600 C 175.322 170.757,174.711 172.345,173.757 173.240 L 172.736 174.200 151.190 174.551 C 139.339 174.744,129.363 174.795,129.020 174.663 C 128.460 174.448,128.406 170.619,128.498 137.312 L 128.600 100.200 158.177 100.097 C 174.445 100.041,187.901 100.141,188.079 100.319 C 188.257 100.497,188.681 101.713,189.022 103.021 C 189.733 105.754,192.042 114.522,193.441 119.800 C 193.966 121.780,194.797 124.996,195.289 126.948 C 196.316 131.023,196.292 131.004,199.398 130.314 L 201.734 129.796 202.239 127.198 C 203.027 123.144,205.113 111.971,206.233 105.800 C 206.792 102.720,207.410 99.480,207.605 98.600 C 208.887 92.834,209.325 89.233,208.820 88.624 C 208.242 87.927,206.983 87.920,172.800 88.422 M268.367 148.163 C 268.275 148.252,265.950 148.698,263.200 149.155 C 260.450 149.611,257.300 150.167,256.200 150.391 C 254.312 150.775,246.838 152.041,242.000 152.797 C 240.790 152.985,237.910 153.447,235.600 153.823 C 233.290 154.198,230.500 154.641,229.400 154.806 C 216.219 156.782,217.607 156.127,218.433 159.981 C 218.951 162.397,218.439 162.219,227.200 163.019 C 239.062 164.102,241.774 164.365,243.652 164.615 L 245.504 164.862 245.809 191.931 C 246.221 228.605,245.881 256.696,245.004 258.392 C 244.270 259.812,243.584 260.135,238.600 261.409 C 218.279 266.604,220.654 265.622,221.078 268.658 L 221.405 271.000 258.302 271.102 L 295.200 271.204 295.160 269.502 C 295.067 265.525,296.975 266.425,278.800 261.782 C 272.878 260.269,271.638 259.604,270.923 257.563 C 269.722 254.135,270.569 153.553,271.826 150.277 C 272.333 148.956,269.395 147.160,268.367 148.163 " stroke="none" fill="#fbfbfb" fill-rule="evenodd"></path><path id="path1" d="M190.000 3.602 C 166.827 4.969,145.174 9.883,124.822 18.392 C 64.465 43.628,20.110 97.350,7.409 160.600 C 3.627 179.436,2.177 205.818,4.200 219.000 C 4.301 219.660,4.573 221.910,4.803 224.000 C 12.289 291.814,57.781 353.029,121.386 380.874 C 139.924 388.990,158.158 393.762,181.000 396.476 C 187.026 397.193,213.373 397.188,219.600 396.469 C 240.961 394.005,257.665 389.826,275.400 382.512 C 339.220 356.188,385.269 297.389,395.151 229.600 C 396.815 218.190,397.000 215.243,397.000 200.200 C 396.999 185.168,396.836 182.597,395.159 171.200 C 380.463 71.346,290.293 -2.316,190.000 3.602 M208.820 88.624 C 209.325 89.233,208.887 92.834,207.605 98.600 C 207.410 99.480,206.792 102.720,206.233 105.800 C 205.113 111.971,203.027 123.144,202.239 127.198 L 201.734 129.796 199.398 130.314 C 196.292 131.004,196.316 131.023,195.289 126.948 C 194.797 124.996,193.966 121.780,193.441 119.800 C 192.042 114.522,189.733 105.754,189.022 103.021 C 188.681 101.713,188.257 100.497,188.079 100.319 C 187.901 100.141,174.445 100.041,158.177 100.097 L 128.600 100.200 128.498 137.312 C 128.406 170.619,128.460 174.448,129.020 174.663 C 129.363 174.795,139.339 174.744,151.190 174.551 L 172.736 174.200 173.757 173.240 C 174.711 172.345,175.322 170.757,177.467 163.600 C 177.830 162.390,178.446 160.410,178.837 159.200 C 179.228 157.990,179.742 156.249,179.981 155.331 L 180.414 153.662 182.961 153.389 C 187.475 152.906,187.008 149.750,186.941 180.295 L 186.882 207.000 183.802 207.200 C 182.108 207.310,180.637 207.262,180.533 207.093 C 180.429 206.924,179.468 203.864,178.399 200.293 C 173.817 184.997,174.607 186.181,168.758 185.850 C 166.471 185.720,156.500 185.566,146.600 185.507 L 128.600 185.400 128.600 221.418 C 128.600 261.301,128.451 259.013,131.121 260.058 C 132.296 260.517,137.872 262.278,139.800 262.798 C 140.460 262.977,142.980 263.730,145.400 264.473 L 149.800 265.824 149.918 268.512 L 150.037 271.200 116.647 271.200 L 83.258 271.200 82.984 269.006 C 82.607 265.990,82.704 265.865,86.259 264.849 C 99.340 261.110,101.358 260.241,102.043 258.059 C 102.629 256.191,103.023 130.905,102.498 113.499 C 102.060 98.995,102.768 100.376,94.425 97.769 C 87.795 95.697,87.306 95.538,84.700 94.610 L 82.800 93.934 82.800 91.367 L 82.800 88.800 118.700 88.744 C 138.445 88.714,162.790 88.569,172.800 88.422 C 206.983 87.920,208.242 87.927,208.820 88.624 M271.387 148.785 C 271.822 149.266,271.992 149.844,271.826 150.277 C 270.569 153.553,269.722 254.135,270.923 257.563 C 271.638 259.604,272.878 260.269,278.800 261.782 C 296.975 266.425,295.067 265.525,295.160 269.502 L 295.200 271.204 258.302 271.102 L 221.405 271.000 221.078 268.658 C 220.654 265.622,218.279 266.604,238.600 261.409 C 243.584 260.135,244.270 259.812,245.004 258.392 C 245.881 256.696,246.221 228.605,245.809 191.931 L 245.504 164.862 243.652 164.615 C 241.774 164.365,239.062 164.102,227.200 163.019 C 218.439 162.219,218.951 162.397,218.433 159.981 C 217.652 156.336,217.345 156.616,223.052 155.759 C 225.443 155.399,228.300 154.971,229.400 154.806 C 230.500 154.641,233.290 154.198,235.600 153.823 C 237.910 153.447,240.790 152.985,242.000 152.797 C 246.838 152.041,254.312 150.775,256.200 150.391 C 257.300 150.167,260.450 149.611,263.200 149.155 C 265.950 148.698,268.275 148.252,268.367 148.163 C 268.839 147.702,270.766 148.099,271.387 148.785 " stroke="none" fill="#040404" fill-rule="evenodd"></path></g></svg>