<svg id="svg" version="1.1" xmlns="http://www.w3.org/2000/svg" xmlns:xlink="http://www.w3.org/1999/xlink" width="400" height="400" viewBox="0, 0, 400,400"><g id="svgg"><path id="path0" d="M186.667 3.729 C 185.383 3.880,181.333 4.319,177.667 4.705 C 42.351 18.926,-37.288 168.254,25.297 290.411 C 90.060 416.820,265.867 434.414,354.273 323.333 C 449.499 203.682,377.904 26.005,226.000 4.997 C 218.738 3.993,191.798 3.124,186.667 3.729 M209.333 58.684 C 239.508 60.966,270.341 73.799,291.829 93.019 L 296.107 96.845 299.220 93.872 C 300.932 92.237,306.772 86.571,312.198 81.283 C 324.456 69.333,326.565 68.318,333.028 71.253 C 340.422 74.612,340.077 71.963,339.855 123.719 L 339.667 167.771 337.744 170.291 C 333.777 175.492,335.676 175.302,287.479 175.319 C 237.616 175.336,239.237 175.555,235.920 168.333 C 232.752 161.432,233.227 160.598,249.824 143.907 L 263.507 130.148 258.737 126.241 C 221.880 96.049,167.702 98.823,133.978 132.629 C 81.397 185.339,108.460 275.058,181.453 290.017 C 226.707 299.291,273.803 272.421,287.935 229.264 C 290.409 221.709,288.219 222.362,311.862 222.140 L 332.500 221.946 334.665 223.767 C 337.546 226.192,337.247 229.625,333.051 242.333 C 290.319 371.752,107.861 369.931,65.802 239.667 C 38.714 155.770,100.510 65.049,189.061 58.713 C 199.773 57.947,199.591 57.947,209.333 58.684 " stroke="none" fill="#000000" fill-rule="evenodd"></path></g></svg>