<svg id="svg" version="1.1" xmlns="http://www.w3.org/2000/svg" xmlns:xlink="http://www.w3.org/1999/xlink" width="400" height="400" viewBox="0, 0, 400,400"><g id="svgg"><path id="path0" d="M0.000 200.000 L 0.000 400.000 200.000 400.000 L 400.000 400.000 400.000 200.000 L 400.000 0.000 200.000 0.000 L 0.000 0.000 0.000 200.000 M215.800 4.002 C 306.899 10.937,381.856 80.812,395.159 171.200 C 396.836 182.597,396.999 185.168,397.000 200.200 C 397.000 215.243,396.815 218.190,395.151 229.600 C 390.532 261.287,377.649 292.147,358.164 318.200 C 327.067 359.781,280.328 387.756,229.600 395.151 C 218.190 396.815,215.243 397.000,200.200 397.000 C 185.173 396.999,182.616 396.837,171.200 395.160 C 84.054 382.360,14.371 310.682,4.803 224.000 C 4.573 221.910,4.301 219.660,4.200 219.000 C 1.146 199.096,5.062 163.493,12.933 139.600 C 31.125 84.379,71.433 40.714,124.822 18.392 C 153.245 6.508,184.266 1.602,215.800 4.002 M188.200 58.818 C 183.650 59.183,177.934 59.889,175.600 60.375 C 174.610 60.581,173.260 60.858,172.600 60.990 C 171.940 61.123,170.230 61.503,168.800 61.836 C 167.370 62.169,165.660 62.544,165.000 62.671 C 164.340 62.797,163.620 63.037,163.400 63.204 C 163.180 63.371,162.370 63.633,161.600 63.786 C 160.271 64.051,155.115 65.691,153.400 66.394 C 152.960 66.575,150.440 67.575,147.800 68.616 C 120.702 79.306,97.066 98.839,81.752 123.200 C 77.662 129.707,76.651 131.494,74.240 136.481 C 69.779 145.707,65.614 156.858,63.738 164.600 C 63.418 165.920,62.983 167.720,62.772 168.600 C 58.680 185.617,58.680 211.583,62.772 228.600 C 62.983 229.480,63.418 231.280,63.738 232.600 C 66.369 243.458,73.291 260.256,78.874 269.332 C 79.933 271.054,80.800 272.528,80.800 272.607 C 80.800 272.916,86.264 280.801,88.956 284.377 C 105.964 306.971,134.141 325.958,162.000 333.599 C 162.990 333.871,164.250 334.237,164.800 334.414 C 166.646 335.006,175.230 336.758,180.400 337.597 C 189.914 339.141,210.669 339.123,220.000 337.563 C 233.162 335.361,239.823 333.565,252.200 328.877 C 259.700 326.037,270.030 320.672,277.200 315.894 C 294.225 304.550,309.446 288.835,319.396 272.329 C 326.318 260.845,330.480 251.104,335.366 234.944 C 337.477 227.961,336.985 224.527,333.628 222.814 C 331.660 221.811,294.314 221.524,292.119 222.495 C 290.035 223.418,289.798 223.822,287.562 230.274 C 280.739 249.962,266.931 266.962,248.515 278.346 C 244.420 280.878,237.230 284.630,235.441 285.169 C 234.758 285.375,232.670 286.106,230.800 286.795 C 226.152 288.507,221.916 289.515,212.000 291.268 C 207.921 291.990,192.073 291.982,187.800 291.257 C 175.128 289.106,165.032 285.952,157.300 281.729 C 152.869 279.308,151.736 278.656,149.646 277.323 C 135.372 268.215,125.316 257.072,116.326 240.400 C 105.470 220.268,103.499 192.374,111.280 169.000 C 125.059 127.611,166.638 100.931,209.800 105.783 C 213.100 106.154,216.520 106.617,217.400 106.811 C 225.919 108.691,227.376 109.101,233.400 111.322 C 243.039 114.875,257.103 123.607,262.288 129.258 L 263.175 130.225 249.844 143.628 C 234.755 158.798,234.626 158.972,234.894 163.800 C 235.177 168.912,238.178 173.192,242.414 174.524 C 244.458 175.167,247.785 175.209,288.209 175.109 L 331.800 175.000 333.623 173.928 C 336.198 172.415,338.576 169.682,339.352 167.344 C 340.453 164.029,340.147 78.899,339.025 76.639 C 337.036 72.629,332.994 70.229,328.200 70.212 C 323.385 70.194,323.290 70.265,309.117 84.335 C 297.529 95.840,296.373 96.878,295.719 96.363 C 295.325 96.053,293.562 94.535,291.801 92.989 C 278.086 80.944,258.756 70.182,241.200 64.817 C 238.890 64.111,236.550 63.381,236.000 63.194 C 235.450 63.007,233.650 62.553,232.000 62.184 C 230.350 61.815,228.370 61.366,227.600 61.186 C 217.551 58.833,200.667 57.818,188.200 58.818 " stroke="none" fill="#fbfbfb" fill-rule="evenodd"></path><path id="path1" d="M190.000 3.602 C 166.827 4.969,145.174 9.883,124.822 18.392 C 64.465 43.628,20.110 97.350,7.409 160.600 C 3.627 179.436,2.177 205.818,4.200 219.000 C 4.301 219.660,4.573 221.910,4.803 224.000 C 12.289 291.814,57.781 353.029,121.386 380.874 C 139.924 388.990,158.158 393.762,181.000 396.476 C 187.026 397.193,213.373 397.188,219.600 396.469 C 240.961 394.005,257.665 389.826,275.400 382.512 C 339.220 356.188,385.269 297.389,395.151 229.600 C 396.815 218.190,397.000 215.243,397.000 200.200 C 396.999 185.168,396.836 182.597,395.159 171.200 C 380.463 71.346,290.293 -2.316,190.000 3.602 M210.600 58.787 C 217.911 59.412,223.226 60.162,227.600 61.186 C 228.370 61.366,230.350 61.815,232.000 62.184 C 233.650 62.553,235.450 63.007,236.000 63.194 C 236.550 63.381,238.890 64.111,241.200 64.817 C 258.756 70.182,278.086 80.944,291.801 92.989 C 293.562 94.535,295.325 96.053,295.719 96.363 C 296.373 96.878,297.529 95.840,309.117 84.335 C 323.290 70.265,323.385 70.194,328.200 70.212 C 332.994 70.229,337.036 72.629,339.025 76.639 C 340.147 78.899,340.453 164.029,339.352 167.344 C 338.576 169.682,336.198 172.415,333.623 173.928 L 331.800 175.000 288.209 175.109 C 247.785 175.209,244.458 175.167,242.414 174.524 C 238.178 173.192,235.177 168.912,234.894 163.800 C 234.626 158.972,234.755 158.798,249.844 143.628 L 263.175 130.225 262.288 129.258 C 257.103 123.607,243.039 114.875,233.400 111.322 C 227.376 109.101,225.919 108.691,217.400 106.811 C 210.270 105.237,197.873 104.880,188.360 105.975 C 174.835 107.531,159.835 113.108,148.073 120.954 C 109.049 146.984,94.820 200.518,116.326 240.400 C 125.316 257.072,135.372 268.215,149.646 277.323 C 151.736 278.656,152.869 279.308,157.300 281.729 C 165.032 285.952,175.128 289.106,187.800 291.257 C 192.073 291.982,207.921 291.990,212.000 291.268 C 221.916 289.515,226.152 288.507,230.800 286.795 C 232.670 286.106,234.758 285.375,235.441 285.169 C 237.230 284.630,244.420 280.878,248.515 278.346 C 266.931 266.962,280.739 249.962,287.562 230.274 C 289.798 223.822,290.035 223.418,292.119 222.495 C 294.314 221.524,331.660 221.811,333.628 222.814 C 336.985 224.527,337.477 227.961,335.366 234.944 C 330.480 251.104,326.318 260.845,319.396 272.329 C 309.446 288.835,294.225 304.550,277.200 315.894 C 270.030 320.672,259.700 326.037,252.200 328.877 C 239.823 333.565,233.162 335.361,220.000 337.563 C 210.669 339.123,189.914 339.141,180.400 337.597 C 175.230 336.758,166.646 335.006,164.800 334.414 C 164.250 334.237,162.990 333.871,162.000 333.599 C 134.141 325.958,105.964 306.971,88.956 284.377 C 86.264 280.801,80.800 272.916,80.800 272.607 C 80.800 272.528,79.933 271.054,78.874 269.332 C 73.291 260.256,66.369 243.458,63.738 232.600 C 63.418 231.280,62.983 229.480,62.772 228.600 C 58.680 211.583,58.680 185.617,62.772 168.600 C 64.080 163.158,64.418 161.886,65.319 159.000 C 68.627 148.417,74.315 135.211,78.465 128.481 C 87.119 114.446,91.344 108.991,101.168 99.170 C 114.391 85.952,130.332 75.507,147.800 68.616 C 150.440 67.575,152.960 66.575,153.400 66.394 C 155.115 65.691,160.271 64.051,161.600 63.786 C 162.370 63.633,163.180 63.371,163.400 63.204 C 163.620 63.037,164.340 62.797,165.000 62.671 C 165.660 62.544,167.370 62.169,168.800 61.836 C 170.230 61.503,171.940 61.123,172.600 60.990 C 173.260 60.858,174.610 60.581,175.600 60.375 C 183.431 58.746,200.865 57.955,210.600 58.787 " stroke="none" fill="#040404" fill-rule="evenodd"></path></g></svg>