<svg id="svg" version="1.1" xmlns="http://www.w3.org/2000/svg" xmlns:xlink="http://www.w3.org/1999/xlink" width="400" height="400" viewBox="0, 0, 400,400"><g id="svgg"><path id="path0" d="M186.667 3.729 C 185.383 3.880,181.333 4.319,177.667 4.705 C 42.351 18.926,-37.288 168.254,25.297 290.411 C 90.060 416.820,265.867 434.414,354.273 323.333 C 449.499 203.682,377.904 26.005,226.000 4.997 C 218.738 3.993,191.798 3.124,186.667 3.729 M208.975 88.625 C 209.187 88.969,207.654 98.402,205.568 109.586 L 201.775 129.921 199.176 130.360 C 195.920 130.910,196.764 132.726,192.186 115.333 L 188.238 100.333 158.452 100.160 L 128.667 99.986 128.667 137.424 L 128.667 174.863 150.729 174.512 C 176.726 174.098,173.792 175.363,177.604 162.927 L 180.442 153.667 183.721 153.471 L 187.000 153.275 186.895 180.138 L 186.789 207.000 183.589 207.000 L 180.389 207.000 177.476 197.333 C 173.625 184.554,176.667 185.901,150.729 185.488 L 128.667 185.137 128.667 221.521 C 128.667 263.860,127.481 258.947,138.515 262.339 C 142.815 263.661,147.083 264.973,148.000 265.256 C 149.377 265.681,149.702 266.253,149.872 268.552 L 150.077 271.333 116.735 271.333 L 83.394 271.333 82.947 268.950 C 82.366 265.857,82.267 265.922,92.000 263.038 C 96.583 261.680,100.783 260.130,101.333 259.594 C 102.419 258.536,102.912 105.724,101.842 101.918 C 101.291 99.959,100.874 99.760,90.333 96.426 L 83.000 94.106 82.795 91.391 L 82.590 88.675 130.795 88.500 C 157.308 88.403,185.657 88.251,193.794 88.162 C 202.478 88.067,208.748 88.258,208.975 88.625 M291.667 148.655 C 309.243 154.297,318.000 164.844,318.000 180.371 C 318.000 202.361,303.551 218.893,261.456 245.066 L 251.911 251.000 284.083 251.173 C 301.777 251.268,316.472 251.118,316.739 250.840 C 317.005 250.561,319.387 245.618,322.032 239.855 L 326.841 229.377 329.587 228.821 C 331.245 228.485,332.434 228.514,332.587 228.894 C 332.881 229.622,330.743 267.584,330.282 269.833 L 329.975 271.333 277.018 271.333 L 224.060 271.333 223.729 269.167 C 223.547 267.975,223.272 265.596,223.119 263.880 L 222.841 260.760 232.587 254.285 C 277.587 224.391,292.919 206.913,291.112 187.568 C 289.125 166.289,264.095 157.977,237.120 169.639 C 230.952 172.306,231.403 172.412,228.730 167.677 C 226.081 162.982,225.938 163.419,231.167 160.222 C 251.285 147.923,275.162 143.358,291.667 148.655 " stroke="none" fill="#000000" fill-rule="evenodd"></path></g></svg>