<svg id="svg" version="1.1" xmlns="http://www.w3.org/2000/svg" xmlns:xlink="http://www.w3.org/1999/xlink" width="400" height="400" viewBox="0, 0, 400,400"><g id="svgg"><path id="path0" d="M0.000 200.000 L 0.000 400.000 200.000 400.000 L 400.000 400.000 400.000 200.000 L 400.000 0.000 200.000 0.000 L 0.000 0.000 0.000 200.000 M215.800 4.002 C 306.899 10.937,381.856 80.812,395.159 171.200 C 396.836 182.597,396.999 185.168,397.000 200.200 C 397.000 215.243,396.815 218.190,395.151 229.600 C 390.532 261.287,377.649 292.147,358.164 318.200 C 327.067 359.781,280.328 387.756,229.600 395.151 C 218.190 396.815,215.243 397.000,200.200 397.000 C 185.173 396.999,182.616 396.837,171.200 395.160 C 84.054 382.360,14.371 310.682,4.803 224.000 C 4.573 221.910,4.301 219.660,4.200 219.000 C 1.146 199.096,5.062 163.493,12.933 139.600 C 31.125 84.379,71.433 40.714,124.822 18.392 C 153.245 6.508,184.266 1.602,215.800 4.002 M150.800 100.661 C 146.306 101.517,139.401 106.945,137.302 111.273 C 134.776 116.481,135.000 107.844,135.000 199.987 L 135.000 283.400 136.056 285.651 C 142.830 300.086,159.533 303.893,170.613 293.528 C 173.337 290.980,175.374 288.117,175.827 286.200 C 175.983 285.540,176.310 284.747,176.555 284.439 C 177.202 283.623,177.188 116.116,176.542 114.761 C 176.290 114.232,175.584 112.730,174.974 111.421 C 173.361 107.964,169.642 104.456,165.317 102.312 L 161.862 100.600 156.831 100.536 C 154.064 100.500,151.350 100.557,150.800 100.661 M238.125 101.156 C 230.824 103.853,225.606 109.523,223.913 116.600 C 223.112 119.951,222.996 279.386,223.793 282.496 C 227.960 298.762,247.112 304.761,259.304 293.619 C 261.975 291.177,263.594 288.730,264.971 285.052 L 266.000 282.305 266.000 199.811 L 266.000 117.317 265.032 114.648 C 262.983 108.998,259.251 104.855,253.770 102.145 C 249.842 100.203,242.040 99.710,238.125 101.156 " stroke="none" fill="#fbfbfb" fill-rule="evenodd"></path><path id="path1" d="M190.000 3.602 C 166.827 4.969,145.174 9.883,124.822 18.392 C 64.465 43.628,20.110 97.350,7.409 160.600 C 3.627 179.436,2.177 205.818,4.200 219.000 C 4.301 219.660,4.573 221.910,4.803 224.000 C 12.289 291.814,57.781 353.029,121.386 380.874 C 139.924 388.990,158.158 393.762,181.000 396.476 C 187.026 397.193,213.373 397.188,219.600 396.469 C 240.961 394.005,257.665 389.826,275.400 382.512 C 339.220 356.188,385.269 297.389,395.151 229.600 C 396.815 218.190,397.000 215.243,397.000 200.200 C 396.999 185.168,396.836 182.597,395.159 171.200 C 380.463 71.346,290.293 -2.316,190.000 3.602 M165.317 102.312 C 169.642 104.456,173.361 107.964,174.974 111.421 C 175.584 112.730,176.290 114.232,176.542 114.761 C 177.188 116.116,177.202 283.623,176.555 284.439 C 176.310 284.747,175.983 285.540,175.827 286.200 C 175.374 288.117,173.337 290.980,170.613 293.528 C 159.533 303.893,142.830 300.086,136.056 285.651 L 135.000 283.400 135.000 199.987 C 135.000 120.067,135.031 116.499,135.732 114.787 C 138.256 108.628,141.498 104.918,146.497 102.469 C 150.574 100.473,150.660 100.456,156.831 100.536 L 161.862 100.600 165.317 102.312 M253.770 102.145 C 259.251 104.855,262.983 108.998,265.032 114.648 L 266.000 117.317 266.000 199.811 L 266.000 282.305 264.971 285.052 C 257.414 305.233,229.169 303.479,223.793 282.496 C 222.996 279.386,223.112 119.951,223.913 116.600 C 227.004 103.681,242.097 96.374,253.770 102.145 " stroke="none" fill="#040404" fill-rule="evenodd"></path></g></svg>