<svg id="svg" version="1.1" xmlns="http://www.w3.org/2000/svg" xmlns:xlink="http://www.w3.org/1999/xlink" width="400" height="400" viewBox="0, 0, 400,400"><g id="svgg"><path id="path0" d="M0.000 200.000 L 0.000 400.000 200.000 400.000 L 400.000 400.000 400.000 200.000 L 400.000 0.000 200.000 0.000 L 0.000 0.000 0.000 200.000 M212.200 3.806 C 261.966 7.130,304.997 26.544,339.816 61.380 C 372.202 93.782,390.770 132.982,396.476 181.000 C 397.193 187.026,397.188 213.373,396.469 219.600 C 392.088 257.577,379.766 289.305,358.176 318.200 C 324.914 362.716,276.848 389.864,219.600 396.469 C 213.373 397.188,187.026 397.193,181.000 396.476 C 56.480 381.678,-22.115 265.916,10.943 146.000 C 28.474 82.407,82.407 28.474,146.000 10.943 C 169.048 4.589,190.042 2.326,212.200 3.806 M153.000 100.956 C 151.900 101.457,150.415 102.533,149.700 103.347 L 148.400 104.828 148.384 126.114 C 148.283 263.928,148.396 294.031,149.018 295.235 C 149.766 296.681,152.504 298.501,154.970 299.192 C 157.647 299.941,160.130 299.193,166.600 295.690 C 169.680 294.023,173.190 292.125,174.400 291.474 C 175.610 290.823,178.310 289.345,180.400 288.191 C 182.490 287.036,186.360 284.926,189.000 283.503 C 191.640 282.080,194.700 280.419,195.800 279.813 C 196.900 279.206,198.880 278.124,200.200 277.407 C 201.520 276.691,203.410 275.661,204.400 275.119 C 205.390 274.577,210.610 271.739,216.000 268.812 C 221.390 265.885,227.363 262.620,229.274 261.556 C 231.185 260.492,233.885 259.015,235.274 258.275 C 238.755 256.419,252.286 249.077,254.000 248.113 C 255.261 247.405,261.380 244.068,267.800 240.587 C 269.120 239.872,272.900 237.799,276.200 235.980 C 279.500 234.162,282.920 232.319,283.800 231.884 C 284.680 231.449,286.750 230.335,288.400 229.409 C 292.290 227.225,294.326 226.110,305.400 220.095 C 310.460 217.346,315.500 214.603,316.600 214.000 C 319.454 212.433,332.132 205.551,335.113 203.950 C 339.589 201.546,340.693 199.998,339.207 198.208 C 338.624 197.506,332.029 193.769,318.000 186.192 C 312.390 183.163,306.090 179.740,304.000 178.587 C 301.910 177.434,297.860 175.233,295.000 173.696 C 292.140 172.158,289.170 170.547,288.400 170.115 C 287.630 169.683,283.400 167.388,279.000 165.015 C 274.600 162.642,270.820 160.570,270.600 160.410 C 270.380 160.250,268.580 159.256,266.600 158.201 C 264.620 157.147,256.340 152.646,248.200 148.200 C 240.060 143.755,232.050 139.395,230.400 138.512 C 224.596 135.406,222.150 134.076,216.800 131.119 C 213.830 129.478,209.780 127.272,207.800 126.218 C 205.820 125.164,203.660 123.981,203.000 123.589 C 202.340 123.197,198.470 121.091,194.400 118.908 C 190.330 116.726,186.100 114.437,185.000 113.822 C 183.900 113.206,182.100 112.200,181.000 111.584 C 179.900 110.969,177.830 109.848,176.400 109.094 C 174.970 108.339,170.983 106.178,167.539 104.291 C 159.028 99.626,156.964 99.152,153.000 100.956 M74.125 101.156 C 66.825 103.853,61.610 109.520,59.912 116.600 C 59.111 119.944,58.997 279.389,59.794 282.500 C 63.931 298.649,82.963 304.726,95.132 293.785 C 97.895 291.301,99.481 288.934,100.864 285.233 L 101.997 282.200 101.999 199.759 L 102.000 117.317 101.032 114.648 C 98.983 108.998,95.251 104.855,89.770 102.145 C 85.842 100.203,78.040 99.710,74.125 101.156 " stroke="none" fill="#fbfbfb" fill-rule="evenodd"></path><path id="path1" d="M189.600 3.645 C 172.486 4.615,154.975 7.868,139.600 12.933 C 46.409 43.634,-9.819 136.199,6.042 232.800 C 20.437 320.471,90.139 385.678,181.000 396.476 C 187.026 397.193,213.373 397.188,219.600 396.469 C 240.961 394.005,257.665 389.826,275.400 382.512 C 339.231 356.184,385.267 297.400,395.151 229.600 C 396.815 218.190,397.000 215.243,397.000 200.200 C 396.999 185.168,396.836 182.597,395.159 171.200 C 380.422 71.067,290.681 -2.082,189.600 3.645 M159.739 100.432 C 160.586 100.667,164.096 102.403,167.539 104.291 C 170.983 106.178,174.970 108.339,176.400 109.094 C 177.830 109.848,179.900 110.969,181.000 111.584 C 182.100 112.200,183.900 113.206,185.000 113.822 C 186.100 114.437,190.330 116.726,194.400 118.908 C 198.470 121.091,202.340 123.197,203.000 123.589 C 203.660 123.981,205.820 125.164,207.800 126.218 C 209.780 127.272,213.830 129.478,216.800 131.119 C 222.150 134.076,224.596 135.406,230.400 138.512 C 232.050 139.395,240.060 143.755,248.200 148.200 C 256.340 152.646,264.620 157.147,266.600 158.201 C 268.580 159.256,270.380 160.250,270.600 160.410 C 270.820 160.570,274.600 162.642,279.000 165.015 C 283.400 167.388,287.630 169.683,288.400 170.115 C 289.170 170.547,292.140 172.158,295.000 173.696 C 297.860 175.233,301.910 177.434,304.000 178.587 C 306.090 179.740,312.390 183.163,318.000 186.192 C 343.536 199.984,343.182 199.617,335.113 203.950 C 332.132 205.551,319.454 212.433,316.600 214.000 C 315.500 214.603,310.460 217.346,305.400 220.095 C 294.326 226.110,292.290 227.225,288.400 229.409 C 286.750 230.335,284.680 231.449,283.800 231.884 C 282.920 232.319,279.500 234.162,276.200 235.980 C 272.900 237.799,269.120 239.872,267.800 240.587 C 261.380 244.068,255.261 247.405,254.000 248.113 C 252.286 249.077,238.755 256.419,235.274 258.275 C 233.885 259.015,231.185 260.492,229.274 261.556 C 227.363 262.620,221.390 265.885,216.000 268.812 C 210.610 271.739,205.390 274.577,204.400 275.119 C 203.410 275.661,201.520 276.691,200.200 277.407 C 198.880 278.124,196.900 279.206,195.800 279.813 C 194.700 280.419,191.640 282.080,189.000 283.503 C 186.360 284.926,182.490 287.036,180.400 288.191 C 178.310 289.345,175.610 290.823,174.400 291.474 C 173.190 292.125,169.680 294.023,166.600 295.690 C 160.130 299.193,157.647 299.941,154.970 299.192 C 152.504 298.501,149.766 296.681,149.018 295.235 C 148.396 294.031,148.283 263.928,148.384 126.114 L 148.400 104.828 149.700 103.347 C 152.116 100.595,156.130 99.430,159.739 100.432 M89.770 102.145 C 95.251 104.855,98.983 108.998,101.032 114.648 L 102.000 117.317 101.999 199.759 L 101.997 282.200 100.864 285.233 C 93.383 305.256,65.143 303.377,59.794 282.500 C 58.997 279.389,59.111 119.944,59.912 116.600 C 63.010 103.678,78.097 96.374,89.770 102.145 " stroke="none" fill="#040404" fill-rule="evenodd"></path></g></svg>