<svg id="svg" version="1.1" xmlns="http://www.w3.org/2000/svg" xmlns:xlink="http://www.w3.org/1999/xlink" width="400" height="400" viewBox="0, 0, 400,400"><g id="svgg"><path id="path0" d="M186.667 3.729 C 185.383 3.880,181.333 4.319,177.667 4.705 C 71.605 15.851,-8.589 116.812,4.537 222.667 C 24.872 386.648,223.040 455.723,339.381 339.381 C 454.617 224.145,387.902 27.387,226.000 4.997 C 218.738 3.993,191.798 3.124,186.667 3.729 M90.085 102.377 C 94.909 104.821,98.892 109.075,100.580 113.587 L 102.000 117.383 102.000 200.096 L 102.000 282.809 99.988 287.025 C 92.184 303.377,69.403 303.260,61.237 286.826 L 59.667 283.667 59.492 201.364 C 59.298 109.796,59.059 114.947,63.797 108.491 C 69.390 100.868,81.535 98.044,90.085 102.377 M159.902 100.639 C 161.127 100.990,169.225 105.160,177.898 109.905 C 200.829 122.453,221.696 133.831,226.667 136.497 C 237.021 142.052,248.705 148.406,253.333 150.999 C 256.083 152.539,260.733 155.086,263.667 156.659 C 266.600 158.231,273.650 162.068,279.333 165.184 C 285.017 168.301,291.167 171.662,293.000 172.654 C 326.458 190.756,338.814 197.695,339.341 198.681 C 340.485 200.818,338.244 202.277,311.667 216.702 C 297.367 224.464,277.117 235.473,266.667 241.169 C 256.217 246.864,239.267 256.092,229.000 261.677 C 218.733 267.261,199.233 277.910,185.667 285.342 C 156.189 301.490,152.831 302.335,148.839 294.602 C 147.197 291.421,148.002 105.177,149.667 103.312 C 152.256 100.410,155.841 99.474,159.902 100.639 " stroke="none" fill="#000000" fill-rule="evenodd"></path></g></svg>