<svg id="svg" version="1.1" xmlns="http://www.w3.org/2000/svg" xmlns:xlink="http://www.w3.org/1999/xlink" width="400" height="248.42105263157896" viewBox="0, 0, 400,248.42105263157896"><g id="svgg"><path id="path0" d="M283.106 66.832 C 282.422 67.084,281.512 67.299,281.082 67.310 C 280.652 67.321,279.590 67.542,278.722 67.803 C 277.853 68.063,276.492 68.352,275.697 68.444 C 274.901 68.536,273.883 68.765,273.433 68.953 C 272.984 69.141,271.754 69.401,270.700 69.532 C 267.202 69.966,266.701 72.208,269.995 72.687 C 270.647 72.782,271.496 73.020,271.882 73.216 C 272.269 73.412,273.046 73.652,273.610 73.748 C 275.833 74.127,275.652 70.992,275.652 109.203 C 275.652 141.192,275.631 142.786,275.201 143.442 C 274.696 144.214,273.300 144.890,271.351 145.308 C 268.595 145.899,267.455 146.849,268.177 147.952 L 268.583 148.571 280.453 148.571 C 292.967 148.571,292.919 148.576,292.919 147.442 C 292.919 146.552,291.715 145.813,289.485 145.335 C 287.510 144.912,286.514 144.359,286.195 143.509 C 285.759 142.349,285.534 107.619,285.956 106.600 C 286.867 104.400,296.436 102.689,301.280 103.860 C 304.437 104.623,308.323 107.312,308.323 108.734 C 308.323 108.929,308.575 109.559,308.882 110.134 L 309.441 111.180 309.512 127.496 L 309.582 143.813 308.766 144.426 C 308.317 144.763,307.559 145.114,307.081 145.206 C 304.184 145.764,303.106 146.381,303.106 147.479 C 303.106 148.631,302.656 148.594,315.776 148.516 L 327.329 148.447 327.406 147.513 C 327.495 146.440,326.721 145.973,323.518 145.169 C 322.397 144.887,321.611 144.506,321.005 143.952 L 320.124 143.144 319.991 126.541 C 319.845 108.350,319.837 108.257,318.213 104.854 C 317.003 102.319,313.667 98.882,312.416 98.882 C 312.304 98.882,312.037 98.731,311.821 98.547 C 310.003 96.991,301.292 96.254,297.951 97.373 C 297.165 97.636,296.130 97.927,295.652 98.019 C 295.174 98.110,294.535 98.342,294.232 98.534 C 293.930 98.725,293.549 98.882,293.387 98.882 C 293.101 98.882,290.793 99.874,289.842 100.406 C 289.584 100.550,288.969 100.893,288.475 101.168 C 287.982 101.443,287.443 101.777,287.279 101.910 C 285.741 103.159,285.587 100.874,285.911 81.615 C 286.196 64.588,286.392 65.620,283.106 66.832 M93.789 72.219 C 90.298 72.475,87.399 72.514,82.660 72.370 L 76.251 72.174 76.119 72.703 C 75.703 74.364,76.403 74.941,79.876 75.798 C 81.780 76.269,83.004 76.850,83.612 77.572 L 84.224 78.299 84.224 110.442 C 84.224 144.068,84.241 143.526,83.140 144.049 C 82.506 144.350,79.441 145.259,78.375 145.462 C 76.457 145.829,75.066 147.902,76.395 148.412 C 77.069 148.670,108.117 148.614,109.938 148.351 C 117.532 147.254,122.719 145.083,126.871 141.265 C 128.307 139.943,130.683 136.802,130.683 136.223 C 130.683 136.079,130.839 135.832,131.030 135.674 C 131.221 135.515,131.454 134.971,131.549 134.463 C 131.644 133.956,131.925 133.093,132.173 132.547 C 133.153 130.390,133.062 121.766,132.035 119.348 C 130.405 115.513,127.722 112.263,124.951 110.766 C 124.529 110.538,123.997 110.184,123.769 109.978 C 123.541 109.772,123.019 109.522,122.609 109.421 C 122.199 109.320,121.640 109.100,121.366 108.930 C 121.093 108.761,120.246 108.446,119.485 108.230 C 118.293 107.892,116.974 107.001,117.289 106.747 C 117.345 106.702,118.162 106.310,119.104 105.875 C 121.474 104.783,123.642 103.178,125.504 101.138 C 126.977 99.524,127.659 98.423,128.903 95.652 C 130.100 92.985,130.126 85.701,128.948 83.114 C 128.673 82.509,128.447 81.892,128.447 81.742 C 128.447 80.858,124.671 76.698,123.078 75.826 C 119.563 73.903,117.321 73.086,114.410 72.666 C 113.180 72.488,111.447 72.222,110.559 72.074 C 108.399 71.714,99.626 71.790,93.789 72.219 M105.018 76.792 C 113.608 77.522,117.624 81.772,117.943 90.472 C 118.249 98.829,114.811 103.659,107.165 105.611 C 104.508 106.289,95.961 106.490,95.356 105.888 C 94.961 105.496,94.732 77.591,95.121 77.202 C 95.697 76.626,100.646 76.421,105.018 76.792 M214.534 84.517 C 214.124 84.654,213.120 84.955,212.303 85.184 L 210.817 85.600 210.541 86.842 C 210.389 87.525,210.145 88.308,209.999 88.582 C 209.852 88.855,209.620 89.636,209.482 90.316 C 209.344 90.996,209.045 92.112,208.817 92.795 C 207.829 95.756,207.651 96.331,207.411 97.345 C 207.083 98.735,206.841 98.820,202.655 99.020 C 199.347 99.177,199.214 99.204,199.000 99.769 C 198.689 100.585,199.165 101.837,199.838 101.978 C 204.457 102.942,206.063 103.482,206.243 104.131 C 206.333 104.455,206.350 112.491,206.282 121.988 C 206.138 141.901,206.190 142.483,208.368 145.612 C 212.012 150.848,221.975 151.042,232.703 146.086 C 234.752 145.139,234.783 145.112,234.783 144.223 C 234.783 142.561,234.523 142.366,232.865 142.783 C 230.984 143.256,222.610 143.514,221.242 143.141 C 219.384 142.634,217.922 140.946,217.039 138.288 C 216.747 137.407,216.875 104.795,217.172 104.436 C 217.388 104.177,219.156 104.092,225.431 104.041 L 233.416 103.975 233.416 101.502 C 233.416 98.426,234.216 98.690,224.797 98.658 C 219.191 98.639,217.372 98.559,217.220 98.323 C 217.109 98.152,217.019 95.050,217.019 91.429 C 217.019 83.666,217.024 83.680,214.534 84.517 M23.364 97.400 C 22.617 97.669,21.775 97.888,21.492 97.888 C 21.209 97.888,20.367 98.062,19.619 98.274 C 18.872 98.486,17.422 98.808,16.398 98.989 C 15.373 99.169,13.696 99.497,12.671 99.716 C 11.646 99.935,10.388 100.178,9.876 100.255 C 7.882 100.555,9.100 102.596,11.579 103.109 C 12.734 103.348,16.253 104.486,16.436 104.680 C 16.457 104.702,16.552 112.099,16.648 121.118 L 16.823 137.516 17.443 139.379 C 19.128 144.448,21.721 147.176,26.460 148.868 C 30.962 150.476,39.560 149.899,43.975 147.693 C 44.453 147.454,45.292 147.038,45.839 146.769 C 46.385 146.500,47.530 145.833,48.383 145.286 C 50.245 144.093,50.981 144.135,51.539 145.470 C 53.184 149.408,57.566 150.754,62.927 148.967 C 63.990 148.613,64.984 148.323,65.135 148.323 C 66.342 148.323,68.316 147.167,68.316 146.460 C 68.315 145.395,68.092 145.175,66.832 144.991 C 59.961 143.991,60.369 145.531,60.381 120.621 C 60.386 110.646,60.490 101.368,60.612 100.004 C 60.912 96.644,60.351 96.240,56.958 97.371 C 56.171 97.633,54.969 97.923,54.286 98.016 C 53.602 98.109,52.835 98.297,52.580 98.434 C 52.324 98.571,51.206 98.829,50.095 99.008 C 47.848 99.371,44.186 100.081,43.230 100.339 C 41.586 100.783,42.896 102.653,45.176 103.117 C 46.767 103.440,48.824 104.100,49.565 104.525 C 50.054 104.805,50.063 105.108,50.134 122.254 L 50.206 139.699 49.660 140.280 C 49.360 140.600,48.880 140.930,48.594 141.015 C 48.308 141.100,47.627 141.365,47.081 141.605 C 39.117 145.091,30.860 143.343,28.104 137.588 C 26.876 135.025,26.293 114.537,27.067 101.128 C 27.181 99.153,27.218 97.392,27.151 97.215 C 26.966 96.735,24.938 96.834,23.364 97.400 M162.228 97.124 C 161.745 97.218,161.222 97.374,161.067 97.470 C 160.911 97.567,160.188 97.757,159.460 97.894 C 156.346 98.478,149.760 102.659,147.950 105.201 C 147.677 105.585,147.001 106.472,146.449 107.173 C 143.918 110.384,142.305 115.038,141.603 121.151 C 140.851 127.701,142.852 135.747,146.335 140.181 C 151.614 146.902,156.793 149.417,166.211 149.831 C 175.870 150.257,185.876 144.646,189.730 136.644 C 190.026 136.030,190.544 134.957,190.882 134.258 C 191.221 133.560,191.579 132.498,191.679 131.898 C 191.778 131.298,192.024 130.486,192.225 130.094 C 193.167 128.255,193.161 116.467,192.217 114.603 C 192.025 114.224,191.788 113.472,191.690 112.933 C 191.592 112.394,191.311 111.556,191.066 111.070 C 190.820 110.584,190.354 109.636,190.030 108.963 C 187.783 104.296,181.088 98.924,176.270 97.923 C 175.589 97.782,174.420 97.492,173.673 97.280 C 172.243 96.874,164.070 96.762,162.228 97.124 M345.557 97.363 C 344.787 97.612,343.566 97.895,342.843 97.991 C 342.120 98.087,341.312 98.282,341.046 98.424 C 340.780 98.566,339.654 98.827,338.542 99.005 C 337.431 99.182,335.683 99.504,334.658 99.721 C 333.634 99.938,332.376 100.178,331.863 100.255 C 329.741 100.574,331.337 102.745,334.037 103.212 C 336.189 103.584,338.171 104.406,338.407 105.026 C 338.533 105.358,338.635 111.531,338.638 118.960 C 338.644 139.349,339.018 141.505,343.295 145.773 C 348.962 151.429,361.544 151.193,370.518 145.262 C 372.335 144.061,372.991 144.145,373.643 145.660 C 375.611 150.234,380.573 150.891,388.944 147.685 C 391.194 146.824,391.158 145.263,388.881 144.973 C 384.268 144.386,383.593 143.987,382.907 141.448 C 382.407 139.595,382.164 108.288,382.597 101.508 C 382.928 96.340,382.902 96.311,379.006 97.362 C 375.901 98.200,373.825 98.682,371.925 99.007 C 370.901 99.182,369.375 99.506,368.536 99.725 C 367.696 99.945,366.634 100.126,366.175 100.128 C 363.494 100.140,364.687 102.783,367.569 103.216 C 370.220 103.613,371.776 104.405,372.017 105.477 C 372.521 107.726,372.469 139.451,371.961 140.048 C 369.683 142.719,359.090 144.296,355.612 142.483 C 355.224 142.280,354.760 142.114,354.581 142.113 C 353.916 142.110,350.559 139.115,350.559 138.525 C 350.559 138.433,350.348 137.889,350.091 137.316 C 348.855 134.565,348.429 117.137,349.141 98.385 L 349.193 97.019 348.075 96.964 C 347.460 96.934,346.327 97.114,345.557 97.363 M171.347 101.778 C 177.046 103.746,180.721 109.569,181.514 117.888 C 181.553 118.298,181.706 119.664,181.855 120.922 C 182.869 129.516,180.017 139.481,175.521 143.058 C 172.487 145.473,166.415 146.373,163.136 144.894 C 162.470 144.594,161.799 144.348,161.645 144.348 C 161.372 144.348,158.449 142.169,158.319 141.868 C 158.283 141.784,157.812 141.128,157.273 140.411 C 155.769 138.410,153.970 134.413,153.677 132.422 C 153.587 131.807,153.338 130.578,153.125 129.689 C 152.577 127.409,152.574 117.824,153.121 115.528 C 153.333 114.640,153.572 113.466,153.653 112.919 C 153.944 110.968,155.905 106.824,157.274 105.268 C 160.577 101.516,166.404 100.071,171.347 101.778 M108.199 111.056 C 109.292 111.326,110.342 111.548,110.532 111.550 C 110.880 111.553,112.639 112.303,113.789 112.939 C 114.130 113.128,114.745 113.445,115.155 113.642 C 119.213 115.595,122.333 125.354,120.763 131.180 C 120.635 131.658,120.373 132.674,120.183 133.437 C 119.042 138.001,114.973 142.251,110.683 143.357 C 110.273 143.463,109.267 143.732,108.447 143.955 C 105.166 144.848,96.683 144.439,95.504 143.331 L 94.907 142.771 94.907 126.926 C 94.907 112.097,94.935 111.064,95.342 110.827 C 96.197 110.329,105.958 110.502,108.199 111.056 M249.938 137.132 C 247.126 137.748,245.527 139.229,244.849 141.847 C 242.790 149.793,254.278 153.280,257.179 145.590 C 258.903 141.023,254.681 136.092,249.938 137.132 " stroke="none" fill="#090909" fill-rule="evenodd"></path><path id="path1" d="M0.000 124.224 L 0.000 248.447 200.000 248.447 L 400.000 248.447 400.000 124.224 L 400.000 0.000 200.000 0.000 L 0.000 0.000 0.000 124.224 M285.905 66.646 C 286.075 66.855,286.077 71.729,285.911 81.615 C 285.587 100.874,285.741 103.159,287.279 101.910 C 287.443 101.777,287.982 101.443,288.475 101.168 C 288.969 100.893,289.584 100.550,289.842 100.406 C 290.793 99.874,293.101 98.882,293.387 98.882 C 293.549 98.882,293.930 98.725,294.232 98.534 C 294.535 98.342,295.174 98.110,295.652 98.019 C 296.130 97.927,297.165 97.636,297.951 97.373 C 301.292 96.254,310.003 96.991,311.821 98.547 C 312.037 98.731,312.304 98.882,312.416 98.882 C 313.667 98.882,317.003 102.319,318.213 104.854 C 319.837 108.257,319.845 108.350,319.991 126.541 L 320.124 143.144 321.005 143.952 C 321.611 144.506,322.397 144.887,323.518 145.169 C 326.721 145.973,327.495 146.440,327.406 147.513 L 327.329 148.447 315.776 148.516 C 302.656 148.594,303.106 148.631,303.106 147.479 C 303.106 146.381,304.184 145.764,307.081 145.206 C 307.559 145.114,308.317 144.763,308.766 144.426 L 309.582 143.813 309.512 127.496 L 309.441 111.180 308.882 110.134 C 308.575 109.559,308.323 108.929,308.323 108.734 C 308.323 107.312,304.437 104.623,301.280 103.860 C 296.436 102.689,286.867 104.400,285.956 106.600 C 285.534 107.619,285.759 142.349,286.195 143.509 C 286.514 144.359,287.510 144.912,289.485 145.335 C 291.715 145.813,292.919 146.552,292.919 147.442 C 292.919 148.576,292.967 148.571,280.453 148.571 L 268.583 148.571 268.177 147.952 C 267.455 146.849,268.595 145.899,271.351 145.308 C 273.300 144.890,274.696 144.214,275.201 143.442 C 275.631 142.786,275.652 141.192,275.652 109.203 C 275.652 70.992,275.833 74.127,273.610 73.748 C 273.046 73.652,272.269 73.412,271.882 73.216 C 271.496 73.020,270.647 72.782,269.995 72.687 C 266.701 72.208,267.202 69.966,270.700 69.532 C 271.754 69.401,272.984 69.141,273.433 68.953 C 273.883 68.765,274.901 68.536,275.697 68.444 C 276.492 68.352,277.853 68.063,278.722 67.803 C 279.590 67.542,280.652 67.321,281.082 67.310 C 281.512 67.299,282.422 67.084,283.106 66.832 C 284.586 66.286,285.561 66.221,285.905 66.646 M110.559 72.074 C 111.447 72.222,113.180 72.488,114.410 72.666 C 117.321 73.086,119.563 73.903,123.078 75.826 C 124.671 76.698,128.447 80.858,128.447 81.742 C 128.447 81.892,128.673 82.509,128.948 83.114 C 129.253 83.784,129.553 85.247,129.715 86.863 C 130.315 92.824,128.989 97.319,125.504 101.138 C 123.642 103.178,121.474 104.783,119.104 105.875 C 118.162 106.310,117.345 106.702,117.289 106.747 C 116.974 107.001,118.293 107.892,119.485 108.230 C 120.246 108.446,121.093 108.761,121.366 108.930 C 121.640 109.100,122.199 109.320,122.609 109.421 C 123.019 109.522,123.541 109.772,123.769 109.978 C 123.997 110.184,124.529 110.538,124.951 110.766 C 127.722 112.263,130.405 115.513,132.035 119.348 C 133.062 121.766,133.153 130.390,132.173 132.547 C 131.925 133.093,131.644 133.956,131.549 134.463 C 131.454 134.971,131.221 135.515,131.030 135.674 C 130.839 135.832,130.683 136.079,130.683 136.223 C 130.683 136.802,128.307 139.943,126.871 141.265 C 122.719 145.083,117.532 147.254,109.938 148.351 C 108.117 148.614,77.069 148.670,76.395 148.412 C 75.066 147.902,76.457 145.829,78.375 145.462 C 79.441 145.259,82.506 144.350,83.140 144.049 C 84.241 143.526,84.224 144.068,84.224 110.442 L 84.224 78.299 83.612 77.572 C 83.004 76.850,81.780 76.269,79.876 75.798 C 76.403 74.941,75.703 74.364,76.119 72.703 L 76.251 72.174 82.660 72.370 C 87.399 72.514,90.298 72.475,93.789 72.219 C 99.626 71.790,108.399 71.714,110.559 72.074 M97.178 76.781 C 96.173 76.886,95.247 77.076,95.121 77.202 C 94.732 77.591,94.961 105.496,95.356 105.888 C 95.961 106.490,104.508 106.289,107.165 105.611 C 114.811 103.659,118.249 98.829,117.943 90.472 C 117.550 79.740,110.883 75.345,97.178 76.781 M216.818 84.534 C 216.928 84.705,217.019 87.807,217.019 91.429 C 217.019 95.050,217.109 98.152,217.220 98.323 C 217.372 98.559,219.191 98.639,224.797 98.658 C 234.216 98.690,233.416 98.426,233.416 101.502 L 233.416 103.975 225.431 104.041 C 219.156 104.092,217.388 104.177,217.172 104.436 C 216.875 104.795,216.747 137.407,217.039 138.288 C 217.922 140.946,219.384 142.634,221.242 143.141 C 222.610 143.514,230.984 143.256,232.865 142.783 C 234.523 142.366,234.783 142.561,234.783 144.223 C 234.783 145.112,234.752 145.139,232.703 146.086 C 221.975 151.042,212.012 150.848,208.368 145.612 C 206.190 142.483,206.138 141.901,206.282 121.988 C 206.350 112.491,206.333 104.455,206.243 104.131 C 206.063 103.482,204.457 102.942,199.838 101.978 C 199.165 101.837,198.689 100.585,199.000 99.769 C 199.214 99.204,199.347 99.177,202.655 99.020 C 206.841 98.820,207.083 98.735,207.411 97.345 C 207.651 96.331,207.829 95.756,208.817 92.795 C 209.045 92.112,209.344 90.996,209.482 90.316 C 209.620 89.636,209.852 88.855,209.999 88.582 C 210.145 88.308,210.389 87.525,210.541 86.842 L 210.817 85.600 212.303 85.184 C 213.120 84.955,214.124 84.654,214.534 84.517 C 215.588 84.163,216.582 84.170,216.818 84.534 M27.151 97.215 C 27.218 97.392,27.181 99.153,27.067 101.128 C 26.293 114.537,26.876 135.025,28.104 137.588 C 30.860 143.343,39.117 145.091,47.081 141.605 C 47.627 141.365,48.308 141.100,48.594 141.015 C 48.880 140.930,49.360 140.600,49.660 140.280 L 50.206 139.699 50.134 122.254 C 50.063 105.108,50.054 104.805,49.565 104.525 C 48.824 104.100,46.767 103.440,45.176 103.117 C 42.896 102.653,41.586 100.783,43.230 100.339 C 44.186 100.081,47.848 99.371,50.095 99.008 C 51.206 98.829,52.324 98.571,52.580 98.434 C 52.835 98.297,53.602 98.109,54.286 98.016 C 54.969 97.923,56.171 97.633,56.958 97.371 C 60.351 96.240,60.912 96.644,60.612 100.004 C 60.490 101.368,60.386 110.646,60.381 120.621 C 60.369 145.531,59.961 143.991,66.832 144.991 C 69.561 145.388,68.066 148.323,65.135 148.323 C 64.984 148.323,63.990 148.613,62.927 148.967 C 57.566 150.754,53.184 149.408,51.539 145.470 C 50.981 144.135,50.245 144.093,48.383 145.286 C 47.530 145.833,46.385 146.500,45.839 146.769 C 45.292 147.038,44.453 147.454,43.975 147.693 C 39.560 149.899,30.962 150.476,26.460 148.868 C 21.721 147.176,19.128 144.448,17.443 139.379 L 16.823 137.516 16.648 121.118 C 16.552 112.099,16.457 104.702,16.436 104.680 C 16.253 104.486,12.734 103.348,11.579 103.109 C 9.100 102.596,7.882 100.555,9.876 100.255 C 10.388 100.178,11.646 99.935,12.671 99.716 C 13.696 99.497,15.373 99.169,16.398 98.989 C 17.422 98.808,18.872 98.486,19.619 98.274 C 20.367 98.062,21.209 97.888,21.492 97.888 C 21.775 97.888,22.617 97.669,23.364 97.400 C 24.938 96.834,26.966 96.735,27.151 97.215 M173.673 97.280 C 174.420 97.492,175.589 97.782,176.270 97.923 C 181.088 98.924,187.783 104.296,190.030 108.963 C 190.354 109.636,190.820 110.584,191.066 111.070 C 191.311 111.556,191.592 112.394,191.690 112.933 C 191.788 113.472,192.025 114.224,192.217 114.603 C 193.161 116.467,193.167 128.255,192.225 130.094 C 192.024 130.486,191.778 131.298,191.679 131.898 C 191.579 132.498,191.221 133.560,190.882 134.258 C 190.544 134.957,190.026 136.030,189.730 136.644 C 185.876 144.646,175.870 150.257,166.211 149.831 C 157.968 149.468,152.964 147.441,148.383 142.609 C 141.786 135.650,139.857 125.727,142.878 114.286 C 143.329 112.574,145.326 108.598,146.449 107.173 C 147.001 106.472,147.677 105.585,147.950 105.201 C 149.760 102.659,156.346 98.478,159.460 97.894 C 160.188 97.757,160.911 97.567,161.067 97.470 C 162.137 96.809,171.514 96.667,173.673 97.280 M349.141 98.385 C 348.429 117.137,348.855 134.565,350.091 137.316 C 350.348 137.889,350.559 138.433,350.559 138.525 C 350.559 139.115,353.916 142.110,354.581 142.113 C 354.760 142.114,355.224 142.280,355.612 142.483 C 359.090 144.296,369.683 142.719,371.961 140.048 C 372.469 139.451,372.521 107.726,372.017 105.477 C 371.776 104.405,370.220 103.613,367.569 103.216 C 364.687 102.783,363.494 100.140,366.175 100.128 C 366.634 100.126,367.696 99.945,368.536 99.725 C 369.375 99.506,370.901 99.182,371.925 99.007 C 373.825 98.682,375.901 98.200,379.006 97.362 C 382.902 96.311,382.928 96.340,382.597 101.508 C 382.164 108.288,382.407 139.595,382.907 141.448 C 383.593 143.987,384.268 144.386,388.881 144.973 C 391.158 145.263,391.194 146.824,388.944 147.685 C 380.573 150.891,375.611 150.234,373.643 145.660 C 372.991 144.145,372.335 144.061,370.518 145.262 C 361.544 151.193,348.962 151.429,343.295 145.773 C 339.018 141.505,338.644 139.349,338.638 118.960 C 338.635 111.531,338.533 105.358,338.407 105.026 C 338.171 104.406,336.189 103.584,334.037 103.212 C 331.337 102.745,329.741 100.574,331.863 100.255 C 332.376 100.178,333.634 99.938,334.658 99.721 C 335.683 99.504,337.431 99.182,338.542 99.005 C 339.654 98.827,340.780 98.566,341.046 98.424 C 341.312 98.282,342.120 98.087,342.843 97.991 C 343.566 97.895,344.787 97.612,345.557 97.363 C 346.327 97.114,347.460 96.934,348.075 96.964 L 349.193 97.019 349.141 98.385 M164.099 101.289 C 158.923 102.475,154.470 107.433,153.653 112.919 C 153.572 113.466,153.333 114.640,153.121 115.528 C 152.574 117.824,152.577 127.409,153.125 129.689 C 153.338 130.578,153.587 131.807,153.677 132.422 C 153.970 134.413,155.769 138.410,157.273 140.411 C 157.812 141.128,158.283 141.784,158.319 141.868 C 158.449 142.169,161.372 144.348,161.645 144.348 C 161.799 144.348,162.470 144.594,163.136 144.894 C 166.415 146.373,172.487 145.473,175.521 143.058 C 180.017 139.481,182.869 129.516,181.855 120.922 C 181.706 119.664,181.553 118.298,181.514 117.888 C 180.412 106.328,172.990 99.254,164.099 101.289 M95.342 110.827 C 94.935 111.064,94.907 112.097,94.907 126.926 L 94.907 142.771 95.504 143.331 C 96.683 144.439,105.166 144.848,108.447 143.955 C 109.267 143.732,110.273 143.463,110.683 143.357 C 114.973 142.251,119.042 138.001,120.183 133.437 C 120.373 132.674,120.635 131.658,120.763 131.180 C 122.333 125.354,119.213 115.595,115.155 113.642 C 114.745 113.445,114.130 113.128,113.789 112.939 C 112.639 112.303,110.880 111.553,110.532 111.550 C 110.342 111.548,109.292 111.326,108.199 111.056 C 105.958 110.502,96.197 110.329,95.342 110.827 M254.051 137.766 C 259.594 140.274,258.308 149.023,252.298 149.696 C 249.169 150.046,246.811 149.089,245.606 146.980 C 242.247 141.101,247.869 134.968,254.051 137.766 " stroke="none" fill="#fbfbfb" fill-rule="evenodd"></path></g></svg>