<svg id="svg" version="1.1" xmlns="http://www.w3.org/2000/svg" xmlns:xlink="http://www.w3.org/1999/xlink" width="400" height="400" viewBox="0, 0, 400,400"><g id="svgg"><path id="path0" d="M118.023 46.172 C 117.634 46.641,117.706 48.357,118.370 54.481 C 121.155 80.170,121.660 104.081,120.551 157.651 C 119.499 208.428,134.531 229.742,171.400 229.753 C 195.929 229.760,218.776 219.189,238.738 198.596 C 243.193 194.000,244.562 192.802,244.860 193.238 C 245.369 193.983,245.001 272.249,244.438 283.200 C 243.735 296.862,243.225 305.124,242.152 320.268 C 240.765 339.824,240.552 339.419,250.457 336.091 C 259.909 332.916,269.318 330.860,279.300 329.789 C 282.213 329.477,282.270 329.284,281.442 322.531 C 279.068 303.173,279.000 299.426,279.000 188.200 C 279.000 76.929,279.078 72.992,281.720 51.132 C 282.393 45.562,282.344 45.488,278.373 46.112 C 274.463 46.727,249.710 46.727,245.423 46.113 C 241.706 45.581,241.040 45.958,241.377 48.400 C 243.829 66.161,244.787 88.211,245.079 133.613 L 245.318 170.626 239.759 176.370 C 210.549 206.552,169.851 214.518,159.174 192.145 C 155.188 183.794,154.999 181.084,155.003 132.200 C 155.007 84.581,155.298 76.045,157.655 54.465 C 158.654 45.326,158.713 45.513,155.000 46.042 C 148.133 47.020,122.701 46.830,119.156 45.774 C 118.803 45.668,118.292 45.848,118.023 46.172 " stroke="none" fill="#fbfbfb" fill-rule="evenodd"></path><path id="path1" d="M0.000 200.000 L 0.000 400.000 200.000 400.000 L 400.000 400.000 400.000 200.000 L 400.000 0.000 200.000 0.000 L 0.000 0.000 0.000 200.000 M125.800 46.439 C 132.109 46.936,150.475 46.687,155.000 46.042 C 158.713 45.513,158.654 45.326,157.655 54.465 C 155.298 76.045,155.007 84.581,155.003 132.200 C 155.000 177.067,155.038 178.085,157.014 185.888 C 164.377 214.963,207.173 210.040,239.759 176.370 L 245.318 170.626 245.079 133.613 C 244.787 88.211,243.829 66.161,241.377 48.400 C 241.040 45.958,241.706 45.581,245.423 46.113 C 249.710 46.727,274.463 46.727,278.373 46.112 C 282.344 45.488,282.393 45.562,281.720 51.132 C 279.078 72.992,279.000 76.929,279.000 188.200 C 279.000 299.426,279.068 303.173,281.442 322.531 C 282.270 329.284,282.213 329.477,279.300 329.789 C 269.318 330.860,259.909 332.916,250.457 336.091 C 240.552 339.419,240.765 339.824,242.152 320.268 C 243.225 305.124,243.735 296.862,244.438 283.200 C 245.001 272.249,245.369 193.983,244.860 193.238 C 244.562 192.802,243.193 194.000,238.738 198.596 C 218.776 219.189,195.929 229.760,171.400 229.753 C 134.531 229.742,119.499 208.428,120.551 157.651 C 121.660 104.081,121.155 80.170,118.370 54.481 C 117.496 46.420,117.596 45.309,119.156 45.774 C 119.510 45.879,122.500 46.179,125.800 46.439 " stroke="none" fill="#d4d4d4" fill-rule="evenodd"></path></g></svg>