<svg id="svg" version="1.1" xmlns="http://www.w3.org/2000/svg" xmlns:xlink="http://www.w3.org/1999/xlink" width="400" height="226.50602409638554" viewBox="0, 0, 400,226.50602409638554"><g id="svgg"><path id="path0" d="M157.734 33.778 C 154.306 33.883,149.867 34.077,147.869 34.208 C 143.048 34.526,130.999 34.514,125.833 34.186 C 121.093 33.886,121.400 33.779,121.287 35.773 C 121.177 37.719,120.971 37.561,125.439 38.947 C 132.277 41.069,133.044 41.430,133.616 42.799 C 134.098 43.951,134.099 141.655,133.618 142.805 C 133.253 143.676,132.246 144.503,131.298 144.710 C 130.942 144.788,130.448 144.946,130.198 145.063 C 129.949 145.179,129.184 145.430,128.499 145.619 C 127.813 145.809,126.742 146.110,126.119 146.288 C 125.496 146.466,124.354 146.781,123.582 146.988 C 121.530 147.540,121.163 147.961,121.357 149.548 C 121.442 150.248,121.593 150.906,121.692 151.010 C 121.791 151.114,129.763 151.248,139.407 151.309 C 149.050 151.369,159.439 151.437,162.493 151.459 C 167.896 151.498,173.226 151.196,175.524 150.721 C 177.657 150.280,180.057 149.788,181.076 149.581 C 191.973 147.375,202.412 139.337,206.103 130.312 C 206.435 129.501,206.793 128.635,206.900 128.385 C 207.253 127.565,207.837 124.807,208.285 121.849 C 209.805 111.810,206.813 101.930,200.645 96.618 C 200.041 96.098,199.220 95.369,198.822 94.998 C 198.423 94.627,197.519 93.982,196.814 93.564 C 196.108 93.146,195.160 92.584,194.706 92.314 C 193.766 91.754,191.967 90.879,191.756 90.877 C 191.678 90.877,190.850 90.565,189.915 90.183 C 188.980 89.802,187.603 89.348,186.856 89.176 C 185.127 88.777,183.577 88.372,183.026 88.174 C 182.580 88.014,182.804 87.882,186.289 86.251 C 186.975 85.930,188.249 85.260,189.122 84.761 C 189.994 84.263,190.861 83.785,191.048 83.699 C 191.408 83.534,192.670 82.689,192.861 82.485 C 192.924 82.419,193.505 81.980,194.154 81.510 C 195.676 80.408,198.965 76.902,199.535 75.775 C 199.778 75.294,200.140 74.697,200.340 74.448 C 200.540 74.198,200.939 73.433,201.227 72.748 C 201.516 72.062,201.852 71.307,201.976 71.070 C 205.403 64.484,204.332 51.982,199.793 45.587 C 197.414 42.237,190.232 36.941,188.067 36.941 C 187.938 36.941,187.561 36.799,187.230 36.625 C 186.661 36.327,184.994 35.831,181.817 35.016 C 181.041 34.816,179.664 34.560,178.758 34.446 C 177.852 34.332,176.397 34.142,175.524 34.024 C 173.028 33.687,164.549 33.569,157.734 33.778 M163.451 40.798 C 165.355 40.926,167.575 41.173,168.385 41.347 C 169.195 41.522,170.251 41.730,170.731 41.810 C 171.211 41.890,171.925 42.095,172.317 42.265 C 172.710 42.435,173.643 42.806,174.391 43.090 C 175.139 43.373,175.912 43.737,176.108 43.899 C 176.305 44.060,176.532 44.193,176.611 44.193 C 178.653 44.193,183.633 50.563,184.495 54.278 C 184.640 54.901,184.908 55.918,185.091 56.538 C 185.517 57.978,185.728 64.772,185.419 67.082 C 184.574 73.384,182.121 78.227,178.293 81.150 C 177.571 81.702,176.854 82.265,176.699 82.402 C 176.545 82.539,175.605 83.033,174.611 83.499 C 173.618 83.966,172.507 84.492,172.143 84.669 C 171.779 84.845,170.838 85.092,170.052 85.218 C 169.266 85.343,168.391 85.533,168.108 85.640 C 166.648 86.188,151.646 86.394,150.684 85.879 C 150.199 85.620,149.994 43.095,150.471 41.840 C 150.737 41.141,151.055 41.079,155.694 40.826 C 157.626 40.720,159.383 40.619,159.599 40.600 C 159.814 40.582,161.548 40.671,163.451 40.798 M335.977 52.679 C 335.279 52.987,334.192 53.298,332.011 53.814 C 329.827 54.332,328.849 54.829,328.706 55.493 C 328.635 55.822,328.389 56.703,328.160 57.450 C 327.931 58.198,327.525 59.575,327.258 60.510 C 326.991 61.445,326.626 62.720,326.448 63.343 C 325.889 65.299,325.199 67.609,324.858 68.669 C 324.678 69.229,324.531 69.877,324.531 70.107 C 324.532 70.338,324.389 70.848,324.213 71.241 C 324.037 71.633,323.773 72.485,323.626 73.133 C 323.224 74.913,322.607 75.079,314.674 75.551 L 310.368 75.807 310.299 76.523 C 310.069 78.892,310.716 79.527,314.108 80.262 C 314.669 80.383,315.586 80.623,316.147 80.794 C 316.708 80.965,317.626 81.174,318.187 81.258 C 318.748 81.343,319.309 81.477,319.433 81.556 C 319.558 81.635,320.170 81.804,320.793 81.932 L 321.926 82.163 321.926 110.374 L 321.926 138.584 322.461 140.623 C 323.505 144.604,324.915 147.040,327.482 149.297 C 328.459 150.156,331.436 151.841,331.976 151.841 C 332.087 151.841,332.830 152.060,333.625 152.327 C 335.869 153.080,344.759 153.086,347.875 152.337 C 354.623 150.716,357.797 149.614,363.427 146.942 C 364.315 146.520,365.156 146.176,365.297 146.176 C 365.635 146.176,365.642 142.730,365.305 142.393 C 365.031 142.119,364.121 142.181,361.246 142.669 C 354.249 143.858,347.040 143.846,344.328 142.640 C 343.936 142.466,343.489 142.323,343.335 142.323 C 341.036 142.323,338.659 138.084,338.144 133.064 C 337.740 129.121,338.024 83.430,338.456 82.998 C 338.547 82.907,344.196 82.782,351.010 82.720 L 363.399 82.606 363.462 78.884 C 363.509 76.058,363.455 75.117,363.235 74.978 C 363.076 74.877,357.541 74.791,350.935 74.788 C 344.329 74.784,338.787 74.694,338.621 74.589 C 338.374 74.432,338.330 72.416,338.381 63.649 C 338.453 51.271,338.516 51.562,335.977 52.679 M46.612 71.764 C 46.529 71.846,45.620 72.107,44.591 72.343 C 43.562 72.579,41.904 72.976,40.907 73.224 C 39.909 73.473,38.523 73.770,37.826 73.884 C 37.129 73.998,36.276 74.199,35.929 74.331 C 35.583 74.463,34.641 74.664,33.836 74.778 C 33.031 74.892,32.111 75.157,31.791 75.366 L 31.209 75.748 31.363 79.404 C 31.448 81.414,31.632 84.181,31.771 85.552 C 31.944 87.263,32.066 104.485,32.159 140.397 L 32.295 192.748 33.088 192.823 C 33.524 192.865,34.748 192.741,35.807 192.548 C 41.028 191.595,42.008 191.452,44.543 191.269 C 48.007 191.019,48.673 190.782,48.525 189.856 C 48.440 189.327,47.768 182.132,47.579 179.717 C 47.456 178.159,47.250 175.864,47.121 174.618 C 46.992 173.371,46.789 170.363,46.671 167.932 C 46.553 165.501,46.349 162.697,46.219 161.700 C 45.885 159.141,45.659 148.389,45.930 147.906 C 46.126 147.555,46.235 147.587,47.040 148.229 C 48.176 149.136,50.193 150.482,50.416 150.482 C 50.509 150.482,51.039 150.788,51.593 151.161 C 52.147 151.535,52.723 151.846,52.873 151.851 C 53.022 151.857,53.552 152.016,54.051 152.204 C 56.751 153.226,61.848 153.729,64.143 153.201 C 64.825 153.045,65.841 152.837,66.402 152.740 C 71.198 151.913,77.170 148.008,80.951 143.226 C 82.448 141.334,82.720 141.213,82.720 142.442 C 82.720 142.866,82.863 143.651,83.039 144.185 C 83.214 144.719,83.432 145.511,83.522 145.946 C 84.771 151.973,90.881 154.341,100.397 152.485 C 101.082 152.351,102.306 152.113,103.116 151.955 C 103.926 151.797,104.760 151.597,104.969 151.510 C 105.178 151.423,105.943 151.217,106.669 151.052 C 107.395 150.886,108.754 150.533,109.688 150.267 C 110.623 150.001,111.843 149.685,112.399 149.564 C 113.808 149.258,113.867 149.149,113.546 147.446 C 113.230 145.771,112.911 145.384,111.999 145.566 C 110.052 145.956,103.978 145.022,102.064 144.039 C 99.362 142.652,98.858 141.384,98.454 134.958 C 98.019 128.034,98.019 88.728,98.454 79.334 C 98.624 75.665,98.721 72.553,98.669 72.417 C 98.461 71.874,97.710 71.614,97.062 71.860 C 96.716 71.991,95.769 72.238,94.959 72.409 C 93.617 72.690,92.955 72.844,89.745 73.620 C 86.513 74.400,85.422 74.633,84.247 74.790 C 81.647 75.139,81.452 76.015,82.310 83.513 C 82.783 87.645,82.821 133.567,82.353 134.314 C 81.702 135.351,78.856 137.988,77.543 138.769 C 75.549 139.957,74.016 140.729,73.643 140.733 C 73.450 140.735,73.195 140.830,73.076 140.945 C 72.866 141.149,71.149 141.668,69.122 142.142 C 65.890 142.896,57.595 142.232,55.834 141.078 C 55.548 140.890,55.195 140.737,55.051 140.737 C 54.488 140.737,51.848 138.609,51.020 137.488 C 49.352 135.231,48.568 133.204,47.936 129.518 C 47.552 127.280,47.563 84.649,47.950 75.356 C 48.068 72.533,48.053 72.395,47.581 72.013 C 47.050 71.583,46.845 71.531,46.612 71.764 M258.924 71.845 C 258.176 71.938,256.513 72.128,255.228 72.267 C 253.943 72.405,252.720 72.610,252.509 72.720 C 252.297 72.831,251.677 72.996,251.131 73.087 C 248.801 73.473,241.414 76.551,240.209 77.638 C 240.012 77.815,239.787 77.960,239.708 77.960 C 239.630 77.960,238.516 78.765,237.233 79.748 C 231.283 84.308,225.799 92.194,224.133 98.584 C 222.902 103.306,222.628 104.656,222.294 107.649 C 221.779 112.264,222.028 119.565,222.811 122.833 C 222.946 123.394,223.190 124.465,223.355 125.212 C 225.996 137.220,235.235 147.466,246.912 151.339 C 253.740 153.604,263.533 154.084,270.142 152.478 C 270.703 152.341,271.722 152.099,272.408 151.940 C 274.838 151.374,279.912 149.284,281.473 148.204 C 281.785 147.989,282.652 147.421,283.399 146.942 C 288.043 143.967,293.050 138.742,295.500 134.315 C 297.198 131.245,297.779 129.928,299.265 125.779 C 299.669 124.650,300.510 120.961,300.510 120.316 C 300.510 120.018,300.661 119.059,300.846 118.187 C 302.082 112.353,300.751 99.550,298.350 94.164 C 294.840 86.293,290.094 80.794,283.394 76.837 C 282.330 76.208,281.407 75.694,281.342 75.694 C 281.278 75.694,280.452 75.332,279.506 74.889 C 278.561 74.447,277.469 74.024,277.081 73.951 C 276.692 73.877,276.170 73.712,275.921 73.583 C 275.091 73.155,272.340 72.590,268.060 71.967 C 265.567 71.604,261.322 71.548,258.924 71.845 M265.042 78.742 C 267.004 79.043,268.312 79.420,269.836 80.123 C 270.229 80.305,270.624 80.453,270.715 80.453 C 271.257 80.453,274.360 82.873,275.888 84.489 C 277.889 86.603,280.435 91.169,281.474 94.504 C 281.765 95.439,282.190 96.787,282.418 97.500 C 282.646 98.213,282.833 99.046,282.833 99.351 C 282.833 99.657,282.981 100.501,283.162 101.228 C 284.189 105.355,284.429 115.218,283.668 122.040 C 283.353 124.867,283.219 125.584,282.443 128.612 C 282.252 129.360,282.014 130.329,281.915 130.765 C 281.442 132.855,279.569 136.837,278.078 138.928 C 276.994 140.447,275.520 142.013,274.232 143.013 C 266.900 148.705,255.174 148.128,248.697 141.756 C 246.079 139.181,242.582 133.331,241.922 130.424 C 241.783 129.810,241.266 128.036,240.649 126.053 C 240.521 125.642,240.273 124.367,240.098 123.220 C 239.923 122.072,239.673 120.572,239.544 119.887 C 239.244 118.295,239.230 104.913,239.526 102.663 C 239.842 100.263,240.399 97.088,240.653 96.242 C 242.875 88.839,244.991 85.344,249.318 81.926 C 251.484 80.216,255.074 78.868,257.478 78.863 C 258.398 78.861,259.303 78.761,259.490 78.640 C 259.974 78.327,262.657 78.376,265.042 78.742 M166.146 93.029 C 170.178 93.447,174.642 94.400,176.657 95.272 C 182.501 97.801,185.443 100.464,187.828 105.382 C 191.242 112.425,191.245 125.019,187.835 131.393 C 187.483 132.050,187.195 132.691,187.195 132.817 C 187.195 134.566,181.684 139.995,178.130 141.746 C 177.445 142.084,176.719 142.446,176.517 142.552 C 170.793 145.536,151.545 145.913,150.461 143.062 C 150.064 142.017,150.200 93.699,150.601 93.366 C 151.341 92.752,161.375 92.534,166.146 93.029 " stroke="none" fill="#060606" fill-rule="evenodd"></path><path id="path1" d="M0.000 113.314 L 0.000 226.629 200.000 226.629 L 400.000 226.629 400.000 113.314 L 400.000 0.000 200.000 0.000 L 0.000 0.000 0.000 113.314 M175.524 34.024 C 176.397 34.142,177.852 34.332,178.758 34.446 C 179.664 34.560,181.041 34.816,181.817 35.016 C 184.994 35.831,186.661 36.327,187.230 36.625 C 187.561 36.799,187.938 36.941,188.067 36.941 C 190.232 36.941,197.414 42.237,199.793 45.587 C 204.332 51.982,205.403 64.484,201.976 71.070 C 201.852 71.307,201.516 72.062,201.227 72.748 C 200.939 73.433,200.540 74.198,200.340 74.448 C 200.140 74.697,199.778 75.294,199.535 75.775 C 198.965 76.902,195.676 80.408,194.154 81.510 C 193.505 81.980,192.924 82.419,192.861 82.485 C 192.670 82.689,191.408 83.534,191.048 83.699 C 190.861 83.785,189.994 84.263,189.122 84.761 C 188.249 85.260,186.975 85.930,186.289 86.251 C 182.804 87.882,182.580 88.014,183.026 88.174 C 183.577 88.372,185.127 88.777,186.856 89.176 C 187.603 89.348,188.980 89.802,189.915 90.183 C 190.850 90.565,191.678 90.877,191.756 90.877 C 191.967 90.879,193.766 91.754,194.706 92.314 C 195.160 92.584,196.108 93.146,196.814 93.564 C 197.519 93.982,198.423 94.627,198.822 94.998 C 199.220 95.369,200.041 96.098,200.645 96.618 C 206.813 101.930,209.805 111.810,208.285 121.849 C 207.837 124.807,207.253 127.565,206.900 128.385 C 206.793 128.635,206.435 129.501,206.103 130.312 C 202.412 139.337,191.973 147.375,181.076 149.581 C 180.057 149.788,177.657 150.280,175.524 150.721 C 173.226 151.196,167.896 151.498,162.493 151.459 C 159.439 151.437,149.050 151.369,139.407 151.309 C 129.763 151.248,121.791 151.114,121.692 151.010 C 121.593 150.906,121.442 150.248,121.357 149.548 C 121.163 147.961,121.530 147.540,123.582 146.988 C 124.354 146.781,125.496 146.466,126.119 146.288 C 126.742 146.110,127.813 145.809,128.499 145.619 C 129.184 145.430,129.949 145.179,130.198 145.063 C 130.448 144.946,130.942 144.788,131.298 144.710 C 132.246 144.503,133.253 143.676,133.618 142.805 C 134.099 141.655,134.098 43.951,133.616 42.799 C 133.044 41.430,132.277 41.069,125.439 38.947 C 120.971 37.561,121.177 37.719,121.287 35.773 C 121.400 33.779,121.093 33.886,125.833 34.186 C 130.999 34.514,143.048 34.526,147.869 34.208 C 157.206 33.593,171.626 33.497,175.524 34.024 M155.694 40.826 C 151.055 41.079,150.737 41.141,150.471 41.840 C 149.994 43.095,150.199 85.620,150.684 85.879 C 151.646 86.394,166.648 86.188,168.108 85.640 C 168.391 85.533,169.266 85.343,170.052 85.218 C 170.838 85.092,171.779 84.845,172.143 84.669 C 172.507 84.492,173.618 83.966,174.611 83.499 C 175.605 83.033,176.545 82.539,176.699 82.402 C 176.854 82.265,177.571 81.702,178.293 81.150 C 182.121 78.227,184.574 73.384,185.419 67.082 C 185.728 64.772,185.517 57.978,185.091 56.538 C 184.908 55.918,184.640 54.901,184.495 54.278 C 183.633 50.563,178.653 44.193,176.611 44.193 C 176.532 44.193,176.305 44.060,176.108 43.899 C 175.912 43.737,175.139 43.373,174.391 43.090 C 173.643 42.806,172.710 42.435,172.317 42.265 C 171.925 42.095,171.211 41.890,170.731 41.810 C 170.251 41.730,169.195 41.522,168.385 41.347 C 167.072 41.064,160.603 40.514,159.599 40.600 C 159.383 40.619,157.626 40.720,155.694 40.826 M338.273 52.626 C 338.367 52.777,338.415 57.737,338.381 63.649 C 338.330 72.416,338.374 74.432,338.621 74.589 C 338.787 74.694,344.329 74.784,350.935 74.788 C 357.541 74.791,363.076 74.877,363.235 74.978 C 363.455 75.117,363.509 76.058,363.462 78.884 L 363.399 82.606 351.010 82.720 C 344.196 82.782,338.547 82.907,338.456 82.998 C 338.024 83.430,337.740 129.121,338.144 133.064 C 338.659 138.084,341.036 142.323,343.335 142.323 C 343.489 142.323,343.936 142.466,344.328 142.640 C 347.040 143.846,354.249 143.858,361.246 142.669 C 364.121 142.181,365.031 142.119,365.305 142.393 C 365.642 142.730,365.635 146.176,365.297 146.176 C 365.156 146.176,364.315 146.520,363.427 146.942 C 357.797 149.614,354.623 150.716,347.875 152.337 C 344.759 153.086,335.869 153.080,333.625 152.327 C 332.830 152.060,332.087 151.841,331.976 151.841 C 331.436 151.841,328.459 150.156,327.482 149.297 C 324.915 147.040,323.505 144.604,322.461 140.623 L 321.926 138.584 321.926 110.374 L 321.926 82.163 320.793 81.932 C 320.170 81.804,319.558 81.635,319.433 81.556 C 319.309 81.477,318.748 81.343,318.187 81.258 C 317.626 81.174,316.708 80.965,316.147 80.794 C 315.586 80.623,314.669 80.383,314.108 80.262 C 310.716 79.527,310.069 78.892,310.299 76.523 L 310.368 75.807 314.674 75.551 C 322.607 75.079,323.224 74.913,323.626 73.133 C 323.773 72.485,324.037 71.633,324.213 71.241 C 324.389 70.848,324.532 70.338,324.531 70.107 C 324.531 69.877,324.678 69.229,324.858 68.669 C 325.199 67.609,325.889 65.299,326.448 63.343 C 326.626 62.720,326.991 61.445,327.258 60.510 C 327.525 59.575,327.931 58.198,328.160 57.450 C 328.389 56.703,328.635 55.822,328.706 55.493 C 328.849 54.829,329.827 54.332,332.011 53.814 C 334.192 53.298,335.279 52.987,335.977 52.679 C 336.844 52.298,338.053 52.270,338.273 52.626 M47.581 72.013 C 48.053 72.395,48.068 72.533,47.950 75.356 C 47.563 84.649,47.552 127.280,47.936 129.518 C 48.568 133.204,49.352 135.231,51.020 137.488 C 51.848 138.609,54.488 140.737,55.051 140.737 C 55.195 140.737,55.548 140.890,55.834 141.078 C 57.595 142.232,65.890 142.896,69.122 142.142 C 71.149 141.668,72.866 141.149,73.076 140.945 C 73.195 140.830,73.450 140.735,73.643 140.733 C 74.016 140.729,75.549 139.957,77.543 138.769 C 78.856 137.988,81.702 135.351,82.353 134.314 C 82.821 133.567,82.783 87.645,82.310 83.513 C 81.452 76.015,81.647 75.139,84.247 74.790 C 85.422 74.633,86.513 74.400,89.745 73.620 C 92.955 72.844,93.617 72.690,94.959 72.409 C 95.769 72.238,96.716 71.991,97.062 71.860 C 97.710 71.614,98.461 71.874,98.669 72.417 C 98.721 72.553,98.624 75.665,98.454 79.334 C 98.019 88.728,98.019 128.034,98.454 134.958 C 98.858 141.384,99.362 142.652,102.064 144.039 C 103.978 145.022,110.052 145.956,111.999 145.566 C 112.911 145.384,113.230 145.771,113.546 147.446 C 113.867 149.149,113.808 149.258,112.399 149.564 C 111.843 149.685,110.623 150.001,109.688 150.267 C 108.754 150.533,107.395 150.886,106.669 151.052 C 105.943 151.217,105.178 151.423,104.969 151.510 C 104.760 151.597,103.926 151.797,103.116 151.955 C 102.306 152.113,101.082 152.351,100.397 152.485 C 90.881 154.341,84.771 151.973,83.522 145.946 C 83.432 145.511,83.214 144.719,83.039 144.185 C 82.863 143.651,82.720 142.866,82.720 142.442 C 82.720 141.213,82.448 141.334,80.951 143.226 C 77.170 148.008,71.198 151.913,66.402 152.740 C 65.841 152.837,64.825 153.045,64.143 153.201 C 61.848 153.729,56.751 153.226,54.051 152.204 C 53.552 152.016,53.022 151.857,52.873 151.851 C 52.723 151.846,52.147 151.535,51.593 151.161 C 51.039 150.788,50.509 150.482,50.416 150.482 C 50.193 150.482,48.176 149.136,47.040 148.229 C 46.235 147.587,46.126 147.555,45.930 147.906 C 45.659 148.389,45.885 159.141,46.219 161.700 C 46.349 162.697,46.553 165.501,46.671 167.932 C 46.789 170.363,46.992 173.371,47.121 174.618 C 47.250 175.864,47.456 178.159,47.579 179.717 C 47.768 182.132,48.440 189.327,48.525 189.856 C 48.673 190.782,48.007 191.019,44.543 191.269 C 42.008 191.452,41.028 191.595,35.807 192.548 C 34.748 192.741,33.524 192.865,33.088 192.823 L 32.295 192.748 32.159 140.397 C 32.066 104.485,31.944 87.263,31.771 85.552 C 31.632 84.181,31.448 81.414,31.363 79.404 L 31.209 75.748 31.791 75.366 C 32.111 75.157,33.031 74.892,33.836 74.778 C 34.641 74.664,35.583 74.463,35.929 74.331 C 36.276 74.199,37.129 73.998,37.826 73.884 C 38.523 73.770,39.909 73.473,40.907 73.224 C 41.904 72.976,43.562 72.579,44.591 72.343 C 45.620 72.107,46.529 71.846,46.612 71.764 C 46.845 71.531,47.050 71.583,47.581 72.013 M268.060 71.967 C 272.340 72.590,275.091 73.155,275.921 73.583 C 276.170 73.712,276.692 73.877,277.081 73.951 C 277.469 74.024,278.561 74.447,279.506 74.889 C 280.452 75.332,281.278 75.694,281.342 75.694 C 281.407 75.694,282.330 76.208,283.394 76.837 C 290.094 80.794,294.840 86.293,298.350 94.164 C 300.751 99.550,302.082 112.353,300.846 118.187 C 300.661 119.059,300.510 120.018,300.510 120.316 C 300.510 120.961,299.669 124.650,299.265 125.779 C 297.779 129.928,297.198 131.245,295.500 134.315 C 293.050 138.742,288.043 143.967,283.399 146.942 C 282.652 147.421,281.785 147.989,281.473 148.204 C 279.912 149.284,274.838 151.374,272.408 151.940 C 271.722 152.099,270.703 152.341,270.142 152.478 C 263.533 154.084,253.740 153.604,246.912 151.339 C 235.235 147.466,225.996 137.220,223.355 125.212 C 223.190 124.465,222.946 123.394,222.811 122.833 C 222.028 119.565,221.779 112.264,222.294 107.649 C 222.628 104.656,222.902 103.306,224.133 98.584 C 225.799 92.194,231.283 84.308,237.233 79.748 C 238.516 78.765,239.630 77.960,239.708 77.960 C 239.787 77.960,240.012 77.815,240.209 77.638 C 241.414 76.551,248.801 73.473,251.131 73.087 C 251.677 72.996,252.297 72.831,252.509 72.720 C 252.720 72.610,253.943 72.405,255.228 72.267 C 256.513 72.128,258.176 71.938,258.924 71.845 C 261.322 71.548,265.567 71.604,268.060 71.967 M259.490 78.640 C 259.303 78.761,258.398 78.861,257.478 78.863 C 255.074 78.868,251.484 80.216,249.318 81.926 C 244.991 85.344,242.875 88.839,240.653 96.242 C 240.399 97.088,239.842 100.263,239.526 102.663 C 239.230 104.913,239.244 118.295,239.544 119.887 C 239.673 120.572,239.923 122.072,240.098 123.220 C 240.273 124.367,240.521 125.642,240.649 126.053 C 241.266 128.036,241.783 129.810,241.922 130.424 C 242.582 133.331,246.079 139.181,248.697 141.756 C 254.685 147.646,264.991 148.637,272.759 144.069 C 275.592 142.403,278.025 139.527,280.086 135.411 C 281.066 133.451,281.632 132.015,281.915 130.765 C 282.014 130.329,282.252 129.360,282.443 128.612 C 283.219 125.584,283.353 124.867,283.668 122.040 C 284.429 115.218,284.189 105.355,283.162 101.228 C 282.981 100.501,282.833 99.657,282.833 99.351 C 282.833 99.046,282.646 98.213,282.418 97.500 C 282.190 96.787,281.765 95.439,281.474 94.504 C 280.435 91.169,277.889 86.603,275.888 84.489 C 274.360 82.873,271.257 80.453,270.715 80.453 C 270.624 80.453,270.229 80.305,269.836 80.123 C 266.950 78.791,260.654 77.888,259.490 78.640 M153.943 92.921 C 152.078 93.019,150.816 93.188,150.601 93.366 C 150.200 93.699,150.064 142.017,150.461 143.062 C 151.545 145.913,170.793 145.536,176.517 142.552 C 176.719 142.446,177.445 142.084,178.130 141.746 C 181.684 139.995,187.195 134.566,187.195 132.817 C 187.195 132.691,187.483 132.050,187.835 131.393 C 191.245 125.019,191.242 112.425,187.828 105.382 C 185.443 100.464,182.501 97.801,176.657 95.272 C 172.046 93.276,163.646 92.407,153.943 92.921 " stroke="none" fill="#fbfbfb" fill-rule="evenodd"></path></g></svg>