<svg id="svg" version="1.1" xmlns="http://www.w3.org/2000/svg" xmlns:xlink="http://www.w3.org/1999/xlink" width="400" height="400" viewBox="0, 0, 400,400"><g id="svgg"><path id="path0" d="M0.000 200.000 L 0.000 400.000 200.000 400.000 L 400.000 400.000 400.000 200.000 L 400.000 0.000 200.000 0.000 L 0.000 0.000 0.000 200.000 M129.400 46.834 C 136.804 47.260,146.389 47.067,153.359 46.353 C 158.600 45.815,158.525 45.733,157.803 51.200 C 154.677 74.854,152.997 161.994,155.350 178.400 C 157.656 194.468,163.118 201.514,175.200 204.006 C 194.930 208.075,219.917 197.454,240.064 176.434 L 245.273 171.000 245.081 130.800 C 244.868 86.335,244.437 75.030,242.131 53.300 C 241.288 45.363,241.023 45.789,246.460 46.340 C 256.251 47.331,270.528 47.251,279.439 46.154 C 282.091 45.828,282.152 46.011,281.413 52.133 C 280.643 58.510,279.742 70.270,279.109 82.200 C 278.369 96.148,278.379 279.303,279.120 294.400 C 279.745 307.126,280.599 318.157,281.401 323.870 C 282.164 329.311,282.109 329.410,278.116 329.760 C 270.268 330.449,259.411 332.833,250.626 335.799 C 244.445 337.884,243.676 337.958,242.388 336.587 C 241.242 335.368,241.243 335.628,242.359 320.200 C 242.805 314.040,243.360 305.850,243.593 302.000 C 243.826 298.150,244.214 291.760,244.455 287.800 C 245.039 278.194,245.372 193.614,244.829 192.800 C 244.504 192.312,243.928 192.762,241.755 195.200 C 213.267 227.157,168.405 239.303,141.978 222.214 C 124.779 211.092,119.475 191.299,121.019 144.000 C 122.119 110.310,121.174 77.046,118.438 53.200 C 117.611 45.994,117.668 45.789,120.384 46.167 C 121.383 46.307,125.440 46.607,129.400 46.834 " stroke="none" fill="#000000" fill-rule="evenodd"></path></g></svg>