<svg xmlns="http://www.w3.org/2000/svg" width="400" height="248.421" viewBox="0 0 400 NaN"  xmlns:v="https://vecta.io/nano"><path d="M275.998 68.27c-8.706 1.982-9.72 3.103-4.419 4.888l3.684 1.24.278 33.991c.297 36.322.317 36.176-5.108 37.261-6.762 1.353-1.564 2.771 10.155 2.771 11.947 0 14.814-.933 9.044-2.945-3.733-1.301-4.369-4.947-4.369-25.06 0-15.823-.21-15.414 8.605-16.736 13.129-1.968 15.606 1.876 15.606 24.217v16.423l-3.158 1.101c-5.936 2.069-3.16 3 8.947 3 12.598 0 14.455-.691 8.684-3.231l-3.421-1.506-.526-18.611c-.764-27.002-8.02-33.757-27.608-25.702l-6.029 2.48-.701-3.738c-.385-2.056-.384-10.051.003-17.767.555-11.064.42-14.009-.638-13.928-.739.056-4.801.889-9.029 1.852M85.526 72.3c-9.617.406-12.753 1.886-6.602 3.116 5.334 1.067 5.336 1.08 5.039 35.763l-.279 32.505-3.637 1.176c-8.897 2.876-4.976 3.737 15.397 3.381 30.482-.531 40.426-8.015 36.743-27.65-.642-3.424-6.955-11.117-9.122-11.117-.453 0-2.14-.501-3.75-1.113l-2.927-1.113 4.143-2.324c6.175-3.464 8.944-8.216 8.939-15.343-.01-15.255-8.924-18.76-43.944-17.281m26.188 6.191c5.644 2.918 7.834 12.356 4.641 19.998-1.955 4.68-8.329 7.771-16.092 7.804l-5.526.023V76.842h6.894c4.2 0 8.141.645 10.083 1.649m100.797 6.418c-1.065.284-2.386 2.99-3.538 7.246l-1.838 6.792h-4.094c-5.261 0-5.606 2.64-.472 3.603l3.622.68.651 41.167 2.954 2.538c3.631 3.121 11.18 3.328 19.151.525 8.144-2.864 7.492-4.906-1.433-4.483-10.482.496-10.672.111-10.672-21.632v-17.134h8.421c8.281 0 8.421-.044 8.421-2.632s-.14-2.632-8.421-2.632h-8.421v-7.368c0-7.503-.179-7.779-4.331-6.67M15.926 98.847c-8.089 1.812-8.648 3.191-1.973 4.867l2.889.725v16.762c0 19.005.93 22.735 6.516 26.14 5.131 3.129 14.456 2.885 21.884-.573 3.572-1.662 5.912-2.253 6.147-1.55 1.365 4.098 7.123 5.399 13.717 3.1 4.186-1.459 4.218-2.689.094-3.595-4.885-1.073-5.39-3.812-5.012-27.165l.338-20.863-2.631.563-9.236 1.839c-6.913 1.336-7.96 2.866-2.891 4.222 4.499 1.203 4.725 2.162 4.742 20.156l.016 16.632-3.65 1.526c-16.048 6.705-21.363-1.078-20.291-29.715.645-17.247 1.779-15.857-10.659-13.071m140.347.487c-19.258 8.967-19.896 39.4-1.01 48.144 9.784 4.53 25.41 1.23 31.407-6.632 17.779-23.311-4.41-53.614-30.397-41.512m181.885-.558c-8.714 1.873-9.362 2.726-3.421 4.506l4.21 1.262v16.709c0 18.949.933 22.685 6.516 26.088 5.131 3.129 14.456 2.885 21.884-.573 3.572-1.662 5.913-2.253 6.147-1.55 1.366 4.098 7.123 5.399 13.717 3.1 4.186-1.459 4.218-2.689.094-3.595-4.857-1.067-5.356-3.778-4.996-27.126l.323-20.902-2.632.563-9.236 1.839c-6.912 1.336-7.96 2.866-2.89 4.222 4.498 1.203 4.724 2.162 4.741 20.156l.017 16.632-3.651 1.526c-16.012 6.69-21.227-.891-20.364-29.6.4-13.301.253-15.173-1.185-15.044-.903.081-5.077.885-9.274 1.787m-163.359 5.122c12.647 10.642 7.949 41.365-6.325 41.365-9.725 0-14.633-6.286-15.55-19.914-1.309-19.46 10.49-31.03 21.875-21.451m-60.28 9.426c14.136 10.362 5.615 31.396-12.414 30.645l-6.842-.285-.581-33.431 8.494.491c6.246.362 9.248 1.045 11.343 2.58m133.27 24.324c-.637.425-1.724 1.848-2.416 3.162-3.41 6.474 6.948 12.277 10.967 6.143 3.639-5.553-3.133-12.923-8.551-9.305" fill-rule="evenodd"/></svg>