<svg xmlns="http://www.w3.org/2000/svg" width="400" height="400" viewBox="0 0 400 NaN"  xmlns:v="https://vecta.io/nano"><path d="M0 200v200h400V0H0v200M129.4 46.834c7.404.426 16.989.233 23.959-.481 5.241-.538 5.166-.62 4.444 4.847-3.126 23.654-4.806 110.794-2.453 127.2 2.306 16.068 7.768 23.114 19.85 25.606 19.73 4.069 44.717-6.552 64.864-27.572l5.209-5.434-.192-40.2c-.213-44.465-.644-55.77-2.95-77.5-.843-7.937-1.108-7.511 4.329-6.96 9.791.991 24.068.911 32.979-.186 2.652-.326 2.713-.143 1.974 5.979-.77 6.377-1.671 18.137-2.304 30.067-.74 13.948-.73 197.103.011 212.2.625 12.726 1.479 23.757 2.281 29.47.763 5.441.708 5.54-3.285 5.89-7.848.689-18.705 3.073-27.49 6.039-6.181 2.085-6.95 2.159-8.238.788-1.146-1.219-1.145-.959-.029-16.387l1.234-18.2.862-14.2c.584-9.606.917-94.186.374-95-.325-.488-.901-.038-3.074 2.4-28.488 31.957-73.35 44.103-99.777 27.014-17.199-11.122-22.503-30.915-20.959-78.214 1.1-33.69.155-66.954-2.581-90.8-.827-7.206-.77-7.411 1.946-7.033.999.14 5.056.44 9.016.667" fill-rule="evenodd"/></svg>