<svg id="svg" version="1.1" xmlns="http://www.w3.org/2000/svg" xmlns:xlink="http://www.w3.org/1999/xlink" width="400" height="400" viewBox="0, 0, 400,400"><g id="svgg"><path id="path0" d="M0.000 200.000 L 0.000 400.000 200.000 400.000 L 400.000 400.000 400.000 200.000 L 400.000 0.000 200.000 0.000 L 0.000 0.000 0.000 200.000 M219.800 4.422 C 220.900 4.628,223.600 4.973,225.800 5.189 C 228.000 5.404,230.610 5.760,231.600 5.979 C 232.590 6.197,234.480 6.553,235.800 6.770 C 240.025 7.462,242.315 7.953,248.000 9.385 C 249.210 9.689,251.100 10.146,252.200 10.399 C 253.300 10.652,254.767 11.116,255.460 11.430 C 256.154 11.743,257.144 12.006,257.660 12.014 C 258.177 12.022,259.050 12.286,259.600 12.600 C 260.150 12.914,260.960 13.179,261.400 13.188 C 261.840 13.197,262.683 13.457,263.273 13.765 C 263.863 14.073,264.943 14.455,265.673 14.613 C 266.403 14.772,267.355 15.149,267.789 15.451 C 268.223 15.753,268.875 16.000,269.238 16.000 C 269.601 16.000,270.776 16.375,271.849 16.833 C 272.922 17.291,274.430 17.931,275.200 18.255 C 275.970 18.578,277.078 19.104,277.662 19.422 C 278.246 19.740,278.930 20.000,279.182 20.000 C 279.583 20.000,293.204 26.638,294.800 27.611 C 295.130 27.812,297.470 29.176,300.000 30.641 C 307.441 34.951,321.679 44.769,324.000 47.191 C 324.110 47.306,325.910 48.834,328.000 50.587 C 342.706 62.920,357.636 80.271,367.700 96.726 C 369.399 99.504,369.474 99.632,371.718 103.604 C 372.773 105.472,373.795 107.270,373.990 107.600 C 374.447 108.375,378.634 116.813,378.952 117.600 C 379.086 117.930,379.360 118.470,379.562 118.800 C 379.763 119.130,380.592 121.020,381.402 123.000 C 382.213 124.980,383.104 127.140,383.382 127.800 C 383.660 128.460,384.286 130.080,384.772 131.400 C 385.258 132.720,385.913 134.391,386.228 135.114 C 386.543 135.836,386.800 136.766,386.800 137.181 C 386.800 137.596,387.051 138.445,387.358 139.068 C 387.664 139.690,388.312 141.550,388.796 143.200 C 389.281 144.850,389.931 147.010,390.241 148.000 C 390.551 148.990,390.803 150.214,390.802 150.720 C 390.801 151.226,391.046 152.126,391.346 152.720 C 391.646 153.314,392.009 154.700,392.152 155.800 C 392.295 156.900,392.672 158.520,392.989 159.400 C 393.306 160.280,393.573 161.777,393.582 162.726 C 393.592 163.676,393.792 164.812,394.027 165.251 C 394.262 165.690,394.605 167.613,394.789 169.525 C 394.972 171.436,395.303 173.720,395.524 174.600 C 397.514 182.531,397.403 219.271,395.368 226.662 C 395.056 227.795,394.796 229.595,394.790 230.662 C 394.785 231.728,394.590 233.320,394.356 234.200 C 394.122 235.080,393.778 237.004,393.592 238.476 C 393.406 239.948,393.080 241.478,392.866 241.876 C 392.653 242.274,392.349 243.500,392.190 244.600 C 392.031 245.700,391.654 247.207,391.351 247.949 C 391.048 248.691,390.801 249.681,390.802 250.149 C 390.804 250.918,390.266 252.859,389.124 256.200 C 388.898 256.860,388.505 258.210,388.251 259.200 C 387.996 260.190,387.565 261.393,387.294 261.874 C 387.022 262.354,386.799 263.074,386.798 263.474 C 386.796 263.873,386.526 264.716,386.198 265.346 C 385.869 265.976,385.600 266.692,385.600 266.938 C 385.600 267.358,384.571 270.168,383.344 273.100 C 383.045 273.815,382.561 274.985,382.268 275.700 C 381.975 276.415,381.451 277.630,381.103 278.400 C 377.930 285.414,376.228 288.947,374.261 292.600 C 371.170 298.340,370.258 299.938,368.778 302.200 C 367.915 303.520,367.025 304.960,366.800 305.400 C 366.356 306.270,364.100 309.756,362.216 312.485 C 360.777 314.569,352.194 325.806,350.977 327.200 C 344.034 335.149,335.661 343.529,327.368 350.828 C 324.318 353.513,311.264 363.218,308.265 365.030 C 307.200 365.674,305.915 366.470,305.408 366.800 C 304.555 367.355,300.810 369.672,299.266 370.600 C 295.631 372.784,287.045 377.205,282.200 379.388 C 280.880 379.983,279.170 380.754,278.400 381.103 C 277.630 381.451,276.415 381.975,275.700 382.268 C 274.985 382.561,273.815 383.045,273.100 383.344 C 270.168 384.571,267.358 385.600,266.938 385.600 C 266.692 385.600,265.976 385.869,265.346 386.198 C 264.716 386.526,263.873 386.796,263.474 386.798 C 263.074 386.799,262.354 387.022,261.874 387.294 C 261.393 387.565,260.190 387.996,259.200 388.251 C 258.210 388.505,256.860 388.898,256.200 389.124 C 252.859 390.266,250.918 390.804,250.149 390.802 C 249.681 390.801,248.691 391.048,247.949 391.351 C 247.207 391.654,245.700 392.031,244.600 392.190 C 243.500 392.349,242.274 392.653,241.876 392.866 C 241.478 393.080,239.948 393.406,238.476 393.592 C 237.004 393.778,235.080 394.122,234.200 394.356 C 233.320 394.590,231.728 394.785,230.662 394.790 C 229.595 394.796,227.795 395.056,226.662 395.368 C 219.271 397.403,182.531 397.514,174.600 395.524 C 173.720 395.303,171.436 394.972,169.525 394.789 C 167.613 394.605,165.690 394.262,165.251 394.027 C 164.812 393.792,163.676 393.592,162.726 393.582 C 161.777 393.573,160.280 393.306,159.400 392.989 C 158.520 392.672,156.900 392.295,155.800 392.152 C 154.700 392.009,153.314 391.646,152.720 391.346 C 152.126 391.046,151.226 390.801,150.720 390.802 C 150.214 390.803,148.990 390.551,148.000 390.241 C 147.010 389.931,144.850 389.281,143.200 388.796 C 141.550 388.312,139.690 387.664,139.068 387.358 C 138.445 387.051,137.596 386.800,137.181 386.800 C 136.766 386.800,135.836 386.543,135.114 386.228 C 134.391 385.913,132.720 385.258,131.400 384.772 C 130.080 384.286,128.460 383.660,127.800 383.382 C 126.258 382.732,119.985 380.148,119.200 379.841 C 118.870 379.711,118.330 379.439,118.000 379.236 C 117.670 379.033,115.330 377.849,112.800 376.605 C 110.270 375.361,107.930 374.185,107.600 373.990 C 107.270 373.795,105.472 372.773,103.604 371.718 C 101.737 370.663,99.915 369.620,99.557 369.400 C 99.198 369.180,98.296 368.659,97.552 368.243 C 83.709 360.495,62.848 342.620,50.587 328.000 C 48.834 325.910,47.306 324.110,47.191 324.000 C 44.769 321.679,34.951 307.441,30.641 300.000 C 29.176 297.470,27.812 295.130,27.611 294.800 C 26.638 293.204,20.000 279.583,20.000 279.182 C 20.000 278.930,19.737 278.246,19.416 277.662 C 18.532 276.052,17.292 273.105,16.985 271.882 C 16.834 271.283,16.551 270.694,16.356 270.573 C 16.160 270.452,16.000 269.953,16.000 269.465 C 16.000 268.977,15.753 268.223,15.451 267.789 C 15.149 267.355,14.772 266.403,14.613 265.673 C 14.455 264.943,14.073 263.863,13.765 263.273 C 13.457 262.683,13.197 261.840,13.188 261.400 C 13.179 260.960,12.914 260.150,12.600 259.600 C 12.286 259.050,12.022 258.177,12.014 257.660 C 12.006 257.144,11.743 256.154,11.430 255.460 C 11.116 254.767,10.652 253.300,10.399 252.200 C 10.146 251.100,9.689 249.210,9.385 248.000 C 7.953 242.315,7.462 240.025,6.770 235.800 C 6.553 234.480,6.197 232.590,5.979 231.600 C 5.760 230.610,5.404 228.000,5.189 225.800 C 4.973 223.600,4.628 220.900,4.422 219.800 C 3.933 217.188,3.935 183.598,4.425 181.000 C 4.632 179.900,4.972 177.140,5.180 174.868 C 5.389 172.595,5.733 170.165,5.946 169.468 C 6.158 168.770,6.447 167.071,6.587 165.691 C 6.727 164.311,7.102 162.444,7.421 161.541 C 7.739 160.638,8.000 159.304,8.000 158.576 C 8.000 157.848,8.200 156.745,8.444 156.126 C 8.688 155.507,9.141 153.920,9.449 152.600 C 10.444 148.352,11.095 145.829,11.515 144.600 C 12.664 141.235,12.901 140.476,13.256 139.016 C 13.468 138.144,13.792 137.244,13.975 137.016 C 14.158 136.787,14.435 136.003,14.592 135.273 C 14.748 134.543,15.127 133.463,15.435 132.873 C 15.743 132.283,15.997 131.620,15.999 131.400 C 16.005 130.888,17.802 126.465,18.143 126.124 C 18.284 125.983,18.400 125.634,18.400 125.349 C 18.400 124.617,25.833 108.977,27.596 106.000 C 27.791 105.670,29.394 102.944,31.158 99.942 C 47.747 71.715,71.715 47.747,99.942 31.158 C 102.944 29.394,105.670 27.791,106.000 27.596 C 108.977 25.833,124.617 18.400,125.349 18.400 C 125.634 18.400,125.983 18.284,126.124 18.143 C 126.465 17.802,130.888 16.005,131.400 15.999 C 131.620 15.997,132.283 15.743,132.873 15.435 C 133.463 15.127,134.543 14.748,135.273 14.592 C 136.003 14.435,136.787 14.158,137.016 13.975 C 137.244 13.792,138.144 13.468,139.016 13.256 C 140.518 12.890,141.498 12.586,144.500 11.552 C 145.738 11.126,147.910 10.565,152.800 9.408 C 154.010 9.122,155.507 8.688,156.126 8.444 C 156.745 8.200,157.848 8.000,158.576 8.000 C 159.304 8.000,160.638 7.739,161.541 7.421 C 162.444 7.102,164.311 6.727,165.691 6.587 C 167.071 6.447,168.770 6.158,169.468 5.946 C 170.165 5.733,172.595 5.386,174.868 5.175 C 177.140 4.963,179.810 4.635,180.800 4.445 C 183.255 3.975,217.305 3.955,219.800 4.422 M200.298 39.317 C 199.472 40.463,197.987 42.480,196.998 43.800 C 196.009 45.120,193.901 47.998,192.314 50.195 C 190.726 52.393,188.251 55.764,186.814 57.686 C 185.376 59.609,183.247 62.491,182.081 64.091 C 177.941 69.776,172.000 77.866,168.637 82.400 C 164.826 87.537,160.196 93.837,155.400 100.410 C 153.640 102.823,150.400 107.225,148.200 110.194 C 146.000 113.163,142.980 117.259,141.489 119.296 C 134.559 128.766,121.573 146.397,114.456 156.000 C 112.418 158.750,109.308 162.980,107.546 165.400 C 105.784 167.820,103.140 171.417,101.671 173.392 C 100.202 175.368,98.550 177.655,98.000 178.473 C 97.450 179.292,95.865 181.455,94.478 183.281 C 87.481 192.490,86.422 194.093,86.829 194.854 C 87.124 195.405,87.398 195.496,87.912 195.215 C 88.290 195.008,89.770 194.670,91.200 194.463 C 92.630 194.256,95.960 193.633,98.600 193.078 C 101.240 192.523,104.281 191.949,105.359 191.801 C 106.436 191.654,107.606 191.377,107.959 191.186 C 108.311 190.995,109.770 190.657,111.200 190.436 C 115.336 189.794,120.145 188.886,120.823 188.619 C 121.166 188.484,122.966 188.118,124.823 187.806 C 126.680 187.494,129.640 186.952,131.400 186.601 C 133.160 186.250,136.040 185.715,137.800 185.413 C 139.560 185.110,141.540 184.683,142.200 184.463 C 142.860 184.244,144.361 183.951,145.535 183.814 C 146.709 183.676,147.969 183.396,148.335 183.192 C 148.701 182.988,150.170 182.634,151.600 182.407 C 153.030 182.179,155.802 181.730,157.761 181.408 C 166.771 179.928,168.538 183.898,166.037 200.000 C 165.815 201.430,165.436 204.850,165.195 207.600 C 164.634 214.000,163.805 222.351,163.249 227.200 C 163.009 229.290,162.620 232.980,162.386 235.400 C 161.989 239.485,161.687 242.450,160.202 256.800 C 158.898 269.407,158.524 272.880,157.186 284.800 C 156.951 286.890,156.515 291.300,156.217 294.600 C 155.918 297.900,155.492 301.770,155.270 303.200 C 155.048 304.630,154.750 307.870,154.607 310.400 C 154.465 312.930,154.189 315.540,153.996 316.200 C 153.802 316.860,153.445 319.740,153.203 322.600 C 152.654 329.080,151.848 337.359,151.255 342.600 C 149.662 356.687,149.211 362.472,149.640 363.275 C 150.026 363.996,252.025 364.465,254.657 363.759 C 255.747 363.467,256.040 362.004,255.530 359.400 C 255.315 358.300,254.901 354.880,254.611 351.800 C 254.321 348.720,253.889 344.400,253.651 342.200 C 252.523 331.774,252.338 329.857,251.994 325.021 C 251.791 322.173,251.500 319.563,251.346 319.221 C 251.193 318.880,250.838 315.900,250.557 312.600 C 249.564 300.924,248.820 293.938,248.415 292.478 C 248.189 291.665,248.003 289.341,248.002 287.314 C 248.001 285.261,247.754 282.869,247.444 281.914 C 247.138 280.971,246.690 277.410,246.449 274.000 C 246.208 270.590,245.830 266.360,245.609 264.600 C 244.798 258.140,244.326 253.283,244.036 248.400 C 243.872 245.650,243.548 243.040,243.315 242.600 C 243.082 242.160,242.766 239.550,242.613 236.800 C 242.460 234.050,242.079 230.046,241.767 227.903 C 241.455 225.759,241.200 222.879,241.200 221.503 C 241.200 220.126,240.930 217.589,240.600 215.865 C 240.270 214.140,240.000 211.556,240.000 210.123 C 240.000 208.689,239.747 206.499,239.438 205.258 C 239.129 204.016,238.764 201.290,238.628 199.200 C 238.492 197.110,238.176 193.374,237.927 190.897 C 237.066 182.339,240.285 179.540,248.600 181.619 C 250.097 181.993,252.769 182.561,258.000 183.617 C 259.210 183.861,260.830 184.258,261.600 184.499 C 262.370 184.740,264.305 185.173,265.901 185.463 C 269.527 186.119,273.987 187.007,276.600 187.592 C 283.962 189.241,286.673 189.792,290.600 190.439 C 291.920 190.657,293.360 191.000,293.800 191.202 C 294.240 191.404,296.130 191.838,298.000 192.166 C 299.870 192.494,302.660 193.057,304.200 193.418 C 309.760 194.722,312.856 195.119,313.072 194.556 C 313.181 194.273,310.255 189.757,306.571 184.521 C 297.334 171.394,297.378 171.457,295.743 169.100 C 294.183 166.850,291.614 163.256,291.097 162.600 C 290.923 162.380,289.481 160.327,287.891 158.038 C 286.301 155.748,284.422 153.048,283.716 152.038 C 283.009 151.027,282.199 149.867,281.916 149.460 C 281.323 148.610,278.982 145.339,277.292 143.000 C 276.074 141.314,274.598 139.213,271.393 134.600 C 270.323 133.060,268.864 130.990,268.152 130.000 C 267.440 129.010,265.483 126.220,263.803 123.800 C 262.123 121.380,259.774 118.050,258.584 116.400 C 257.394 114.750,255.612 112.230,254.623 110.800 C 253.635 109.370,251.997 107.030,250.984 105.600 C 249.971 104.170,248.709 102.370,248.180 101.600 C 247.188 100.156,241.851 92.575,238.962 88.507 C 238.061 87.238,235.121 83.051,232.429 79.203 C 229.736 75.355,227.398 72.115,227.232 72.003 C 227.066 71.891,226.445 70.990,225.852 70.000 C 225.258 69.010,223.797 66.850,222.605 65.200 C 221.412 63.550,219.937 61.480,219.326 60.600 C 218.716 59.720,217.672 58.256,217.008 57.346 C 216.344 56.436,215.574 55.356,215.297 54.946 C 211.861 49.854,203.400 38.083,202.900 37.700 C 201.980 36.995,201.965 37.004,200.298 39.317 " stroke="none" fill="#fafafa" fill-rule="evenodd"></path><path id="path1" d="M180.800 4.445 C 179.810 4.635,177.140 4.963,174.868 5.175 C 172.595 5.386,170.165 5.733,169.468 5.946 C 168.770 6.158,167.071 6.447,165.691 6.587 C 164.311 6.727,162.444 7.102,161.541 7.421 C 160.638 7.739,159.304 8.000,158.576 8.000 C 157.848 8.000,156.745 8.200,156.126 8.444 C 155.507 8.688,154.010 9.122,152.800 9.408 C 147.910 10.565,145.738 11.126,144.500 11.552 C 141.498 12.586,140.518 12.890,139.016 13.256 C 138.144 13.468,137.244 13.792,137.016 13.975 C 136.787 14.158,136.003 14.435,135.273 14.592 C 134.543 14.748,133.463 15.127,132.873 15.435 C 132.283 15.743,131.620 15.997,131.400 15.999 C 130.888 16.005,126.465 17.802,126.124 18.143 C 125.983 18.284,125.634 18.400,125.349 18.400 C 124.617 18.400,108.977 25.833,106.000 27.596 C 105.670 27.791,102.944 29.394,99.942 31.158 C 71.715 47.747,47.747 71.715,31.158 99.942 C 29.394 102.944,27.791 105.670,27.596 106.000 C 25.833 108.977,18.400 124.617,18.400 125.349 C 18.400 125.634,18.284 125.983,18.143 126.124 C 17.802 126.465,16.005 130.888,15.999 131.400 C 15.997 131.620,15.743 132.283,15.435 132.873 C 15.127 133.463,14.748 134.543,14.592 135.273 C 14.435 136.003,14.158 136.787,13.975 137.016 C 13.792 137.244,13.468 138.144,13.256 139.016 C 12.901 140.476,12.664 141.235,11.515 144.600 C 11.095 145.829,10.444 148.352,9.449 152.600 C 9.141 153.920,8.688 155.507,8.444 156.126 C 8.200 156.745,8.000 157.848,8.000 158.576 C 8.000 159.304,7.739 160.638,7.421 161.541 C 7.102 162.444,6.727 164.311,6.587 165.691 C 6.447 167.071,6.158 168.770,5.946 169.468 C 5.733 170.165,5.389 172.595,5.180 174.868 C 4.972 177.140,4.632 179.900,4.425 181.000 C 3.935 183.598,3.933 217.188,4.422 219.800 C 4.628 220.900,4.973 223.600,5.189 225.800 C 5.404 228.000,5.760 230.610,5.979 231.600 C 6.197 232.590,6.553 234.480,6.770 235.800 C 7.462 240.025,7.953 242.315,9.385 248.000 C 9.689 249.210,10.146 251.100,10.399 252.200 C 10.652 253.300,11.116 254.767,11.430 255.460 C 11.743 256.154,12.006 257.144,12.014 257.660 C 12.022 258.177,12.286 259.050,12.600 259.600 C 12.914 260.150,13.179 260.960,13.188 261.400 C 13.197 261.840,13.457 262.683,13.765 263.273 C 14.073 263.863,14.455 264.943,14.613 265.673 C 14.772 266.403,15.149 267.355,15.451 267.789 C 15.753 268.223,16.000 268.977,16.000 269.465 C 16.000 269.953,16.160 270.452,16.356 270.573 C 16.551 270.694,16.834 271.283,16.985 271.882 C 17.292 273.105,18.532 276.052,19.416 277.662 C 19.737 278.246,20.000 278.930,20.000 279.182 C 20.000 279.583,26.638 293.204,27.611 294.800 C 27.812 295.130,29.176 297.470,30.641 300.000 C 34.951 307.441,44.769 321.679,47.191 324.000 C 47.306 324.110,48.834 325.910,50.587 328.000 C 62.848 342.620,83.709 360.495,97.552 368.243 C 98.296 368.659,99.198 369.180,99.557 369.400 C 99.915 369.620,101.737 370.663,103.604 371.718 C 105.472 372.773,107.270 373.795,107.600 373.990 C 107.930 374.185,110.270 375.361,112.800 376.605 C 115.330 377.849,117.670 379.033,118.000 379.236 C 118.330 379.439,118.870 379.711,119.200 379.841 C 119.985 380.148,126.258 382.732,127.800 383.382 C 128.460 383.660,130.080 384.286,131.400 384.772 C 132.720 385.258,134.391 385.913,135.114 386.228 C 135.836 386.543,136.766 386.800,137.181 386.800 C 137.596 386.800,138.445 387.051,139.068 387.358 C 139.690 387.664,141.550 388.312,143.200 388.796 C 144.850 389.281,147.010 389.931,148.000 390.241 C 148.990 390.551,150.214 390.803,150.720 390.802 C 151.226 390.801,152.126 391.046,152.720 391.346 C 153.314 391.646,154.700 392.009,155.800 392.152 C 156.900 392.295,158.520 392.672,159.400 392.989 C 160.280 393.306,161.777 393.573,162.726 393.582 C 163.676 393.592,164.812 393.792,165.251 394.027 C 165.690 394.262,167.613 394.605,169.525 394.789 C 171.436 394.972,173.720 395.303,174.600 395.524 C 182.531 397.514,219.271 397.403,226.662 395.368 C 227.795 395.056,229.595 394.796,230.662 394.790 C 231.728 394.785,233.320 394.590,234.200 394.356 C 235.080 394.122,237.004 393.778,238.476 393.592 C 239.948 393.406,241.478 393.080,241.876 392.866 C 242.274 392.653,243.500 392.349,244.600 392.190 C 245.700 392.031,247.207 391.654,247.949 391.351 C 248.691 391.048,249.681 390.801,250.149 390.802 C 250.918 390.804,252.859 390.266,256.200 389.124 C 256.860 388.898,258.210 388.505,259.200 388.251 C 260.190 387.996,261.393 387.565,261.874 387.294 C 262.354 387.022,263.074 386.799,263.474 386.798 C 263.873 386.796,264.716 386.526,265.346 386.198 C 265.976 385.869,266.692 385.600,266.938 385.600 C 267.358 385.600,270.168 384.571,273.100 383.344 C 273.815 383.045,274.985 382.561,275.700 382.268 C 276.415 381.975,277.630 381.451,278.400 381.103 C 279.170 380.754,280.880 379.983,282.200 379.388 C 287.045 377.205,295.631 372.784,299.266 370.600 C 300.810 369.672,304.555 367.355,305.408 366.800 C 305.915 366.470,307.200 365.674,308.265 365.030 C 311.264 363.218,324.318 353.513,327.368 350.828 C 335.661 343.529,344.034 335.149,350.977 327.200 C 352.194 325.806,360.777 314.569,362.216 312.485 C 364.100 309.756,366.356 306.270,366.800 305.400 C 367.025 304.960,367.915 303.520,368.778 302.200 C 371.582 297.913,375.949 289.686,379.235 282.500 C 381.269 278.051,381.711 277.061,382.268 275.700 C 382.561 274.985,383.045 273.815,383.344 273.100 C 384.571 270.168,385.600 267.358,385.600 266.938 C 385.600 266.692,385.869 265.976,386.198 265.346 C 386.526 264.716,386.796 263.873,386.798 263.474 C 386.799 263.074,387.022 262.354,387.294 261.874 C 387.565 261.393,387.996 260.190,388.251 259.200 C 388.505 258.210,388.898 256.860,389.124 256.200 C 390.266 252.859,390.804 250.918,390.802 250.149 C 390.801 249.681,391.048 248.691,391.351 247.949 C 391.654 247.207,392.031 245.700,392.190 244.600 C 392.349 243.500,392.653 242.274,392.866 241.876 C 393.080 241.478,393.406 239.948,393.592 238.476 C 393.778 237.004,394.122 235.080,394.356 234.200 C 394.590 233.320,394.785 231.728,394.790 230.662 C 394.796 229.595,395.056 227.795,395.368 226.662 C 397.403 219.271,397.514 182.531,395.524 174.600 C 395.303 173.720,394.972 171.436,394.789 169.525 C 394.605 167.613,394.262 165.690,394.027 165.251 C 393.792 164.812,393.592 163.676,393.582 162.726 C 393.573 161.777,393.306 160.280,392.989 159.400 C 392.672 158.520,392.295 156.900,392.152 155.800 C 392.009 154.700,391.646 153.314,391.346 152.720 C 391.046 152.126,390.801 151.226,390.802 150.720 C 390.803 150.214,390.551 148.990,390.241 148.000 C 389.931 147.010,389.281 144.850,388.796 143.200 C 388.312 141.550,387.664 139.690,387.358 139.068 C 387.051 138.445,386.800 137.596,386.800 137.181 C 386.800 136.766,386.543 135.836,386.228 135.114 C 385.913 134.391,385.258 132.720,384.772 131.400 C 384.286 130.080,383.660 128.460,383.382 127.800 C 383.104 127.140,382.213 124.980,381.402 123.000 C 380.592 121.020,379.763 119.130,379.562 118.800 C 379.360 118.470,379.086 117.930,378.952 117.600 C 378.634 116.813,374.447 108.375,373.990 107.600 C 373.795 107.270,372.773 105.472,371.718 103.604 C 369.474 99.632,369.399 99.504,367.700 96.726 C 357.636 80.271,342.706 62.920,328.000 50.587 C 325.910 48.834,324.110 47.306,324.000 47.191 C 321.679 44.769,307.441 34.951,300.000 30.641 C 297.470 29.176,295.130 27.812,294.800 27.611 C 293.204 26.638,279.583 20.000,279.182 20.000 C 278.930 20.000,278.246 19.740,277.662 19.422 C 277.078 19.104,275.970 18.578,275.200 18.255 C 274.430 17.931,272.922 17.291,271.849 16.833 C 270.776 16.375,269.601 16.000,269.238 16.000 C 268.875 16.000,268.223 15.753,267.789 15.451 C 267.355 15.149,266.403 14.772,265.673 14.613 C 264.943 14.455,263.863 14.073,263.273 13.765 C 262.683 13.457,261.840 13.197,261.400 13.188 C 260.960 13.179,260.150 12.914,259.600 12.600 C 259.050 12.286,258.177 12.022,257.660 12.014 C 257.144 12.006,256.154 11.743,255.460 11.430 C 254.767 11.116,253.300 10.652,252.200 10.399 C 251.100 10.146,249.210 9.689,248.000 9.385 C 242.315 7.953,240.025 7.462,235.800 6.770 C 234.480 6.553,232.590 6.197,231.600 5.979 C 230.610 5.760,228.000 5.404,225.800 5.189 C 223.600 4.973,220.900 4.628,219.800 4.422 C 217.305 3.955,183.255 3.975,180.800 4.445 M202.900 37.700 C 203.400 38.083,211.861 49.854,215.297 54.946 C 215.574 55.356,216.344 56.436,217.008 57.346 C 217.672 58.256,218.716 59.720,219.326 60.600 C 219.937 61.480,221.412 63.550,222.605 65.200 C 223.797 66.850,225.258 69.010,225.852 70.000 C 226.445 70.990,227.066 71.891,227.232 72.003 C 227.398 72.115,229.736 75.355,232.429 79.203 C 235.121 83.051,238.061 87.238,238.962 88.507 C 241.851 92.575,247.188 100.156,248.180 101.600 C 248.709 102.370,249.971 104.170,250.984 105.600 C 251.997 107.030,253.635 109.370,254.623 110.800 C 255.612 112.230,257.394 114.750,258.584 116.400 C 259.774 118.050,262.123 121.380,263.803 123.800 C 265.483 126.220,267.440 129.010,268.152 130.000 C 268.864 130.990,270.323 133.060,271.393 134.600 C 274.598 139.213,276.074 141.314,277.292 143.000 C 278.982 145.339,281.323 148.610,281.916 149.460 C 282.199 149.867,283.009 151.027,283.716 152.038 C 284.422 153.048,286.301 155.748,287.891 158.038 C 289.481 160.327,290.923 162.380,291.097 162.600 C 291.614 163.256,294.183 166.850,295.743 169.100 C 297.378 171.457,297.334 171.394,306.571 184.521 C 310.255 189.757,313.181 194.273,313.072 194.556 C 312.856 195.119,309.760 194.722,304.200 193.418 C 302.660 193.057,299.870 192.494,298.000 192.166 C 296.130 191.838,294.240 191.404,293.800 191.202 C 293.360 191.000,291.920 190.657,290.600 190.439 C 286.673 189.792,283.962 189.241,276.600 187.592 C 273.987 187.007,269.527 186.119,265.901 185.463 C 264.305 185.173,262.370 184.740,261.600 184.499 C 260.830 184.258,259.210 183.861,258.000 183.617 C 252.769 182.561,250.097 181.993,248.600 181.619 C 240.285 179.540,237.066 182.339,237.927 190.897 C 238.176 193.374,238.492 197.110,238.628 199.200 C 238.764 201.290,239.129 204.016,239.438 205.258 C 239.747 206.499,240.000 208.689,240.000 210.123 C 240.000 211.556,240.270 214.140,240.600 215.865 C 240.930 217.589,241.200 220.126,241.200 221.503 C 241.200 222.879,241.455 225.759,241.767 227.903 C 242.079 230.046,242.460 234.050,242.613 236.800 C 242.766 239.550,243.082 242.160,243.315 242.600 C 243.548 243.040,243.872 245.650,244.036 248.400 C 244.326 253.283,244.798 258.140,245.609 264.600 C 245.830 266.360,246.208 270.590,246.449 274.000 C 246.690 277.410,247.138 280.971,247.444 281.914 C 247.754 282.869,248.001 285.261,248.002 287.314 C 248.003 289.341,248.189 291.665,248.415 292.478 C 248.820 293.938,249.564 300.924,250.557 312.600 C 250.838 315.900,251.193 318.880,251.346 319.221 C 251.500 319.563,251.791 322.173,251.994 325.021 C 252.338 329.857,252.523 331.774,253.651 342.200 C 253.889 344.400,254.321 348.720,254.611 351.800 C 254.901 354.880,255.315 358.300,255.530 359.400 C 256.040 362.004,255.747 363.467,254.657 363.759 C 252.025 364.465,150.026 363.996,149.640 363.275 C 149.211 362.472,149.662 356.687,151.255 342.600 C 151.848 337.359,152.654 329.080,153.203 322.600 C 153.445 319.740,153.802 316.860,153.996 316.200 C 154.189 315.540,154.465 312.930,154.607 310.400 C 154.750 307.870,155.048 304.630,155.270 303.200 C 155.492 301.770,155.918 297.900,156.217 294.600 C 156.515 291.300,156.951 286.890,157.186 284.800 C 158.524 272.880,158.898 269.407,160.202 256.800 C 161.687 242.450,161.989 239.485,162.386 235.400 C 162.620 232.980,163.009 229.290,163.249 227.200 C 163.805 222.351,164.634 214.000,165.195 207.600 C 165.436 204.850,165.815 201.430,166.037 200.000 C 168.538 183.898,166.771 179.928,157.761 181.408 C 155.802 181.730,153.030 182.179,151.600 182.407 C 150.170 182.634,148.701 182.988,148.335 183.192 C 147.969 183.396,146.709 183.676,145.535 183.814 C 144.361 183.951,142.860 184.244,142.200 184.463 C 141.540 184.683,139.560 185.110,137.800 185.413 C 136.040 185.715,133.160 186.250,131.400 186.601 C 129.640 186.952,126.680 187.494,124.823 187.806 C 122.966 188.118,121.166 188.484,120.823 188.619 C 120.145 188.886,115.336 189.794,111.200 190.436 C 109.770 190.657,108.311 190.995,107.959 191.186 C 107.606 191.377,106.436 191.654,105.359 191.801 C 104.281 191.949,101.240 192.523,98.600 193.078 C 95.960 193.633,92.630 194.256,91.200 194.463 C 89.770 194.670,88.290 195.008,87.912 195.215 C 87.398 195.496,87.124 195.405,86.829 194.854 C 86.422 194.093,87.481 192.490,94.478 183.281 C 95.865 181.455,97.450 179.292,98.000 178.473 C 98.550 177.655,100.202 175.368,101.671 173.392 C 103.140 171.417,105.784 167.820,107.546 165.400 C 109.308 162.980,112.418 158.750,114.456 156.000 C 121.573 146.397,134.559 128.766,141.489 119.296 C 142.980 117.259,146.000 113.163,148.200 110.194 C 150.400 107.225,153.640 102.823,155.400 100.410 C 160.196 93.837,164.826 87.537,168.637 82.400 C 172.000 77.866,177.941 69.776,182.081 64.091 C 183.247 62.491,185.376 59.609,186.814 57.686 C 188.251 55.764,190.726 52.393,192.314 50.195 C 193.901 47.998,196.009 45.120,196.998 43.800 C 197.987 42.480,199.472 40.463,200.298 39.317 C 201.965 37.004,201.980 36.995,202.900 37.700 " stroke="none" fill="#040404" fill-rule="evenodd"></path></g></svg>