<svg id="svg" version="1.1" xmlns="http://www.w3.org/2000/svg" xmlns:xlink="http://www.w3.org/1999/xlink" width="400" height="400" viewBox="0, 0, 400,400"><g id="svgg"><path id="path0" d="M0.000 200.000 L 0.000 400.000 200.000 400.000 L 400.000 400.000 400.000 200.000 L 400.000 0.000 200.000 0.000 L 0.000 0.000 0.000 200.000 M212.200 3.806 C 261.966 7.130,304.997 26.544,339.816 61.380 C 372.202 93.782,390.770 132.982,396.476 181.000 C 397.193 187.026,397.188 213.373,396.469 219.600 C 392.088 257.577,379.766 289.305,358.176 318.200 C 324.914 362.716,276.848 389.864,219.600 396.469 C 213.373 397.188,187.026 397.193,181.000 396.476 C 56.480 381.678,-22.115 265.916,10.943 146.000 C 28.474 82.407,82.407 28.474,146.000 10.943 C 169.048 4.589,190.042 2.326,212.200 3.806 M89.966 69.204 C 76.102 71.551,65.960 87.141,69.803 100.200 C 71.980 107.599,70.312 105.764,119.976 155.396 C 144.189 179.593,164.000 199.484,164.000 199.596 C 164.000 199.709,144.097 219.691,119.771 244.001 C 95.444 268.310,74.774 289.280,73.837 290.600 C 58.601 312.059,82.252 339.204,105.800 327.284 C 108.400 325.968,111.843 322.629,154.100 280.439 L 199.600 235.012 244.500 279.867 C 291.340 326.659,291.098 326.434,297.099 328.895 C 315.356 336.383,335.966 315.911,329.009 297.200 C 326.924 291.592,327.002 291.676,280.066 244.700 L 235.005 199.600 280.066 154.500 C 309.506 125.035,325.607 108.637,326.510 107.200 C 340.276 85.302,314.889 59.399,292.466 72.464 C 290.779 73.447,278.630 85.329,244.899 118.985 L 199.598 164.187 154.099 118.740 L 108.600 73.293 105.200 71.639 C 100.037 69.128,95.091 68.337,89.966 69.204 " stroke="none" fill="#fbfbfb" fill-rule="evenodd"></path><path id="path1" d="M189.600 3.645 C 172.486 4.615,154.975 7.868,139.600 12.933 C 46.409 43.634,-9.819 136.199,6.042 232.800 C 20.437 320.471,90.139 385.678,181.000 396.476 C 187.026 397.193,213.373 397.188,219.600 396.469 C 240.961 394.005,257.665 389.826,275.400 382.512 C 339.231 356.184,385.267 297.400,395.151 229.600 C 396.815 218.190,397.000 215.243,397.000 200.200 C 396.999 185.168,396.836 182.597,395.159 171.200 C 380.422 71.067,290.681 -2.082,189.600 3.645 M99.000 69.400 C 100.540 69.722,103.330 70.730,105.200 71.639 L 108.600 73.293 154.099 118.740 L 199.598 164.187 244.899 118.985 C 278.630 85.329,290.779 73.447,292.466 72.464 C 314.889 59.399,340.276 85.302,326.510 107.200 C 325.607 108.637,309.506 125.035,280.066 154.500 L 235.005 199.600 280.066 244.700 C 309.506 274.165,325.607 290.563,326.510 292.000 C 340.575 314.374,314.133 340.331,291.699 326.173 C 290.143 325.190,274.889 310.225,244.500 279.867 L 199.600 235.012 154.100 280.439 C 104.599 329.861,107.528 327.168,100.800 329.446 C 83.818 335.197,64.652 316.378,69.793 299.000 C 71.952 291.703,71.123 292.616,119.771 244.001 C 144.097 219.691,164.000 199.709,164.000 199.596 C 164.000 199.484,144.189 179.593,119.976 155.396 C 70.312 105.764,71.980 107.599,69.803 100.200 C 64.843 83.345,81.528 65.744,99.000 69.400 " stroke="none" fill="#040404" fill-rule="evenodd"></path></g></svg>