<svg id="svg" version="1.1" xmlns="http://www.w3.org/2000/svg" xmlns:xlink="http://www.w3.org/1999/xlink" width="400" height="400" viewBox="0, 0, 400,400"><g id="svgg"><path id="path0" d="M186.667 3.729 C 185.383 3.880,181.333 4.319,177.667 4.705 C 42.351 18.926,-37.288 168.254,25.297 290.411 C 90.060 416.820,265.867 434.414,354.273 323.333 C 449.499 203.682,377.904 26.005,226.000 4.997 C 218.738 3.993,191.798 3.124,186.667 3.729 M208.975 88.625 C 209.187 88.969,207.654 98.402,205.568 109.586 L 201.775 129.921 199.176 130.360 C 195.920 130.910,196.764 132.726,192.186 115.333 L 188.238 100.333 158.452 100.160 L 128.667 99.986 128.667 137.424 L 128.667 174.863 150.729 174.512 C 176.726 174.098,173.792 175.363,177.604 162.927 L 180.442 153.667 183.721 153.471 L 187.000 153.275 186.895 180.138 L 186.789 207.000 183.589 207.000 L 180.389 207.000 177.476 197.333 C 173.625 184.554,176.667 185.901,150.729 185.488 L 128.667 185.137 128.667 221.521 C 128.667 263.860,127.481 258.947,138.515 262.339 C 142.815 263.661,147.083 264.973,148.000 265.256 C 149.377 265.681,149.702 266.253,149.872 268.552 L 150.077 271.333 116.735 271.333 L 83.394 271.333 82.947 268.950 C 82.366 265.857,82.267 265.922,92.000 263.038 C 96.583 261.680,100.783 260.130,101.333 259.594 C 102.419 258.536,102.912 105.724,101.842 101.918 C 101.291 99.959,100.874 99.760,90.333 96.426 L 83.000 94.106 82.795 91.391 L 82.590 88.675 130.795 88.500 C 157.308 88.403,185.657 88.251,193.794 88.162 C 202.478 88.067,208.748 88.258,208.975 88.625 M271.590 150.667 C 269.836 203.978,269.607 222.933,270.439 245.910 C 270.974 260.688,270.039 259.434,283.000 262.758 C 294.092 265.604,295.333 266.278,295.333 269.461 L 295.333 271.333 258.333 271.333 L 221.333 271.333 221.222 269.667 C 221.161 268.750,221.086 267.494,221.056 266.875 C 221.011 265.966,223.157 265.210,232.251 262.933 C 238.439 261.384,243.989 259.629,244.585 259.033 C 245.619 257.997,246.326 166.104,245.307 165.085 C 245.138 164.916,239.750 164.283,233.333 163.679 C 218.020 162.236,218.811 162.449,218.283 159.630 C 217.685 156.443,216.943 156.726,232.498 154.224 C 240.107 153.000,251.133 151.132,257.000 150.072 C 270.835 147.572,271.691 147.607,271.590 150.667 " stroke="none" fill="#000000" fill-rule="evenodd"></path></g></svg>