<svg id="svg" version="1.1" xmlns="http://www.w3.org/2000/svg" xmlns:xlink="http://www.w3.org/1999/xlink" width="400" height="400" viewBox="0, 0, 400,400"><g id="svgg"><path id="path0" d="M0.000 200.000 L 0.000 400.000 200.000 400.000 L 400.000 400.000 400.000 200.000 L 400.000 0.000 200.000 0.000 L 0.000 0.000 0.000 200.000 M215.800 4.002 C 306.899 10.937,381.856 80.812,395.159 171.200 C 396.836 182.597,396.999 185.168,397.000 200.200 C 397.000 215.243,396.815 218.190,395.151 229.600 C 390.532 261.287,377.649 292.147,358.164 318.200 C 327.067 359.781,280.328 387.756,229.600 395.151 C 218.190 396.815,215.243 397.000,200.200 397.000 C 185.173 396.999,182.616 396.837,171.200 395.160 C 84.054 382.360,14.371 310.682,4.803 224.000 C 4.573 221.910,4.301 219.660,4.200 219.000 C 1.146 199.096,5.062 163.493,12.933 139.600 C 31.125 84.379,71.433 40.714,124.822 18.392 C 153.245 6.508,184.266 1.602,215.800 4.002 M172.800 88.422 C 162.790 88.569,138.445 88.714,118.700 88.744 L 82.800 88.800 82.800 91.367 L 82.800 93.934 84.700 94.610 C 87.306 95.538,87.795 95.697,94.425 97.769 C 102.768 100.376,102.060 98.995,102.498 113.499 C 103.023 130.905,102.629 256.191,102.043 258.059 C 101.358 260.241,99.340 261.110,86.259 264.849 C 82.704 265.865,82.607 265.990,82.984 269.006 L 83.258 271.200 116.647 271.200 L 150.037 271.200 149.918 268.512 L 149.800 265.824 145.400 264.473 C 142.980 263.730,140.460 262.977,139.800 262.798 C 137.872 262.278,132.296 260.517,131.121 260.058 C 128.451 259.013,128.600 261.301,128.600 221.418 L 128.600 185.400 146.600 185.507 C 156.500 185.566,166.471 185.720,168.758 185.850 C 174.607 186.181,173.817 184.997,178.399 200.293 C 179.468 203.864,180.429 206.924,180.533 207.093 C 180.637 207.262,182.108 207.310,183.802 207.200 L 186.882 207.000 186.941 180.295 C 187.008 149.750,187.475 152.906,182.961 153.389 L 180.414 153.662 179.981 155.331 C 179.742 156.249,179.228 157.990,178.837 159.200 C 178.446 160.410,177.830 162.390,177.467 163.600 C 175.322 170.757,174.711 172.345,173.757 173.240 L 172.736 174.200 151.190 174.551 C 139.339 174.744,129.363 174.795,129.020 174.663 C 128.460 174.448,128.406 170.619,128.498 137.312 L 128.600 100.200 158.177 100.097 C 174.445 100.041,187.901 100.141,188.079 100.319 C 188.257 100.497,188.681 101.713,189.022 103.021 C 189.733 105.754,192.042 114.522,193.441 119.800 C 193.966 121.780,194.797 124.996,195.289 126.948 C 196.316 131.023,196.292 131.004,199.398 130.314 L 201.734 129.796 202.239 127.198 C 203.027 123.144,205.113 111.971,206.233 105.800 C 206.792 102.720,207.410 99.480,207.605 98.600 C 208.887 92.834,209.325 89.233,208.820 88.624 C 208.242 87.927,206.983 87.920,172.800 88.422 M263.200 147.630 C 251.731 149.808,241.549 153.832,231.109 160.314 C 225.859 163.573,226.039 162.990,228.808 167.785 C 231.590 172.601,231.046 172.403,235.632 170.263 C 256.233 160.650,276.626 162.630,286.493 175.200 C 292.453 182.794,292.811 195.287,287.372 205.927 C 282.741 214.988,270.417 227.436,254.600 239.028 C 253.721 239.672,252.821 240.332,252.600 240.494 C 252.380 240.656,251.660 241.210,251.000 241.726 C 249.176 243.152,237.863 250.917,229.894 256.212 C 224.769 259.618,222.839 261.111,222.969 261.567 C 223.069 261.915,223.258 263.640,223.391 265.400 C 223.523 267.160,223.723 269.185,223.834 269.900 L 224.036 271.200 276.991 271.200 C 327.079 271.200,329.957 271.162,330.154 270.500 C 330.269 270.115,330.550 266.470,330.780 262.400 C 331.010 258.330,331.378 252.480,331.598 249.400 C 332.322 239.247,332.806 231.423,332.803 229.895 L 332.800 228.391 331.100 228.631 C 327.634 229.122,326.783 229.575,326.013 231.342 C 325.615 232.254,324.354 234.980,323.211 237.400 C 322.068 239.820,320.764 242.610,320.315 243.600 C 319.865 244.590,318.897 246.705,318.162 248.300 L 316.827 251.200 284.590 251.200 C 264.857 251.200,252.442 251.056,252.582 250.829 C 252.709 250.624,256.364 248.252,260.706 245.556 C 284.196 230.972,297.756 220.467,306.317 210.220 C 326.455 186.115,320.418 157.598,293.400 149.213 C 285.237 146.679,271.890 145.980,263.200 147.630 " stroke="none" fill="#fbfbfb" fill-rule="evenodd"></path><path id="path1" d="M190.000 3.602 C 166.827 4.969,145.174 9.883,124.822 18.392 C 64.465 43.628,20.110 97.350,7.409 160.600 C 3.627 179.436,2.177 205.818,4.200 219.000 C 4.301 219.660,4.573 221.910,4.803 224.000 C 12.289 291.814,57.781 353.029,121.386 380.874 C 139.924 388.990,158.158 393.762,181.000 396.476 C 187.026 397.193,213.373 397.188,219.600 396.469 C 240.961 394.005,257.665 389.826,275.400 382.512 C 339.220 356.188,385.269 297.389,395.151 229.600 C 396.815 218.190,397.000 215.243,397.000 200.200 C 396.999 185.168,396.836 182.597,395.159 171.200 C 380.463 71.346,290.293 -2.316,190.000 3.602 M208.820 88.624 C 209.325 89.233,208.887 92.834,207.605 98.600 C 207.410 99.480,206.792 102.720,206.233 105.800 C 205.113 111.971,203.027 123.144,202.239 127.198 L 201.734 129.796 199.398 130.314 C 196.292 131.004,196.316 131.023,195.289 126.948 C 194.797 124.996,193.966 121.780,193.441 119.800 C 192.042 114.522,189.733 105.754,189.022 103.021 C 188.681 101.713,188.257 100.497,188.079 100.319 C 187.901 100.141,174.445 100.041,158.177 100.097 L 128.600 100.200 128.498 137.312 C 128.406 170.619,128.460 174.448,129.020 174.663 C 129.363 174.795,139.339 174.744,151.190 174.551 L 172.736 174.200 173.757 173.240 C 174.711 172.345,175.322 170.757,177.467 163.600 C 177.830 162.390,178.446 160.410,178.837 159.200 C 179.228 157.990,179.742 156.249,179.981 155.331 L 180.414 153.662 182.961 153.389 C 187.475 152.906,187.008 149.750,186.941 180.295 L 186.882 207.000 183.802 207.200 C 182.108 207.310,180.637 207.262,180.533 207.093 C 180.429 206.924,179.468 203.864,178.399 200.293 C 173.817 184.997,174.607 186.181,168.758 185.850 C 166.471 185.720,156.500 185.566,146.600 185.507 L 128.600 185.400 128.600 221.418 C 128.600 261.301,128.451 259.013,131.121 260.058 C 132.296 260.517,137.872 262.278,139.800 262.798 C 140.460 262.977,142.980 263.730,145.400 264.473 L 149.800 265.824 149.918 268.512 L 150.037 271.200 116.647 271.200 L 83.258 271.200 82.984 269.006 C 82.607 265.990,82.704 265.865,86.259 264.849 C 99.340 261.110,101.358 260.241,102.043 258.059 C 102.629 256.191,103.023 130.905,102.498 113.499 C 102.060 98.995,102.768 100.376,94.425 97.769 C 87.795 95.697,87.306 95.538,84.700 94.610 L 82.800 93.934 82.800 91.367 L 82.800 88.800 118.700 88.744 C 138.445 88.714,162.790 88.569,172.800 88.422 C 206.983 87.920,208.242 87.927,208.820 88.624 M286.601 147.572 C 306.915 151.492,317.974 163.127,317.994 180.600 C 318.018 202.612,303.668 218.883,260.706 245.556 C 256.364 248.252,252.709 250.624,252.582 250.829 C 252.442 251.056,264.857 251.200,284.590 251.200 L 316.827 251.200 318.162 248.300 C 318.897 246.705,319.865 244.590,320.315 243.600 C 320.764 242.610,322.068 239.820,323.211 237.400 C 324.354 234.980,325.615 232.254,326.013 231.342 C 326.783 229.575,327.634 229.122,331.100 228.631 L 332.800 228.391 332.803 229.895 C 332.806 231.423,332.322 239.247,331.598 249.400 C 331.378 252.480,331.010 258.330,330.780 262.400 C 330.550 266.470,330.269 270.115,330.154 270.500 C 329.957 271.162,327.079 271.200,276.991 271.200 L 224.036 271.200 223.834 269.900 C 223.723 269.185,223.523 267.160,223.391 265.400 C 223.258 263.640,223.069 261.915,222.969 261.567 C 222.839 261.111,224.769 259.618,229.894 256.212 C 237.863 250.917,249.176 243.152,251.000 241.726 C 251.660 241.210,252.380 240.656,252.600 240.494 C 252.821 240.332,253.721 239.672,254.600 239.028 C 270.417 227.436,282.741 214.988,287.372 205.927 C 292.811 195.287,292.453 182.794,286.493 175.200 C 276.626 162.630,256.233 160.650,235.632 170.263 C 231.046 172.403,231.590 172.601,228.808 167.785 C 226.039 162.990,225.859 163.573,231.109 160.314 C 249.142 149.118,269.907 144.350,286.601 147.572 " stroke="none" fill="#040404" fill-rule="evenodd"></path></g></svg>