<svg id="svg" version="1.1" xmlns="http://www.w3.org/2000/svg" xmlns:xlink="http://www.w3.org/1999/xlink" width="400" height="400" viewBox="0, 0, 400,400"><g id="svgg"><path id="path0" d="M186.667 3.729 C 185.383 3.880,181.333 4.319,177.667 4.705 C 42.351 18.926,-37.288 168.254,25.297 290.411 C 90.060 416.820,265.867 434.414,354.273 323.333 C 449.499 203.682,377.904 26.005,226.000 4.997 C 218.738 3.993,191.798 3.124,186.667 3.729 M208.975 88.625 C 209.187 88.969,207.654 98.402,205.568 109.586 L 201.775 129.921 199.176 130.360 C 195.920 130.910,196.764 132.726,192.186 115.333 L 188.238 100.333 158.452 100.160 L 128.667 99.986 128.667 137.424 L 128.667 174.863 150.729 174.512 C 176.726 174.098,173.792 175.363,177.604 162.927 L 180.442 153.667 183.721 153.471 L 187.000 153.275 186.895 180.138 L 186.789 207.000 183.589 207.000 L 180.389 207.000 177.476 197.333 C 173.625 184.554,176.667 185.901,150.729 185.488 L 128.667 185.137 128.667 221.521 C 128.667 263.860,127.481 258.947,138.515 262.339 C 142.815 263.661,147.083 264.973,148.000 265.256 C 149.377 265.681,149.702 266.253,149.872 268.552 L 150.077 271.333 116.735 271.333 L 83.394 271.333 82.947 268.950 C 82.366 265.857,82.267 265.922,92.000 263.038 C 96.583 261.680,100.783 260.130,101.333 259.594 C 102.419 258.536,102.912 105.724,101.842 101.918 C 101.291 99.959,100.874 99.760,90.333 96.426 L 83.000 94.106 82.795 91.391 L 82.590 88.675 130.795 88.500 C 157.308 88.403,185.657 88.251,193.794 88.162 C 202.478 88.067,208.748 88.258,208.975 88.625 M288.333 148.605 C 308.505 153.953,319.667 165.836,319.667 181.965 C 319.667 200.541,307.867 213.814,282.833 223.398 C 277.471 225.451,277.578 225.718,283.963 226.211 C 314.808 228.589,333.477 251.038,326.688 277.585 C 318.995 307.664,281.325 327.276,225.273 330.384 C 215.772 330.911,216.421 331.264,215.656 325.148 L 215.191 321.421 217.429 321.071 C 218.660 320.878,221.767 320.542,224.333 320.323 C 271.357 316.313,300.112 297.380,300.254 270.333 C 300.380 246.243,281.340 232.941,251.069 235.972 C 246.646 236.415,242.834 236.897,242.598 237.042 C 242.074 237.366,241.351 233.228,241.341 229.846 C 241.332 227.071,240.940 227.268,249.000 226.004 C 281.198 220.955,298.594 201.673,290.491 180.017 C 283.728 161.941,253.513 157.547,227.099 170.797 C 224.954 171.873,223.123 172.659,223.030 172.544 C 221.993 171.248,218.000 164.494,218.000 164.035 C 218.000 162.300,235.530 153.491,244.667 150.634 C 258.484 146.315,276.531 145.476,288.333 148.605 " stroke="none" fill="#000000" fill-rule="evenodd"></path></g></svg>