<svg id="svg" version="1.1" xmlns="http://www.w3.org/2000/svg" xmlns:xlink="http://www.w3.org/1999/xlink" width="400" height="400" viewBox="0, 0, 400,400"><g id="svgg"><path id="path0" d="M0.000 200.000 L 0.000 400.000 200.000 400.000 L 400.000 400.000 400.000 200.000 L 400.000 0.000 200.000 0.000 L 0.000 0.000 0.000 200.000 M215.800 4.002 C 306.899 10.937,381.856 80.812,395.159 171.200 C 396.836 182.597,396.999 185.168,397.000 200.200 C 397.000 215.243,396.815 218.190,395.151 229.600 C 390.532 261.287,377.649 292.147,358.164 318.200 C 327.067 359.781,280.328 387.756,229.600 395.151 C 218.190 396.815,215.243 397.000,200.200 397.000 C 185.173 396.999,182.616 396.837,171.200 395.160 C 84.054 382.360,14.371 310.682,4.803 224.000 C 4.573 221.910,4.301 219.660,4.200 219.000 C 1.146 199.096,5.062 163.493,12.933 139.600 C 31.125 84.379,71.433 40.714,124.822 18.392 C 153.245 6.508,184.266 1.602,215.800 4.002 M172.800 88.422 C 162.790 88.569,138.445 88.714,118.700 88.744 L 82.800 88.800 82.800 91.367 L 82.800 93.934 84.700 94.610 C 87.306 95.538,87.795 95.697,94.425 97.769 C 102.768 100.376,102.060 98.995,102.498 113.499 C 103.023 130.905,102.629 256.191,102.043 258.059 C 101.358 260.241,99.340 261.110,86.259 264.849 C 82.704 265.865,82.607 265.990,82.984 269.006 L 83.258 271.200 116.647 271.200 L 150.037 271.200 149.918 268.512 L 149.800 265.824 145.400 264.473 C 142.980 263.730,140.460 262.977,139.800 262.798 C 137.872 262.278,132.296 260.517,131.121 260.058 C 128.451 259.013,128.600 261.301,128.600 221.418 L 128.600 185.400 146.600 185.507 C 156.500 185.566,166.471 185.720,168.758 185.850 C 174.607 186.181,173.817 184.997,178.399 200.293 C 179.468 203.864,180.429 206.924,180.533 207.093 C 180.637 207.262,182.108 207.310,183.802 207.200 L 186.882 207.000 186.941 180.295 C 187.008 149.750,187.475 152.906,182.961 153.389 L 180.414 153.662 179.981 155.331 C 179.742 156.249,179.228 157.990,178.837 159.200 C 178.446 160.410,177.830 162.390,177.467 163.600 C 175.322 170.757,174.711 172.345,173.757 173.240 L 172.736 174.200 151.190 174.551 C 139.339 174.744,129.363 174.795,129.020 174.663 C 128.460 174.448,128.406 170.619,128.498 137.312 L 128.600 100.200 158.177 100.097 C 174.445 100.041,187.901 100.141,188.079 100.319 C 188.257 100.497,188.681 101.713,189.022 103.021 C 189.733 105.754,192.042 114.522,193.441 119.800 C 193.966 121.780,194.797 124.996,195.289 126.948 C 196.316 131.023,196.292 131.004,199.398 130.314 L 201.734 129.796 202.239 127.198 C 203.027 123.144,205.113 111.971,206.233 105.800 C 206.792 102.720,207.410 99.480,207.605 98.600 C 208.887 92.834,209.325 89.233,208.820 88.624 C 208.242 87.927,206.983 87.920,172.800 88.422 M257.600 147.594 C 253.102 148.334,252.880 148.383,247.400 149.863 C 237.904 152.429,218.000 161.988,218.000 163.983 C 218.000 165.053,222.974 172.446,223.570 172.262 C 223.917 172.155,226.180 171.174,228.600 170.082 C 232.426 168.355,236.233 166.945,240.600 165.639 C 241.914 165.246,245.937 164.348,250.000 163.542 C 267.914 159.988,285.790 167.531,290.851 180.780 C 297.808 198.995,283.923 217.636,258.628 224.041 C 253.465 225.348,248.072 226.385,244.512 226.757 C 241.092 227.113,241.081 227.133,241.579 231.983 C 241.811 234.239,242.000 236.271,242.000 236.499 C 242.000 236.772,242.854 236.814,244.500 236.623 C 278.963 232.609,297.879 242.766,300.330 266.600 C 300.705 270.252,300.669 271.200,299.965 276.200 C 297.108 296.483,275.070 312.112,240.800 318.159 C 232.221 319.673,228.386 320.161,220.271 320.772 C 217.890 320.951,215.786 321.256,215.595 321.449 C 215.176 321.872,216.257 330.017,216.805 330.565 C 217.209 330.969,229.609 330.328,236.200 329.563 C 243.942 328.664,249.487 327.942,251.400 327.584 C 252.500 327.379,255.020 326.919,257.000 326.562 C 291.698 320.307,318.357 302.830,325.586 281.600 C 327.831 275.005,328.802 264.163,327.570 259.446 C 326.146 253.998,325.744 252.768,324.678 250.600 C 319.811 240.703,310.424 232.934,298.838 229.213 C 294.062 227.679,285.568 226.000,282.583 226.000 C 277.512 226.000,277.436 225.349,282.304 223.602 C 299.847 217.305,313.004 206.601,317.705 194.800 C 325.328 175.663,315.288 157.668,292.690 149.964 C 283.579 146.858,268.344 145.829,257.600 147.594 " stroke="none" fill="#fbfbfb" fill-rule="evenodd"></path><path id="path1" d="M190.000 3.602 C 166.827 4.969,145.174 9.883,124.822 18.392 C 64.465 43.628,20.110 97.350,7.409 160.600 C 3.627 179.436,2.177 205.818,4.200 219.000 C 4.301 219.660,4.573 221.910,4.803 224.000 C 12.289 291.814,57.781 353.029,121.386 380.874 C 139.924 388.990,158.158 393.762,181.000 396.476 C 187.026 397.193,213.373 397.188,219.600 396.469 C 240.961 394.005,257.665 389.826,275.400 382.512 C 339.220 356.188,385.269 297.389,395.151 229.600 C 396.815 218.190,397.000 215.243,397.000 200.200 C 396.999 185.168,396.836 182.597,395.159 171.200 C 380.463 71.346,290.293 -2.316,190.000 3.602 M208.820 88.624 C 209.325 89.233,208.887 92.834,207.605 98.600 C 207.410 99.480,206.792 102.720,206.233 105.800 C 205.113 111.971,203.027 123.144,202.239 127.198 L 201.734 129.796 199.398 130.314 C 196.292 131.004,196.316 131.023,195.289 126.948 C 194.797 124.996,193.966 121.780,193.441 119.800 C 192.042 114.522,189.733 105.754,189.022 103.021 C 188.681 101.713,188.257 100.497,188.079 100.319 C 187.901 100.141,174.445 100.041,158.177 100.097 L 128.600 100.200 128.498 137.312 C 128.406 170.619,128.460 174.448,129.020 174.663 C 129.363 174.795,139.339 174.744,151.190 174.551 L 172.736 174.200 173.757 173.240 C 174.711 172.345,175.322 170.757,177.467 163.600 C 177.830 162.390,178.446 160.410,178.837 159.200 C 179.228 157.990,179.742 156.249,179.981 155.331 L 180.414 153.662 182.961 153.389 C 187.475 152.906,187.008 149.750,186.941 180.295 L 186.882 207.000 183.802 207.200 C 182.108 207.310,180.637 207.262,180.533 207.093 C 180.429 206.924,179.468 203.864,178.399 200.293 C 173.817 184.997,174.607 186.181,168.758 185.850 C 166.471 185.720,156.500 185.566,146.600 185.507 L 128.600 185.400 128.600 221.418 C 128.600 261.301,128.451 259.013,131.121 260.058 C 132.296 260.517,137.872 262.278,139.800 262.798 C 140.460 262.977,142.980 263.730,145.400 264.473 L 149.800 265.824 149.918 268.512 L 150.037 271.200 116.647 271.200 L 83.258 271.200 82.984 269.006 C 82.607 265.990,82.704 265.865,86.259 264.849 C 99.340 261.110,101.358 260.241,102.043 258.059 C 102.629 256.191,103.023 130.905,102.498 113.499 C 102.060 98.995,102.768 100.376,94.425 97.769 C 87.795 95.697,87.306 95.538,84.700 94.610 L 82.800 93.934 82.800 91.367 L 82.800 88.800 118.700 88.744 C 138.445 88.714,162.790 88.569,172.800 88.422 C 206.983 87.920,208.242 87.927,208.820 88.624 M282.800 147.600 C 290.563 149.059,292.989 149.796,298.604 152.402 C 317.153 161.011,324.589 177.517,317.705 194.800 C 313.004 206.601,299.847 217.305,282.304 223.602 C 277.436 225.349,277.512 226.000,282.583 226.000 C 285.568 226.000,294.062 227.679,298.838 229.213 C 310.424 232.934,319.811 240.703,324.678 250.600 C 325.744 252.768,326.146 253.998,327.570 259.446 C 328.802 264.163,327.831 275.005,325.586 281.600 C 318.357 302.830,291.698 320.307,257.000 326.562 C 255.020 326.919,252.500 327.379,251.400 327.584 C 249.487 327.942,243.942 328.664,236.200 329.563 C 229.609 330.328,217.209 330.969,216.805 330.565 C 216.257 330.017,215.176 321.872,215.595 321.449 C 215.786 321.256,217.890 320.951,220.271 320.772 C 232.316 319.865,241.441 318.392,252.600 315.555 C 279.712 308.661,297.471 293.906,299.965 276.200 C 300.669 271.200,300.705 270.252,300.330 266.600 C 297.879 242.766,278.963 232.609,244.500 236.623 C 242.854 236.814,242.000 236.772,242.000 236.499 C 242.000 236.271,241.811 234.239,241.579 231.983 C 241.081 227.133,241.092 227.113,244.512 226.757 C 248.072 226.385,253.465 225.348,258.628 224.041 C 283.923 217.636,297.808 198.995,290.851 180.780 C 285.790 167.531,267.914 159.988,250.000 163.542 C 245.937 164.348,241.914 165.246,240.600 165.639 C 236.233 166.945,232.426 168.355,228.600 170.082 C 226.180 171.174,223.917 172.155,223.570 172.262 C 222.974 172.446,218.000 165.053,218.000 163.983 C 218.000 163.347,223.176 160.170,229.326 157.032 C 237.000 153.117,242.916 150.933,252.200 148.588 C 259.682 146.698,275.314 146.193,282.800 147.600 " stroke="none" fill="#040404" fill-rule="evenodd"></path></g></svg>