<svg id="svg" version="1.1" xmlns="http://www.w3.org/2000/svg" xmlns:xlink="http://www.w3.org/1999/xlink" width="400" height="400" viewBox="0, 0, 400,400"><g id="svgg"><path id="path0" d="M186.667 3.729 C 185.383 3.880,181.333 4.319,177.667 4.705 C 42.351 18.926,-37.288 168.254,25.297 290.411 C 90.060 416.820,265.867 434.414,354.273 323.333 C 449.499 203.682,377.904 26.005,226.000 4.997 C 218.738 3.993,191.798 3.124,186.667 3.729 M165.419 102.377 C 170.242 104.821,174.225 109.075,175.913 113.587 L 177.333 117.383 177.333 199.667 L 177.333 281.950 175.897 285.788 C 169.425 303.086,144.971 303.732,136.570 286.826 L 135.000 283.667 134.826 201.364 C 134.631 109.796,134.393 114.947,139.130 108.491 C 144.723 100.868,156.868 98.044,165.419 102.377 M254.085 102.377 C 258.909 104.821,262.892 109.075,264.580 113.587 L 266.000 117.383 266.000 199.667 L 266.000 281.950 264.564 285.788 C 258.092 303.086,233.638 303.732,225.237 286.826 L 223.667 283.667 223.492 201.364 C 223.298 109.796,223.059 114.947,227.797 108.491 C 233.390 100.868,245.535 98.044,254.085 102.377 " stroke="none" fill="#000000" fill-rule="evenodd"></path></g></svg>