<svg id="svg" version="1.1" xmlns="http://www.w3.org/2000/svg" xmlns:xlink="http://www.w3.org/1999/xlink" width="400" height="226.50602409638554" viewBox="0, 0, 400,226.50602409638554"><g id="svgg"><path id="path0" d="M121.286 35.910 C 121.285 37.410,122.149 37.940,126.896 39.354 C 134.689 41.675,134.137 37.583,134.137 92.966 C 134.137 148.264,134.759 143.700,126.908 145.965 C 122.714 147.174,121.636 147.818,121.430 149.237 L 121.173 151.004 139.502 151.205 C 173.454 151.577,180.020 150.929,189.855 146.235 C 217.037 133.262,213.907 93.979,185.272 88.715 L 182.190 88.149 186.973 85.778 C 210.547 74.093,209.776 44.120,185.692 35.966 C 180.499 34.207,179.343 34.147,150.804 34.142 L 121.287 34.137 121.286 35.910 M175.662 43.818 C 188.933 50.311,189.172 74.462,176.044 82.423 C 171.145 85.394,168.430 85.923,158.032 85.935 L 150.201 85.944 150.201 63.492 L 150.201 41.041 155.221 40.801 C 163.495 40.407,170.934 41.505,175.662 43.818 M333.065 53.420 C 328.356 54.713,329.294 53.226,325.994 64.632 C 322.864 75.451,323.047 75.277,314.659 75.422 C 310.076 75.501,309.208 76.162,310.668 78.458 C 310.999 78.979,313.692 80.014,316.652 80.757 L 322.033 82.109 322.261 111.938 C 322.520 145.666,322.570 145.961,328.782 150.072 C 332.646 152.629,342.026 153.424,349.356 151.817 C 363.672 148.677,372.325 141.333,360.040 142.749 C 338.485 145.233,338.156 144.726,338.154 109.036 L 338.153 82.731 351.004 82.731 L 363.855 82.731 363.855 78.715 L 363.855 74.699 351.004 74.699 L 338.153 74.699 338.153 63.454 C 338.153 57.269,337.882 52.241,337.550 52.281 C 337.219 52.320,335.200 52.833,333.065 53.420 M39.020 73.454 L 31.856 75.233 32.055 133.797 C 32.165 166.008,32.363 192.470,32.496 192.603 C 32.721 192.828,45.974 191.233,47.818 190.759 C 48.384 190.613,48.341 187.512,47.683 181.016 C 46.362 167.976,45.429 147.791,46.147 147.791 C 46.470 147.791,47.662 148.521,48.795 149.412 C 56.866 155.761,71.811 153.545,79.449 144.868 L 82.429 141.482 83.379 145.034 C 85.632 153.457,92.489 154.931,108.635 150.464 C 115.535 148.555,115.421 145.731,108.423 145.225 C 97.943 144.467,97.919 144.367,98.183 102.264 C 98.285 85.838,98.194 72.224,97.980 72.010 C 97.766 71.796,94.157 72.445,89.960 73.452 L 82.329 75.284 82.603 104.510 L 82.877 133.735 80.193 136.255 C 72.843 143.159,58.993 144.452,52.591 138.831 C 47.567 134.420,47.192 131.542,47.497 99.783 C 47.667 82.023,47.479 71.951,46.974 71.843 C 46.540 71.751,42.961 72.475,39.020 73.454 M253.815 72.332 C 211.194 79.707,211.414 146.119,254.081 152.745 C 284.005 157.392,307.305 130.775,300.093 100.184 C 295.296 79.840,276.343 68.434,253.815 72.332 M270.675 80.639 C 288.522 89.435,288.903 135.442,271.207 144.779 C 257.864 151.819,243.641 142.047,240.107 123.411 C 234.307 92.829,250.223 70.560,270.675 80.639 M174.245 94.436 C 195.924 100.874,195.950 136.229,174.281 143.227 C 170.082 144.583,155.920 145.120,152.008 144.072 L 150.201 143.588 150.201 118.429 L 150.201 93.270 153.213 92.911 C 158.055 92.335,170.113 93.209,174.245 94.436 " stroke="none" fill="#000000" fill-rule="evenodd"></path></g></svg>