<svg id="svg" version="1.1" xmlns="http://www.w3.org/2000/svg" xmlns:xlink="http://www.w3.org/1999/xlink" width="400" height="248.42105263157896" viewBox="0, 0, 400,248.42105263157896"><g id="svgg"><path id="path0" d="M275.998 68.270 C 267.292 70.252,266.278 71.373,271.579 73.158 L 275.263 74.398 275.541 108.389 C 275.838 144.711,275.858 144.565,270.433 145.650 C 263.671 147.003,268.869 148.421,280.588 148.421 C 292.535 148.421,295.402 147.488,289.632 145.476 C 285.899 144.175,285.263 140.529,285.263 120.416 C 285.263 104.593,285.053 105.002,293.868 103.680 C 306.997 101.712,309.474 105.556,309.474 127.897 L 309.474 144.320 306.316 145.421 C 300.380 147.490,303.156 148.421,315.263 148.421 C 327.861 148.421,329.718 147.730,323.947 145.190 L 320.526 143.684 320.000 125.073 C 319.236 98.071,311.980 91.316,292.392 99.371 L 286.363 101.851 285.662 98.113 C 285.277 96.057,285.278 88.062,285.665 80.346 C 286.220 69.282,286.085 66.337,285.027 66.418 C 284.288 66.474,280.226 67.307,275.998 68.270 M85.526 72.300 C 75.909 72.706,72.773 74.186,78.924 75.416 C 84.258 76.483,84.260 76.496,83.963 111.179 L 83.684 143.684 80.047 144.860 C 71.150 147.736,75.071 148.597,95.444 148.241 C 125.926 147.710,135.870 140.226,132.187 120.591 C 131.545 117.167,125.232 109.474,123.065 109.474 C 122.612 109.474,120.925 108.973,119.315 108.361 L 116.388 107.248 120.531 104.924 C 126.706 101.460,129.475 96.708,129.470 89.581 C 129.460 74.326,120.546 70.821,85.526 72.300 M111.714 78.491 C 117.358 81.409,119.548 90.847,116.355 98.489 C 114.400 103.169,108.026 106.260,100.263 106.293 L 94.737 106.316 94.737 91.579 L 94.737 76.842 101.631 76.842 C 105.831 76.842,109.772 77.487,111.714 78.491 M212.511 84.909 C 211.446 85.193,210.125 87.899,208.973 92.155 L 207.135 98.947 203.041 98.947 C 197.780 98.947,197.435 101.587,202.569 102.550 L 206.191 103.230 206.517 123.814 L 206.842 144.397 209.796 146.935 C 213.427 150.056,220.976 150.263,228.947 147.460 C 237.091 144.596,236.439 142.554,227.514 142.977 C 217.032 143.473,216.842 143.088,216.842 121.345 L 216.842 104.211 225.263 104.211 C 233.544 104.211,233.684 104.167,233.684 101.579 C 233.684 98.991,233.544 98.947,225.263 98.947 L 216.842 98.947 216.842 91.579 C 216.842 84.076,216.663 83.800,212.511 84.909 M15.926 98.847 C 7.837 100.659,7.278 102.038,13.953 103.714 L 16.842 104.439 16.842 121.201 C 16.842 140.206,17.772 143.936,23.358 147.341 C 28.489 150.470,37.814 150.226,45.242 146.768 C 48.814 145.106,51.154 144.515,51.389 145.218 C 52.754 149.316,58.512 150.617,65.106 148.318 C 69.292 146.859,69.324 145.629,65.200 144.723 C 60.315 143.650,59.810 140.911,60.188 117.558 L 60.526 96.695 57.895 97.258 C 56.447 97.568,52.291 98.396,48.659 99.097 C 41.746 100.433,40.699 101.963,45.768 103.319 C 50.267 104.522,50.493 105.481,50.510 123.475 L 50.526 140.107 46.876 141.633 C 30.828 148.338,25.513 140.555,26.585 111.918 C 27.230 94.671,28.364 96.061,15.926 98.847 M156.273 99.334 C 137.015 108.301,136.377 138.734,155.263 147.478 C 165.047 152.008,180.673 148.708,186.670 140.846 C 204.449 117.535,182.260 87.232,156.273 99.334 M338.158 98.776 C 329.444 100.649,328.796 101.502,334.737 103.282 L 338.947 104.544 338.947 121.253 C 338.947 140.202,339.880 143.938,345.463 147.341 C 350.594 150.470,359.919 150.226,367.347 146.768 C 370.919 145.106,373.260 144.515,373.494 145.218 C 374.860 149.316,380.617 150.617,387.211 148.318 C 391.397 146.859,391.429 145.629,387.305 144.723 C 382.448 143.656,381.949 140.945,382.309 117.597 L 382.632 96.695 380.000 97.258 C 378.553 97.568,374.396 98.396,370.764 99.097 C 363.852 100.433,362.804 101.963,367.874 103.319 C 372.372 104.522,372.598 105.481,372.615 123.475 L 372.632 140.107 368.981 141.633 C 352.969 148.323,347.754 140.742,348.617 112.033 C 349.017 98.732,348.870 96.860,347.432 96.989 C 346.529 97.070,342.355 97.874,338.158 98.776 M174.799 103.898 C 187.446 114.540,182.748 145.263,168.474 145.263 C 158.749 145.263,153.841 138.977,152.924 125.349 C 151.615 105.889,163.414 94.319,174.799 103.898 M114.519 113.324 C 128.655 123.686,120.134 144.720,102.105 143.969 L 95.263 143.684 94.973 126.968 L 94.682 110.253 103.176 110.744 C 109.422 111.106,112.424 111.789,114.519 113.324 M247.789 137.648 C 247.152 138.073,246.065 139.496,245.373 140.810 C 241.963 147.284,252.321 153.087,256.340 146.953 C 259.979 141.400,253.207 134.030,247.789 137.648 " stroke="none" fill="#000000" fill-rule="evenodd"></path></g></svg>