<svg id="svg" version="1.1" xmlns="http://www.w3.org/2000/svg" xmlns:xlink="http://www.w3.org/1999/xlink" width="400" height="400" viewBox="0, 0, 400,400"><g id="svgg"><path id="path0" d="M186.667 3.729 C 185.383 3.880,181.333 4.319,177.667 4.705 C 71.605 15.851,-8.589 116.812,4.537 222.667 C 24.872 386.648,223.040 455.723,339.381 339.381 C 454.617 224.145,387.902 27.387,226.000 4.997 C 218.738 3.993,191.798 3.124,186.667 3.729 M182.667 39.262 C 189.010 41.899,188.944 41.545,189.216 73.953 C 189.347 89.562,189.652 102.518,189.894 102.745 C 190.136 102.971,194.833 103.788,200.333 104.561 C 296.116 118.016,358.360 210.711,334.256 304.000 C 330.533 318.408,318.247 346.999,317.941 341.967 C 313.804 273.951,259.349 216.431,193.833 210.874 L 189.333 210.492 189.254 232.746 C 189.143 264.196,188.994 267.240,187.471 269.298 C 184.472 273.349,179.416 275.039,175.210 273.397 C 171.932 272.117,57.519 177.020,44.559 164.803 C 35.994 156.729,36.851 153.962,51.897 141.106 C 74.260 121.998,147.658 60.767,168.156 44.120 C 175.778 37.929,177.818 37.246,182.667 39.262 " stroke="none" fill="#000000" fill-rule="evenodd"></path></g></svg>