<svg id="svg" version="1.1" xmlns="http://www.w3.org/2000/svg" xmlns:xlink="http://www.w3.org/1999/xlink" width="400" height="400" viewBox="0, 0, 400,400"><g id="svgg"><path id="path0" d="M0.000 200.000 L 0.000 400.000 200.000 400.000 L 400.000 400.000 400.000 200.000 L 400.000 0.000 200.000 0.000 L 0.000 0.000 0.000 200.000 M212.200 3.806 C 261.966 7.130,304.997 26.544,339.816 61.380 C 372.202 93.782,390.770 132.982,396.476 181.000 C 397.193 187.026,397.188 213.373,396.469 219.600 C 392.088 257.577,379.766 289.305,358.176 318.200 C 324.914 362.716,276.848 389.864,219.600 396.469 C 213.373 397.188,187.026 397.193,181.000 396.476 C 56.480 381.678,-22.115 265.916,10.943 146.000 C 28.474 82.407,82.407 28.474,146.000 10.943 C 169.048 4.589,190.042 2.326,212.200 3.806 M175.780 38.672 C 175.015 38.824,169.113 43.256,164.587 47.078 C 163.494 48.001,159.180 51.562,155.000 54.991 C 150.820 58.420,145.690 62.649,143.600 64.390 C 141.510 66.130,133.050 73.162,124.800 80.016 C 116.550 86.870,106.125 95.565,101.634 99.339 C 97.143 103.113,92.553 106.954,91.434 107.875 C 84.444 113.631,66.163 128.973,53.200 139.964 C 39.502 151.578,38.311 153.203,39.648 158.446 C 40.393 161.371,48.857 169.380,66.229 183.600 C 67.170 184.370,74.909 190.850,83.427 198.000 C 91.945 205.150,100.194 212.057,101.757 213.348 C 103.321 214.640,105.247 216.260,106.037 216.948 C 106.828 217.637,107.820 218.470,108.242 218.800 C 109.085 219.458,114.335 223.786,116.978 226.000 C 117.897 226.770,119.538 228.144,120.624 229.054 C 123.488 231.450,137.326 242.905,140.550 245.547 C 142.062 246.786,143.502 247.981,143.750 248.203 C 143.997 248.424,145.619 249.774,147.353 251.203 C 149.088 252.631,151.252 254.430,152.164 255.200 C 153.075 255.970,156.488 258.760,159.749 261.400 C 163.010 264.040,167.415 267.609,169.539 269.332 C 176.819 275.237,181.175 275.702,185.929 271.081 C 189.084 268.014,188.903 269.830,189.074 239.600 C 189.158 224.750,189.317 212.186,189.426 211.680 C 189.646 210.662,194.059 210.458,198.317 211.268 C 199.352 211.465,201.190 211.792,202.400 211.995 C 207.741 212.892,209.680 213.332,215.752 215.029 C 235.228 220.470,248.423 227.409,268.074 242.542 C 285.064 255.626,305.213 285.262,311.084 305.800 C 311.398 306.900,311.815 308.340,312.010 309.000 C 312.205 309.660,312.654 311.280,313.008 312.600 C 313.362 313.920,313.824 315.630,314.035 316.400 C 314.399 317.733,314.966 320.522,316.230 327.200 C 316.915 330.820,317.661 337.029,317.754 339.877 C 317.833 342.321,318.233 342.903,319.077 341.799 C 319.810 340.841,325.074 330.067,326.600 326.400 C 327.196 324.970,327.996 323.080,328.378 322.200 C 328.761 321.320,329.300 319.970,329.577 319.200 C 329.854 318.430,330.230 317.440,330.412 317.000 C 331.288 314.882,332.615 310.601,334.007 305.400 C 336.343 296.673,336.468 296.041,338.481 282.800 C 339.314 277.323,339.166 248.234,338.278 242.800 C 336.886 234.282,336.209 230.821,334.994 226.000 C 334.634 224.570,334.190 222.770,334.007 222.000 C 329.982 205.057,319.518 183.468,307.642 167.608 C 300.102 157.538,289.349 146.339,280.400 139.238 C 278.970 138.103,277.480 136.908,277.088 136.581 C 273.703 133.758,263.222 126.796,257.600 123.635 C 254.705 122.008,242.986 116.265,241.200 115.598 C 240.430 115.310,238.900 114.678,237.800 114.192 C 229.786 110.654,212.470 106.105,201.400 104.630 C 191.376 103.294,189.980 103.057,189.634 102.635 C 189.438 102.395,189.208 89.561,189.120 74.000 C 188.937 41.734,189.207 44.005,185.176 40.818 C 182.433 38.651,179.388 37.955,175.780 38.672 " stroke="none" fill="#fbfbfb" fill-rule="evenodd"></path><path id="path1" d="M189.600 3.645 C 172.486 4.615,154.975 7.868,139.600 12.933 C 46.409 43.634,-9.819 136.199,6.042 232.800 C 20.437 320.471,90.139 385.678,181.000 396.476 C 187.026 397.193,213.373 397.188,219.600 396.469 C 240.961 394.005,257.665 389.826,275.400 382.512 C 339.231 356.184,385.267 297.400,395.151 229.600 C 396.815 218.190,397.000 215.243,397.000 200.200 C 396.999 185.168,396.836 182.597,395.159 171.200 C 380.422 71.067,290.681 -2.082,189.600 3.645 M181.681 38.816 C 183.759 39.393,187.023 42.093,188.074 44.105 C 188.960 45.799,188.960 45.816,189.120 74.000 C 189.208 89.561,189.438 102.395,189.634 102.635 C 189.980 103.057,191.376 103.294,201.400 104.630 C 212.470 106.105,229.786 110.654,237.800 114.192 C 238.900 114.678,240.430 115.310,241.200 115.598 C 242.986 116.265,254.705 122.008,257.600 123.635 C 263.222 126.796,273.703 133.758,277.088 136.581 C 277.480 136.908,278.970 138.103,280.400 139.238 C 289.349 146.339,300.102 157.538,307.642 167.608 C 319.518 183.468,329.982 205.057,334.007 222.000 C 334.190 222.770,334.634 224.570,334.994 226.000 C 336.209 230.821,336.886 234.282,338.278 242.800 C 339.166 248.234,339.314 277.323,338.481 282.800 C 336.468 296.041,336.343 296.673,334.007 305.400 C 332.615 310.601,331.288 314.882,330.412 317.000 C 330.230 317.440,329.854 318.430,329.577 319.200 C 329.300 319.970,328.761 321.320,328.378 322.200 C 327.996 323.080,327.196 324.970,326.600 326.400 C 325.074 330.067,319.810 340.841,319.077 341.799 C 318.233 342.903,317.833 342.321,317.754 339.877 C 317.661 337.029,316.915 330.820,316.230 327.200 C 314.966 320.522,314.399 317.733,314.035 316.400 C 313.824 315.630,313.362 313.920,313.008 312.600 C 312.654 311.280,312.205 309.660,312.010 309.000 C 311.815 308.340,311.398 306.900,311.084 305.800 C 305.213 285.262,285.064 255.626,268.074 242.542 C 248.423 227.409,235.228 220.470,215.752 215.029 C 209.680 213.332,207.741 212.892,202.400 211.995 C 201.190 211.792,199.352 211.465,198.317 211.268 C 194.059 210.458,189.646 210.662,189.426 211.680 C 189.317 212.186,189.158 224.750,189.074 239.600 C 188.903 269.830,189.084 268.014,185.929 271.081 C 181.175 275.702,176.819 275.237,169.539 269.332 C 167.415 267.609,163.010 264.040,159.749 261.400 C 156.488 258.760,153.075 255.970,152.164 255.200 C 151.252 254.430,149.088 252.631,147.353 251.203 C 145.619 249.774,143.997 248.424,143.750 248.203 C 143.502 247.981,142.062 246.786,140.550 245.547 C 137.326 242.905,123.488 231.450,120.624 229.054 C 119.538 228.144,117.897 226.770,116.978 226.000 C 114.335 223.786,109.085 219.458,108.242 218.800 C 107.820 218.470,106.828 217.637,106.037 216.948 C 105.247 216.260,103.321 214.640,101.757 213.348 C 100.194 212.057,91.945 205.150,83.427 198.000 C 74.909 190.850,67.170 184.370,66.229 183.600 C 48.857 169.380,40.393 161.371,39.648 158.446 C 38.311 153.203,39.502 151.578,53.200 139.964 C 66.163 128.973,84.444 113.631,91.434 107.875 C 92.553 106.954,97.143 103.113,101.634 99.339 C 106.125 95.565,116.550 86.870,124.800 80.016 C 133.050 73.162,141.510 66.130,143.600 64.390 C 145.690 62.649,150.820 58.420,155.000 54.991 C 159.180 51.562,163.494 48.001,164.587 47.078 C 169.113 43.256,175.015 38.824,175.780 38.672 C 177.423 38.346,180.235 38.414,181.681 38.816 " stroke="none" fill="#040404" fill-rule="evenodd"></path></g></svg>